<svg xmlns="http://www.w3.org/2000/svg" xmlns:xlink="http://www.w3.org/1999/xlink" width="512" zoomAndPan="magnify" viewBox="0 0 384 383.999986" height="512" preserveAspectRatio="xMidYMid meet" version="1.0"><defs><filter x="0%" y="0%" width="100%" height="100%" id="336b35f73e"><feColorMatrix values="0 0 0 0 1 0 0 0 0 1 0 0 0 0 1 0 0 0 1 0" color-interpolation-filters="sRGB"/></filter><mask id="b759cf21bd"><g filter="url(#336b35f73e)"><rect x="-38.4" width="460.8" fill="#000000" y="-38.399999" height="460.799983" fill-opacity="0.5"/></g></mask><clipPath id="f5e5e3d624"><path d="M 7.203125 0.765625 L 39.824219 0.765625 L 39.824219 42.417969 L 7.203125 42.417969 Z M 7.203125 0.765625 " clip-rule="nonzero"/></clipPath><clipPath id="1d93269e26"><rect x="0" width="41" y="0" height="104"/></clipPath><mask id="6058eb2376"><g filter="url(#336b35f73e)"><rect x="-38.4" width="460.8" fill="#000000" y="-38.399999" height="460.799983" fill-opacity="0.5"/></g></mask><clipPath id="7d31e525bf"><path d="M 33.660156 0.730469 L 54.636719 0.730469 L 54.636719 27.929688 L 33.660156 27.929688 Z M 33.660156 0.730469 " clip-rule="nonzero"/></clipPath><clipPath id="b04c67f676"><rect x="0" width="55" y="0" height="67"/></clipPath><mask id="88b9621c61"><g filter="url(#336b35f73e)"><rect x="-38.4" width="460.8" fill="#000000" y="-38.399999" height="460.799983" fill-opacity="0.5"/></g></mask><clipPath id="81c63f40a6"><path d="M 10 0.875 L 17 0.875 L 17 26.375 L 10 26.375 Z M 10 0.875 " clip-rule="nonzero"/></clipPath><clipPath id="fa403c23bc"><path d="M 0.601562 10 L 26.101562 10 L 26.101562 16 L 0.601562 16 Z M 0.601562 10 " clip-rule="nonzero"/></clipPath><clipPath id="d821daf360"><rect x="0" width="27" y="0" height="27"/></clipPath><mask id="6a7e0845b3"><g filter="url(#336b35f73e)"><rect x="-38.4" width="460.8" fill="#000000" y="-38.399999" height="460.799983" fill-opacity="0.5"/></g></mask><clipPath id="d5d61db85c"><path d="M 0.292969 0.765625 L 22.792969 0.765625 L 22.792969 23.265625 L 0.292969 23.265625 Z M 0.292969 0.765625 " clip-rule="nonzero"/></clipPath><clipPath id="fd949503ee"><rect x="0" width="23" y="0" height="24"/></clipPath><mask id="053f3effae"><g filter="url(#336b35f73e)"><rect x="-38.4" width="460.8" fill="#000000" y="-38.399999" height="460.799983" fill-opacity="0.5"/></g></mask><clipPath id="2f5e3ebf51"><path d="M 49.816406 0.367188 L 81.316406 0.367188 L 81.316406 40.867188 L 49.816406 40.867188 Z M 49.816406 0.367188 " clip-rule="nonzero"/></clipPath><clipPath id="139ca038d4"><rect x="0" width="82" y="0" height="64"/></clipPath><clipPath id="59ada976ad"><path d="M 26.398438 18 L 357.898438 18 L 357.898438 365.914062 L 26.398438 365.914062 Z M 26.398438 18 " clip-rule="nonzero"/></clipPath><clipPath id="abe6972ee3"><path d="M 26.402344 17.914062 L 357.898438 17.914062 L 357.898438 365.914062 L 26.402344 365.914062 Z M 26.402344 17.914062 " clip-rule="nonzero"/></clipPath><clipPath id="097a93c64c"><path d="M 191.996094 17.914062 C 100.542969 17.914062 26.402344 95.851562 26.402344 191.996094 C 26.402344 288.136719 100.542969 366.078125 191.996094 366.078125 C 283.453125 366.078125 357.59375 288.136719 357.59375 191.996094 C 357.59375 95.851562 283.453125 17.914062 191.996094 17.914062 Z M 191.996094 17.914062 " clip-rule="nonzero"/></clipPath></defs><g mask="url(#b759cf21bd)"><g transform="matrix(1, 0, 0, 1, 0, 8)"><g clip-path="url(#1d93269e26)"><g clip-path="url(#f5e5e3d624)"><path fill="#ffffff" d="M -42.511719 59.515625 C -24.015625 53.957031 -20 43.363281 -15.484375 24.039062 C -15.414062 23.734375 -15.257812 23.484375 -15.011719 23.292969 C -14.769531 23.097656 -14.492188 23.003906 -14.179688 23.003906 C -13.871094 23.003906 -13.59375 23.097656 -13.347656 23.292969 C -13.105469 23.484375 -12.949219 23.734375 -12.878906 24.039062 C -8.363281 43.363281 -4.34375 53.957031 14.148438 59.515625 C 14.433594 59.597656 14.660156 59.761719 14.839844 59.996094 C 15.015625 60.234375 15.101562 60.5 15.101562 60.796875 C 15.101562 61.089844 15.015625 61.359375 14.839844 61.59375 C 14.660156 61.832031 14.433594 61.992188 14.148438 62.078125 C -4.347656 67.636719 -8.367188 78.230469 -12.882812 97.554688 C -12.953125 97.859375 -13.109375 98.109375 -13.355469 98.300781 C -13.597656 98.496094 -13.875 98.589844 -14.1875 98.589844 C -14.496094 98.589844 -14.773438 98.496094 -15.019531 98.300781 C -15.261719 98.109375 -15.417969 97.859375 -15.488281 97.554688 C -20.003906 78.230469 -24.023438 67.636719 -42.515625 62.078125 C -42.800781 61.996094 -43.03125 61.832031 -43.207031 61.59375 C -43.382812 61.359375 -43.472656 61.089844 -43.46875 60.792969 C -43.46875 60.5 -43.378906 60.230469 -43.203125 59.996094 C -43.023438 59.757812 -42.792969 59.597656 -42.511719 59.515625 Z M 11.953125 20.421875 C 19.753906 23.28125 22.140625 28.238281 24.242188 36.554688 C 24.320312 36.851562 24.476562 37.09375 24.71875 37.28125 C 24.960938 37.46875 25.234375 37.5625 25.539062 37.5625 C 25.84375 37.5625 26.117188 37.46875 26.359375 37.28125 C 26.601562 37.09375 26.761719 36.851562 26.835938 36.554688 C 28.941406 28.242188 31.328125 23.285156 39.125 20.421875 C 39.390625 20.324219 39.601562 20.160156 39.765625 19.929688 C 39.925781 19.699219 40.007812 19.445312 40.007812 19.164062 C 40.007812 18.882812 39.925781 18.625 39.765625 18.394531 C 39.601562 18.167969 39.390625 18.003906 39.125 17.90625 C 31.328125 15.046875 28.9375 10.089844 26.835938 1.769531 C 26.761719 1.476562 26.601562 1.234375 26.359375 1.046875 C 26.117188 0.859375 25.84375 0.765625 25.539062 0.765625 C 25.234375 0.765625 24.960938 0.859375 24.71875 1.046875 C 24.476562 1.234375 24.320312 1.476562 24.242188 1.769531 C 22.136719 10.089844 19.753906 15.046875 11.953125 17.90625 C 11.6875 18.003906 11.476562 18.167969 11.316406 18.394531 C 11.152344 18.625 11.074219 18.882812 11.074219 19.164062 C 11.074219 19.445312 11.152344 19.699219 11.316406 19.929688 C 11.476562 20.160156 11.6875 20.324219 11.953125 20.421875 Z M 13.75 92.375 C 18.351562 94.320312 20.101562 97.464844 21.480469 102.414062 C 21.558594 102.703125 21.71875 102.9375 21.957031 103.121094 C 22.199219 103.304688 22.46875 103.394531 22.769531 103.394531 C 23.070312 103.394531 23.339844 103.304688 23.578125 103.121094 C 23.820312 102.9375 23.980469 102.703125 24.058594 102.414062 C 25.4375 97.464844 27.183594 94.320312 31.789062 92.375 C 32.035156 92.269531 32.234375 92.105469 32.382812 91.878906 C 32.53125 91.65625 32.601562 91.410156 32.601562 91.140625 C 32.601562 90.875 32.53125 90.628906 32.382812 90.402344 C 32.234375 90.179688 32.035156 90.015625 31.789062 89.910156 C 27.1875 87.960938 25.4375 84.820312 24.058594 79.871094 C 23.980469 79.582031 23.820312 79.34375 23.578125 79.164062 C 23.339844 78.980469 23.070312 78.890625 22.769531 78.890625 C 22.46875 78.890625 22.199219 78.980469 21.957031 79.164062 C 21.71875 79.34375 21.558594 79.582031 21.480469 79.871094 C 20.101562 84.820312 18.351562 87.960938 13.75 89.910156 C 13.5 90.015625 13.304688 90.179688 13.15625 90.402344 C 13.007812 90.625 12.933594 90.871094 12.933594 91.140625 C 12.933594 91.410156 13.003906 91.65625 13.152344 91.878906 C 13.300781 92.105469 13.496094 92.269531 13.746094 92.375 Z M 13.75 92.375 " fill-opacity="1" fill-rule="nonzero"/></g></g></g></g><g mask="url(#6058eb2376)"><g transform="matrix(1, 0, 0, 1, 16, 44)"><g clip-path="url(#b04c67f676)"><g clip-path="url(#7d31e525bf)"><path fill="#ffffff" d="M 1.707031 38.484375 C 13.59375 34.914062 16.175781 28.105469 19.078125 15.683594 C 19.125 15.492188 19.222656 15.332031 19.378906 15.207031 C 19.539062 15.082031 19.714844 15.019531 19.914062 15.019531 C 20.117188 15.019531 20.292969 15.082031 20.449219 15.207031 C 20.605469 15.332031 20.707031 15.492188 20.753906 15.683594 C 23.65625 28.105469 26.238281 34.914062 38.121094 38.484375 C 38.304688 38.539062 38.453125 38.644531 38.566406 38.796875 C 38.679688 38.949219 38.734375 39.121094 38.734375 39.308594 C 38.734375 39.5 38.679688 39.671875 38.566406 39.824219 C 38.453125 39.976562 38.304688 40.078125 38.121094 40.132812 C 26.234375 43.707031 23.652344 50.515625 20.75 62.933594 C 20.703125 63.128906 20.601562 63.289062 20.445312 63.414062 C 20.289062 63.539062 20.113281 63.601562 19.910156 63.601562 C 19.710938 63.601562 19.535156 63.539062 19.375 63.414062 C 19.21875 63.289062 19.121094 63.128906 19.074219 62.933594 C 16.171875 50.515625 13.589844 43.707031 1.703125 40.132812 C 1.523438 40.078125 1.375 39.976562 1.261719 39.824219 C 1.148438 39.671875 1.089844 39.5 1.089844 39.308594 C 1.09375 39.117188 1.148438 38.945312 1.261719 38.792969 C 1.378906 38.640625 1.527344 38.539062 1.707031 38.484375 Z M 36.710938 13.359375 C 41.722656 15.199219 43.257812 18.386719 44.609375 23.730469 C 44.660156 23.921875 44.761719 24.074219 44.914062 24.195312 C 45.070312 24.316406 45.246094 24.375 45.441406 24.375 C 45.640625 24.375 45.816406 24.316406 45.96875 24.195312 C 46.125 24.074219 46.226562 23.921875 46.277344 23.730469 C 47.628906 18.386719 49.164062 15.203125 54.175781 13.359375 C 54.34375 13.300781 54.480469 13.195312 54.585938 13.046875 C 54.6875 12.898438 54.742188 12.734375 54.742188 12.554688 C 54.742188 12.371094 54.6875 12.207031 54.585938 12.058594 C 54.480469 11.910156 54.34375 11.808594 54.175781 11.746094 C 49.164062 9.90625 47.625 6.71875 46.277344 1.375 C 46.226562 1.183594 46.125 1.03125 45.96875 0.910156 C 45.816406 0.789062 45.640625 0.730469 45.441406 0.730469 C 45.246094 0.730469 45.070312 0.789062 44.914062 0.910156 C 44.761719 1.03125 44.660156 1.183594 44.609375 1.375 C 43.257812 6.71875 41.722656 9.90625 36.710938 11.746094 C 36.542969 11.808594 36.40625 11.910156 36.300781 12.058594 C 36.199219 12.207031 36.144531 12.371094 36.144531 12.554688 C 36.144531 12.734375 36.199219 12.898438 36.300781 13.046875 C 36.40625 13.195312 36.542969 13.300781 36.710938 13.359375 Z M 37.863281 59.605469 C 40.824219 60.855469 41.949219 62.875 42.832031 66.054688 C 42.882812 66.242188 42.988281 66.394531 43.140625 66.511719 C 43.296875 66.628906 43.46875 66.6875 43.664062 66.6875 C 43.855469 66.6875 44.027344 66.628906 44.183594 66.511719 C 44.335938 66.394531 44.441406 66.242188 44.492188 66.054688 C 45.375 62.875 46.5 60.855469 49.460938 59.605469 C 49.808594 59.457031 49.984375 59.191406 49.984375 58.8125 C 49.984375 58.433594 49.808594 58.167969 49.460938 58.019531 C 46.5 56.769531 45.375 54.75 44.492188 51.570312 C 44.441406 51.382812 44.335938 51.230469 44.183594 51.113281 C 44.027344 50.996094 43.855469 50.9375 43.664062 50.9375 C 43.46875 50.9375 43.296875 50.996094 43.140625 51.113281 C 42.988281 51.230469 42.882812 51.382812 42.832031 51.570312 C 41.949219 54.75 40.824219 56.769531 37.863281 58.019531 C 37.515625 58.167969 37.339844 58.433594 37.339844 58.8125 C 37.339844 59.191406 37.515625 59.453125 37.863281 59.605469 Z M 37.863281 59.605469 " fill-opacity="1" fill-rule="nonzero"/></g></g></g></g><g mask="url(#88b9621c61)"><g transform="matrix(1, 0, 0, 1, 345, 58)"><g clip-path="url(#d821daf360)"><g clip-path="url(#81c63f40a6)"><path fill="#ffffff" d="M 11.433594 24.246094 C 11.398438 24.023438 11.382812 23.804688 11.382812 23.585938 C 11.382812 23.574219 11.382812 23.566406 11.382812 23.554688 C 11.394531 23.109375 11.398438 22.714844 11.390625 22.367188 C 11.382812 21.621094 11.363281 20.78125 11.339844 19.855469 L 11.339844 19.867188 C 11.257812 17.246094 11.160156 14.289062 11.042969 11 L 11.042969 10.992188 C 11.015625 10.144531 10.996094 9.351562 10.980469 8.613281 L 10.980469 8.609375 C 10.929688 6.15625 10.925781 4.386719 10.96875 3.296875 C 11.023438 1.9375 12.167969 0.875 13.53125 0.929688 C 14.894531 0.984375 15.953125 2.128906 15.898438 3.492188 C 15.859375 4.480469 15.867188 6.152344 15.914062 8.507812 C 15.929688 9.230469 15.949219 10.003906 15.976562 10.835938 L 15.976562 10.828125 C 16.089844 14.125 16.191406 17.085938 16.273438 19.710938 C 16.273438 19.714844 16.273438 19.71875 16.273438 19.722656 C 16.296875 20.671875 16.316406 21.53125 16.328125 22.296875 C 16.332031 22.703125 16.328125 23.160156 16.320312 23.664062 L 16.320312 23.632812 C 16.320312 23.570312 16.316406 23.507812 16.304688 23.453125 C 16.523438 24.800781 15.609375 26.066406 14.265625 26.285156 C 12.921875 26.503906 11.652344 25.589844 11.433594 24.246094 Z M 11.433594 24.246094 " fill-opacity="1" fill-rule="nonzero"/></g><g clip-path="url(#fa403c23bc)"><path fill="#ffffff" d="M 2.855469 10.945312 C 3.078125 10.90625 3.296875 10.890625 3.515625 10.894531 C 3.523438 10.894531 3.535156 10.894531 3.546875 10.894531 C 3.992188 10.902344 4.386719 10.90625 4.734375 10.902344 C 5.480469 10.890625 6.316406 10.875 7.246094 10.847656 L 7.234375 10.847656 C 9.855469 10.765625 12.808594 10.667969 16.101562 10.554688 L 16.109375 10.554688 C 16.957031 10.527344 17.75 10.503906 18.488281 10.488281 C 20.945312 10.4375 22.714844 10.433594 23.800781 10.476562 C 25.164062 10.53125 26.226562 11.679688 26.171875 13.039062 C 26.117188 14.402344 24.96875 15.460938 23.609375 15.410156 C 22.621094 15.371094 20.949219 15.375 18.59375 15.425781 C 17.871094 15.4375 17.097656 15.460938 16.265625 15.488281 L 16.273438 15.488281 C 12.976562 15.601562 10.015625 15.699219 7.390625 15.78125 C 7.386719 15.78125 7.378906 15.78125 7.375 15.78125 C 6.429688 15.808594 5.570312 15.824219 4.804688 15.835938 C 4.398438 15.84375 3.941406 15.839844 3.4375 15.828125 L 3.464844 15.828125 C 3.53125 15.828125 3.589844 15.824219 3.648438 15.816406 C 2.300781 16.035156 1.035156 15.121094 0.816406 13.773438 C 0.597656 12.429688 1.511719 11.164062 2.855469 10.945312 Z M 2.855469 10.945312 " fill-opacity="1" fill-rule="nonzero"/></g></g></g></g><g mask="url(#6a7e0845b3)"><g transform="matrix(1, 0, 0, 1, 48, 352)"><g clip-path="url(#fd949503ee)"><g clip-path="url(#d5d61db85c)"><path fill="#ffffff" d="M 11.527344 0.765625 C 5.320312 0.765625 0.292969 5.792969 0.292969 12 C 0.292969 18.203125 5.320312 23.230469 11.527344 23.230469 C 17.730469 23.230469 22.757812 18.203125 22.757812 12 C 22.757812 5.792969 17.730469 0.765625 11.527344 0.765625 Z M 11.527344 20.984375 C 6.5625 20.984375 2.539062 16.964844 2.539062 12 C 2.539062 7.035156 6.5625 3.011719 11.527344 3.011719 C 16.492188 3.011719 20.511719 7.035156 20.511719 12 C 20.511719 16.964844 16.492188 20.984375 11.527344 20.984375 Z M 11.527344 20.984375 " fill-opacity="1" fill-rule="nonzero"/></g></g></g></g><g mask="url(#053f3effae)"><g transform="matrix(1, 0, 0, 1, 276, 320)"><g clip-path="url(#139ca038d4)"><g clip-path="url(#2f5e3ebf51)"><path fill="#ffffff" d="M 1.699219 57.234375 C 19.597656 51.855469 23.484375 41.597656 27.859375 22.894531 C 27.925781 22.601562 28.078125 22.359375 28.3125 22.171875 C 28.550781 21.984375 28.816406 21.890625 29.121094 21.890625 C 29.421875 21.890625 29.6875 21.984375 29.925781 22.171875 C 30.160156 22.359375 30.3125 22.601562 30.382812 22.894531 C 34.75 41.597656 38.640625 51.855469 56.542969 57.234375 C 56.816406 57.316406 57.039062 57.472656 57.207031 57.699219 C 57.378906 57.929688 57.464844 58.1875 57.464844 58.472656 C 57.464844 58.761719 57.378906 59.019531 57.207031 59.246094 C 57.039062 59.476562 56.816406 59.632812 56.542969 59.714844 C 38.636719 65.09375 34.746094 75.351562 30.375 94.058594 C 30.304688 94.351562 30.15625 94.589844 29.917969 94.777344 C 29.683594 94.964844 29.414062 95.058594 29.113281 95.058594 C 28.8125 95.058594 28.542969 94.964844 28.308594 94.777344 C 28.070312 94.589844 27.921875 94.351562 27.851562 94.058594 C 23.480469 75.351562 19.59375 65.09375 1.691406 59.71875 C 1.417969 59.632812 1.195312 59.476562 1.023438 59.25 C 0.851562 59.019531 0.765625 58.757812 0.769531 58.472656 C 0.769531 58.1875 0.855469 57.929688 1.027344 57.699219 C 1.199219 57.46875 1.421875 57.3125 1.699219 57.234375 Z M 54.414062 19.394531 C 61.964844 22.164062 64.277344 26.960938 66.3125 35.011719 C 66.386719 35.296875 66.539062 35.53125 66.773438 35.710938 C 67.007812 35.894531 67.269531 35.984375 67.566406 35.984375 C 67.863281 35.984375 68.128906 35.894531 68.359375 35.710938 C 68.59375 35.53125 68.746094 35.296875 68.820312 35.011719 C 70.859375 26.960938 73.167969 22.164062 80.71875 19.394531 C 80.972656 19.300781 81.179688 19.140625 81.335938 18.917969 C 81.492188 18.695312 81.570312 18.449219 81.570312 18.175781 C 81.570312 17.902344 81.492188 17.65625 81.335938 17.433594 C 81.179688 17.210938 80.972656 17.050781 80.71875 16.960938 C 73.167969 14.1875 70.855469 9.390625 68.820312 1.339844 C 68.746094 1.054688 68.59375 0.820312 68.359375 0.640625 C 68.128906 0.457031 67.863281 0.367188 67.566406 0.367188 C 67.269531 0.367188 67.007812 0.457031 66.773438 0.640625 C 66.539062 0.820312 66.386719 1.054688 66.3125 1.339844 C 64.273438 9.390625 61.964844 14.191406 54.414062 16.960938 C 54.160156 17.050781 53.953125 17.210938 53.796875 17.433594 C 53.640625 17.65625 53.5625 17.902344 53.5625 18.175781 C 53.5625 18.449219 53.640625 18.695312 53.796875 18.917969 C 53.953125 19.140625 54.160156 19.300781 54.414062 19.394531 Z M 56.152344 89.039062 C 60.609375 90.925781 62.300781 93.96875 63.636719 98.757812 C 63.714844 99.039062 63.867188 99.265625 64.101562 99.445312 C 64.332031 99.621094 64.59375 99.707031 64.882812 99.707031 C 65.175781 99.707031 65.4375 99.621094 65.667969 99.445312 C 65.902344 99.265625 66.054688 99.039062 66.132812 98.757812 C 67.464844 93.96875 69.160156 90.925781 73.617188 89.039062 C 73.855469 88.9375 74.046875 88.777344 74.1875 88.5625 C 74.332031 88.347656 74.402344 88.109375 74.402344 87.847656 C 74.402344 87.589844 74.332031 87.351562 74.1875 87.132812 C 74.046875 86.917969 73.855469 86.757812 73.617188 86.65625 C 69.160156 84.769531 67.464844 81.730469 66.132812 76.9375 C 66.054688 76.65625 65.902344 76.429688 65.667969 76.253906 C 65.4375 76.074219 65.175781 75.988281 64.882812 75.988281 C 64.59375 75.988281 64.332031 76.074219 64.101562 76.253906 C 63.867188 76.429688 63.714844 76.65625 63.636719 76.9375 C 62.300781 81.730469 60.609375 84.769531 56.152344 86.65625 C 55.914062 86.757812 55.722656 86.914062 55.578125 87.132812 C 55.4375 87.347656 55.363281 87.585938 55.363281 87.847656 C 55.363281 88.105469 55.433594 88.34375 55.578125 88.5625 C 55.71875 88.777344 55.910156 88.9375 56.148438 89.039062 Z M 56.152344 89.039062 " fill-opacity="1" fill-rule="nonzero"/></g></g></g></g><path fill="#ffffff" d="M 192.007812 104.085938 C 155.421875 104.085938 125.761719 135.234375 125.761719 173.660156 C 125.761719 212.089844 155.421875 243.238281 192.007812 243.238281 C 228.59375 243.238281 258.246094 212.089844 258.246094 173.660156 C 258.246094 135.234375 228.59375 104.085938 192.007812 104.085938 " fill-opacity="1" fill-rule="nonzero"/><g clip-path="url(#59ada976ad)"><path fill="#ffffff" d="M 302.023438 312.078125 C 287.351562 276.265625 256.554688 253.867188 191.90625 253.867188 C 127.34375 253.867188 96.546875 276.207031 81.851562 311.9375 C 51.945312 281.625 33.34375 239.09375 33.34375 191.996094 C 33.34375 99.953125 104.378906 25.339844 192.007812 25.339844 C 279.636719 25.339844 350.671875 99.953125 350.671875 191.996094 C 350.671875 239.167969 332.011719 281.757812 302.023438 312.078125 Z M 192.007812 18.050781 C 100.542969 18.050781 26.398438 95.925781 26.398438 191.996094 C 26.398438 242.242188 46.683594 287.511719 79.121094 319.265625 C 108.699219 348.222656 148.378906 365.941406 192.007812 365.941406 C 235.554688 365.941406 275.179688 348.28125 304.746094 319.410156 C 337.265625 287.652344 357.613281 242.320312 357.613281 191.996094 C 357.613281 95.925781 283.464844 18.050781 192.007812 18.050781 " fill-opacity="1" fill-rule="nonzero"/></g><g clip-path="url(#abe6972ee3)"><g clip-path="url(#097a93c64c)"><path stroke-linecap="butt" transform="matrix(0.75, 0, 0, 0.75, 26.401465, 17.912568)" fill="none" stroke-linejoin="miter" d="M 220.792856 0.00199328 C 98.855347 0.00199328 0.00117227 103.918668 0.00117227 232.111387 C 0.00117227 360.298897 98.855347 464.22078 220.792856 464.22078 C 342.735574 464.22078 441.589749 360.298897 441.589749 232.111387 C 441.589749 103.918668 342.735574 0.00199328 220.792856 0.00199328 Z M 220.792856 0.00199328 " stroke="#ffffff" stroke-width="40" stroke-opacity="1" stroke-miterlimit="4"/></g></g></svg>