<svg xmlns="http://www.w3.org/2000/svg" xmlns:xlink="http://www.w3.org/1999/xlink" width="512" zoomAndPan="magnify" viewBox="0 0 384 383.999986" height="512" preserveAspectRatio="xMidYMid meet" version="1.0"><defs><clipPath id="9512766ee2"><path d="M 10.972656 2.164062 L 372.464844 2.164062 L 372.464844 381.648438 L 10.972656 381.648438 Z M 10.972656 2.164062 " clip-rule="nonzero"/></clipPath><clipPath id="86633b5968"><path d="M 11.863281 2.164062 L 373.355469 2.164062 L 373.355469 381.648438 L 11.863281 381.648438 Z M 11.863281 2.164062 " clip-rule="nonzero"/></clipPath><clipPath id="a5eb9cb13d"><path d="M 192.441406 2.164062 C 92.710938 2.164062 11.863281 87.152344 11.863281 191.992188 C 11.863281 296.835938 92.710938 381.824219 192.441406 381.824219 C 292.171875 381.824219 373.019531 296.835938 373.019531 191.992188 C 373.019531 87.152344 292.171875 2.164062 192.441406 2.164062 Z M 192.441406 2.164062 " clip-rule="nonzero"/></clipPath></defs><path fill="#033693" d="M 191.5625 96.132812 C 151.667969 96.132812 119.324219 130.097656 119.324219 172 C 119.324219 213.90625 151.667969 247.875 191.5625 247.875 C 231.460938 247.875 263.796875 213.90625 263.796875 172 C 263.796875 130.097656 231.460938 96.132812 191.5625 96.132812 " fill-opacity="1" fill-rule="nonzero"/><g clip-path="url(#9512766ee2)"><path fill="#033693" d="M 311.53125 322.941406 C 295.535156 283.886719 261.949219 259.460938 191.453125 259.460938 C 121.050781 259.460938 87.464844 283.824219 71.441406 322.789062 C 38.828125 289.734375 18.542969 243.355469 18.542969 191.992188 C 18.542969 91.625 96.007812 10.261719 191.5625 10.261719 C 287.121094 10.261719 364.582031 91.625 364.582031 191.992188 C 364.582031 243.433594 344.230469 289.878906 311.53125 322.941406 Z M 191.5625 2.3125 C 91.824219 2.3125 10.972656 87.234375 10.972656 191.992188 C 10.972656 246.785156 33.089844 296.152344 68.464844 330.78125 C 100.714844 362.355469 143.988281 381.675781 191.5625 381.675781 C 239.050781 381.675781 282.261719 362.421875 314.5 330.9375 C 349.964844 296.304688 372.152344 246.871094 372.152344 191.992188 C 372.152344 87.234375 291.296875 2.3125 191.5625 2.3125 " fill-opacity="1" fill-rule="nonzero"/></g><g clip-path="url(#86633b5968)"><g clip-path="url(#a5eb9cb13d)"><path stroke-linecap="butt" transform="matrix(0.817855, 0, 0, 0.817855, 11.86388, 2.162245)" fill="none" stroke-linejoin="miter" d="M 220.794017 0.00222265 C 98.852537 0.00222265 -0.000732319 103.918277 -0.000732319 232.107043 C -0.000732319 360.300586 98.852537 464.21664 220.794017 464.21664 C 342.735497 464.21664 441.588767 360.300586 441.588767 232.107043 C 441.588767 103.918277 342.735497 0.00222265 220.794017 0.00222265 Z M 220.794017 0.00222265 " stroke="#033693" stroke-width="36.681309" stroke-opacity="1" stroke-miterlimit="4"/></g></g></svg>