<svg xmlns="http://www.w3.org/2000/svg" xmlns:xlink="http://www.w3.org/1999/xlink" width="512" zoomAndPan="magnify" viewBox="0 0 384 383.999986" height="512" preserveAspectRatio="xMidYMid meet" version="1.0"><defs><filter x="0%" y="0%" width="100%" height="100%" id="84f1d39c8d"><feColorMatrix values="0 0 0 0 1 0 0 0 0 1 0 0 0 0 1 0 0 0 1 0" color-interpolation-filters="sRGB"/></filter><mask id="6310b9a383"><g filter="url(#84f1d39c8d)"><rect x="-38.4" width="460.8" fill="#000000" y="-38.399999" height="460.799983" fill-opacity="0.5"/></g></mask><clipPath id="56dfc92a7c"><path d="M 53.574219 0.597656 L 87.472656 0.597656 L 87.472656 43.882812 L 53.574219 43.882812 Z M 53.574219 0.597656 " clip-rule="nonzero"/></clipPath><clipPath id="c208db8019"><rect x="0" width="88" y="0" height="108"/></clipPath><mask id="14131500c6"><g filter="url(#84f1d39c8d)"><rect x="-38.4" width="460.8" fill="#000000" y="-38.399999" height="460.799983" fill-opacity="0.5"/></g></mask><clipPath id="842eb3b739"><path d="M 34.695312 0.972656 L 56.496094 0.972656 L 56.496094 29.238281 L 34.695312 29.238281 Z M 34.695312 0.972656 " clip-rule="nonzero"/></clipPath><clipPath id="5f599808c4"><rect x="0" width="57" y="0" height="70"/></clipPath><clipPath id="dd9e2ad6fe"><path d="M 46.75 30.242188 L 297 30.242188 L 297 353.492188 L 46.75 353.492188 Z M 46.75 30.242188 " clip-rule="nonzero"/></clipPath><clipPath id="f65eaf5321"><path d="M 235 93 L 345.25 93 L 345.25 172 L 235 172 Z M 235 93 " clip-rule="nonzero"/></clipPath><mask id="45fe75aa2d"><g filter="url(#84f1d39c8d)"><rect x="-38.4" width="460.8" fill="#000000" y="-38.399999" height="460.799983" fill-opacity="0.5"/></g></mask><clipPath id="da8d29891c"><path d="M 9 0.199219 L 14 0.199219 L 14 22.679688 L 9 22.679688 Z M 9 0.199219 " clip-rule="nonzero"/></clipPath><clipPath id="af9f24b245"><path d="M 0.109375 8 L 22.601562 8 L 22.601562 14 L 0.109375 14 Z M 0.109375 8 " clip-rule="nonzero"/></clipPath><clipPath id="0b9651aa79"><rect x="0" width="23" y="0" height="23"/></clipPath><mask id="38d120caf6"><g filter="url(#84f1d39c8d)"><rect x="-38.4" width="460.8" fill="#000000" y="-38.399999" height="460.799983" fill-opacity="0.5"/></g></mask><clipPath id="ee7b943225"><path d="M 0.917969 0.417969 L 20.417969 0.417969 L 20.417969 19.917969 L 0.917969 19.917969 Z M 0.917969 0.417969 " clip-rule="nonzero"/></clipPath><clipPath id="30c6c08943"><rect x="0" width="21" y="0" height="21"/></clipPath><mask id="fe0baa66ab"><g filter="url(#84f1d39c8d)"><rect x="-38.4" width="460.8" fill="#000000" y="-38.399999" height="460.799983" fill-opacity="0.5"/></g></mask><clipPath id="3450c1a7cb"><path d="M 10.359375 0.84375 L 38.109375 0.84375 L 38.109375 36.84375 L 10.359375 36.84375 Z M 10.359375 0.84375 " clip-rule="nonzero"/></clipPath><clipPath id="007ef20623"><rect x="0" width="39" y="0" height="49"/></clipPath></defs><g mask="url(#6310b9a383)"><g transform="matrix(1, 0, 0, 1, 259, 17)"><g clip-path="url(#c208db8019)"><g clip-path="url(#56dfc92a7c)"><path fill="#ffffff" d="M 1.910156 61.648438 C 21.128906 55.875 25.300781 44.863281 29.996094 24.78125 C 30.070312 24.464844 30.230469 24.207031 30.484375 24.007812 C 30.738281 23.808594 31.027344 23.707031 31.351562 23.707031 C 31.671875 23.707031 31.960938 23.808594 32.214844 24.007812 C 32.46875 24.207031 32.632812 24.464844 32.703125 24.78125 C 37.398438 44.863281 41.570312 55.875 60.792969 61.648438 C 61.085938 61.738281 61.324219 61.90625 61.507812 62.152344 C 61.691406 62.398438 61.78125 62.675781 61.78125 62.984375 C 61.78125 63.289062 61.691406 63.566406 61.507812 63.8125 C 61.324219 64.058594 61.085938 64.226562 60.792969 64.316406 C 41.570312 70.089844 37.390625 81.101562 32.699219 101.1875 C 32.625 101.5 32.460938 101.757812 32.207031 101.960938 C 31.957031 102.160156 31.667969 102.261719 31.34375 102.261719 C 31.019531 102.261719 30.730469 102.160156 30.480469 101.960938 C 30.226562 101.757812 30.0625 101.5 29.988281 101.1875 C 25.296875 81.101562 21.121094 70.089844 1.902344 64.316406 C 1.609375 64.226562 1.367188 64.0625 1.183594 63.8125 C 1 63.566406 0.910156 63.289062 0.910156 62.980469 C 0.910156 62.671875 1.003906 62.394531 1.1875 62.148438 C 1.375 61.902344 1.613281 61.738281 1.910156 61.648438 Z M 58.507812 21.023438 C 66.613281 23.996094 69.097656 29.148438 71.28125 37.792969 C 71.359375 38.097656 71.527344 38.351562 71.777344 38.542969 C 72.027344 38.738281 72.3125 38.835938 72.628906 38.835938 C 72.945312 38.835938 73.230469 38.738281 73.480469 38.542969 C 73.734375 38.351562 73.898438 38.097656 73.976562 37.792969 C 76.164062 29.148438 78.644531 24 86.75 21.023438 C 87.023438 20.921875 87.246094 20.753906 87.414062 20.511719 C 87.578125 20.273438 87.664062 20.007812 87.664062 19.714844 C 87.664062 19.425781 87.578125 19.160156 87.414062 18.917969 C 87.246094 18.679688 87.023438 18.511719 86.75 18.410156 C 78.644531 15.4375 76.160156 10.285156 73.976562 1.640625 C 73.898438 1.332031 73.730469 1.082031 73.480469 0.886719 C 73.230469 0.695312 72.945312 0.597656 72.628906 0.597656 C 72.3125 0.597656 72.027344 0.695312 71.777344 0.886719 C 71.527344 1.082031 71.359375 1.332031 71.28125 1.640625 C 69.09375 10.285156 66.613281 15.4375 58.507812 18.410156 C 58.234375 18.511719 58.011719 18.679688 57.847656 18.917969 C 57.679688 19.160156 57.59375 19.425781 57.59375 19.714844 C 57.59375 20.007812 57.679688 20.273438 57.847656 20.511719 C 58.011719 20.753906 58.234375 20.921875 58.507812 21.023438 Z M 60.375 95.800781 C 65.15625 97.824219 66.976562 101.089844 68.410156 106.234375 C 68.492188 106.535156 68.65625 106.78125 68.90625 106.96875 C 69.15625 107.160156 69.4375 107.253906 69.75 107.253906 C 70.0625 107.253906 70.34375 107.160156 70.59375 106.96875 C 70.839844 106.78125 71.007812 106.535156 71.089844 106.234375 C 72.523438 101.089844 74.339844 97.824219 79.125 95.800781 C 79.378906 95.691406 79.585938 95.519531 79.738281 95.285156 C 79.894531 95.054688 79.96875 94.796875 79.96875 94.519531 C 79.96875 94.242188 79.894531 93.984375 79.738281 93.753906 C 79.585938 93.519531 79.378906 93.347656 79.125 93.238281 C 74.339844 91.214844 72.523438 87.949219 71.089844 82.804688 C 71.007812 82.503906 70.839844 82.257812 70.59375 82.070312 C 70.34375 81.878906 70.0625 81.785156 69.75 81.785156 C 69.4375 81.785156 69.15625 81.878906 68.90625 82.070312 C 68.65625 82.257812 68.492188 82.503906 68.410156 82.804688 C 66.976562 87.949219 65.160156 91.214844 60.375 93.238281 C 60.117188 93.347656 59.914062 93.519531 59.757812 93.75 C 59.605469 93.984375 59.527344 94.238281 59.527344 94.519531 C 59.527344 94.796875 59.601562 95.054688 59.757812 95.285156 C 59.910156 95.519531 60.113281 95.691406 60.371094 95.800781 Z M 60.375 95.800781 " fill-opacity="1" fill-rule="nonzero"/></g></g></g></g><g mask="url(#14131500c6)"><g transform="matrix(1, 0, 0, 1, 322, 54)"><g clip-path="url(#5f599808c4)"><g clip-path="url(#842eb3b739)"><path fill="#ffffff" d="M 1.492188 40.210938 C 13.84375 36.5 16.523438 29.421875 19.542969 16.515625 C 19.589844 16.3125 19.695312 16.144531 19.855469 16.015625 C 20.019531 15.886719 20.203125 15.824219 20.410156 15.824219 C 20.621094 15.824219 20.804688 15.886719 20.96875 16.015625 C 21.128906 16.144531 21.234375 16.3125 21.28125 16.515625 C 24.296875 29.421875 26.980469 36.5 39.332031 40.210938 C 39.523438 40.265625 39.675781 40.375 39.792969 40.53125 C 39.910156 40.691406 39.96875 40.867188 39.96875 41.066406 C 39.96875 41.261719 39.910156 41.441406 39.792969 41.597656 C 39.675781 41.757812 39.523438 41.863281 39.332031 41.921875 C 26.980469 45.632812 24.292969 52.710938 21.277344 65.617188 C 21.230469 65.820312 21.125 65.984375 20.964844 66.113281 C 20.800781 66.246094 20.617188 66.308594 20.40625 66.308594 C 20.199219 66.308594 20.015625 66.246094 19.851562 66.113281 C 19.691406 65.984375 19.585938 65.820312 19.539062 65.617188 C 16.519531 52.710938 13.839844 45.632812 1.488281 41.921875 C 1.296875 41.867188 1.144531 41.757812 1.027344 41.597656 C 0.90625 41.441406 0.847656 41.261719 0.847656 41.066406 C 0.851562 40.867188 0.910156 40.6875 1.027344 40.53125 C 1.148438 40.371094 1.300781 40.265625 1.492188 40.210938 Z M 37.867188 14.097656 C 43.074219 16.011719 44.671875 19.320312 46.074219 24.875 C 46.125 25.074219 46.230469 25.234375 46.394531 25.359375 C 46.554688 25.484375 46.738281 25.546875 46.941406 25.546875 C 47.144531 25.546875 47.328125 25.484375 47.488281 25.359375 C 47.652344 25.234375 47.757812 25.074219 47.808594 24.875 C 49.210938 19.320312 50.808594 16.011719 56.015625 14.097656 C 56.191406 14.035156 56.335938 13.925781 56.441406 13.769531 C 56.550781 13.617188 56.605469 13.445312 56.605469 13.257812 C 56.605469 13.070312 56.550781 12.902344 56.441406 12.746094 C 56.335938 12.59375 56.191406 12.484375 56.015625 12.417969 C 50.808594 10.507812 49.210938 7.199219 47.808594 1.644531 C 47.757812 1.445312 47.652344 1.285156 47.488281 1.160156 C 47.328125 1.035156 47.144531 0.972656 46.941406 0.972656 C 46.738281 0.972656 46.554688 1.035156 46.394531 1.160156 C 46.230469 1.285156 46.125 1.445312 46.074219 1.644531 C 44.667969 7.199219 43.074219 10.507812 37.867188 12.417969 C 37.691406 12.484375 37.546875 12.59375 37.441406 12.746094 C 37.332031 12.902344 37.277344 13.070312 37.277344 13.257812 C 37.277344 13.445312 37.332031 13.617188 37.441406 13.769531 C 37.546875 13.925781 37.691406 14.035156 37.867188 14.097656 Z M 39.066406 62.15625 C 42.140625 63.457031 43.308594 65.554688 44.230469 68.863281 C 44.28125 69.054688 44.390625 69.214844 44.550781 69.335938 C 44.710938 69.457031 44.890625 69.515625 45.089844 69.515625 C 45.292969 69.515625 45.472656 69.457031 45.632812 69.335938 C 45.792969 69.214844 45.898438 69.054688 45.953125 68.863281 C 46.871094 65.554688 48.039062 63.457031 51.113281 62.15625 C 51.476562 62.003906 51.660156 61.726562 51.660156 61.332031 C 51.660156 60.941406 51.476562 60.664062 51.113281 60.511719 C 48.042969 59.210938 46.871094 57.109375 45.953125 53.804688 C 45.898438 53.613281 45.792969 53.453125 45.632812 53.332031 C 45.472656 53.210938 45.292969 53.148438 45.089844 53.148438 C 44.890625 53.148438 44.710938 53.210938 44.550781 53.332031 C 44.390625 53.453125 44.28125 53.613281 44.230469 53.804688 C 43.308594 57.109375 42.140625 59.210938 39.066406 60.511719 C 38.703125 60.664062 38.519531 60.9375 38.519531 61.332031 C 38.519531 61.726562 38.699219 62 39.0625 62.15625 Z M 39.066406 62.15625 " fill-opacity="1" fill-rule="nonzero"/></g></g></g></g><g clip-path="url(#dd9e2ad6fe)"><path fill="#ffffff" d="M 82.796875 36.144531 L 107.957031 36.144531 C 108.265625 32.726562 111.21875 30.242188 114.632812 30.242188 L 228.941406 30.242188 C 232.359375 30.242188 235.308594 32.882812 235.464844 36.144531 L 260.78125 36.144531 C 270.71875 36.144531 279.570312 40.335938 286.25 46.703125 C 292.773438 53.226562 296.8125 62.234375 296.8125 72.175781 L 296.8125 102.148438 L 284.851562 109.136719 L 284.851562 72.332031 C 284.851562 65.808594 282.210938 59.59375 277.707031 55.402344 C 273.515625 51.054688 267.300781 48.257812 260.78125 48.257812 L 235.464844 48.257812 C 235.152344 51.675781 232.203125 54.3125 228.941406 54.3125 L 114.632812 54.3125 C 111.21875 54.3125 108.265625 51.675781 107.957031 48.257812 L 82.796875 48.257812 C 76.273438 48.257812 70.058594 50.898438 65.710938 55.402344 C 61.519531 59.59375 58.722656 65.808594 58.722656 72.332031 L 58.722656 317.871094 C 58.722656 324.394531 61.363281 330.609375 65.710938 334.800781 C 70.058594 339.148438 76.117188 341.945312 82.796875 341.945312 L 260.933594 341.945312 C 267.457031 341.945312 273.671875 339.304688 277.863281 334.800781 C 282.210938 330.609375 285.007812 324.394531 285.007812 317.871094 L 285.007812 166.292969 L 296.964844 159.304688 L 296.964844 317.71875 C 296.964844 327.65625 292.773438 336.664062 286.40625 343.1875 C 279.882812 349.710938 270.875 353.75 260.933594 353.75 L 82.796875 353.75 C 72.855469 353.75 63.847656 349.554688 57.324219 343.1875 C 50.800781 336.664062 46.765625 327.65625 46.765625 317.71875 L 46.765625 72.175781 C 46.765625 62.234375 50.800781 53.382812 57.324219 46.703125 C 63.847656 40.179688 72.855469 36.144531 82.796875 36.144531 Z M 82.796875 36.144531 " fill-opacity="1" fill-rule="nonzero"/></g><path fill="#ffffff" d="M 97.707031 204.1875 C 95.839844 202.480469 95.839844 199.683594 97.707031 197.976562 C 99.414062 196.109375 102.210938 196.109375 103.917969 197.976562 L 111.992188 206.050781 L 127.679688 179.027344 C 128.765625 177.007812 131.5625 176.230469 133.738281 177.472656 C 135.757812 178.5625 136.53125 181.355469 135.289062 183.53125 L 117.117188 215.214844 C 116.808594 215.523438 116.652344 215.992188 116.1875 216.300781 C 114.480469 218.007812 111.683594 218.007812 109.976562 216.300781 L 97.707031 204.03125 Z M 97.707031 204.1875 " fill-opacity="1" fill-rule="nonzero"/><path fill="#ffffff" d="M 151.597656 203.875 C 149.113281 203.875 147.25 202.011719 147.25 199.527344 C 147.25 197.042969 149.113281 195.179688 151.597656 195.179688 L 243.074219 195.179688 C 245.558594 195.179688 247.421875 197.042969 247.421875 199.527344 C 247.421875 202.011719 245.558594 203.875 243.074219 203.875 Z M 151.597656 203.875 " fill-opacity="1" fill-rule="nonzero"/><path fill="#ffffff" d="M 97.707031 250.3125 C 95.839844 248.605469 95.839844 245.808594 97.707031 244.101562 C 99.414062 242.238281 102.210938 242.238281 103.917969 244.101562 L 111.992188 252.175781 L 127.679688 225.152344 C 128.765625 223.132812 131.5625 222.359375 133.738281 223.601562 C 135.757812 224.6875 136.53125 227.484375 135.289062 229.65625 L 117.117188 261.339844 C 116.808594 261.652344 116.652344 262.117188 116.1875 262.429688 C 114.480469 264.136719 111.683594 264.136719 109.976562 262.429688 L 97.707031 250.160156 Z M 97.707031 250.3125 " fill-opacity="1" fill-rule="nonzero"/><path fill="#ffffff" d="M 151.597656 250.003906 C 149.113281 250.003906 147.25 248.140625 147.25 245.65625 C 147.25 243.167969 149.113281 241.304688 151.597656 241.304688 L 243.074219 241.304688 C 245.558594 241.304688 247.421875 243.167969 247.421875 245.65625 C 247.421875 248.140625 245.558594 250.003906 243.074219 250.003906 Z M 151.597656 250.003906 " fill-opacity="1" fill-rule="nonzero"/><path fill="#ffffff" d="M 97.707031 296.441406 C 95.839844 294.730469 95.839844 291.9375 97.707031 290.226562 C 99.414062 288.363281 102.210938 288.363281 103.917969 290.226562 L 111.992188 298.304688 L 127.679688 271.28125 C 128.765625 269.261719 131.5625 268.484375 133.738281 269.726562 C 135.757812 270.816406 136.53125 273.609375 135.289062 275.628906 L 117.117188 307.46875 C 116.808594 307.777344 116.652344 308.242188 116.1875 308.554688 C 114.480469 310.261719 111.683594 310.261719 109.976562 308.554688 L 97.707031 296.285156 Z M 97.707031 296.441406 " fill-opacity="1" fill-rule="nonzero"/><path fill="#ffffff" d="M 151.597656 296.128906 C 149.113281 296.128906 147.25 294.265625 147.25 291.78125 C 147.25 289.296875 149.113281 287.277344 151.597656 287.277344 L 243.074219 287.277344 C 245.558594 287.277344 247.421875 289.296875 247.421875 291.78125 C 247.421875 294.265625 245.558594 296.128906 243.074219 296.128906 Z M 151.597656 296.128906 " fill-opacity="1" fill-rule="nonzero"/><path fill="#ffffff" d="M 171.941406 75.4375 C 194.617188 75.4375 212.945312 93.761719 212.945312 116.4375 C 212.945312 139.113281 194.617188 157.4375 171.941406 157.4375 C 149.269531 157.4375 130.941406 139.113281 130.941406 116.4375 C 130.941406 93.761719 149.269531 75.4375 171.941406 75.4375 Z M 171.941406 95.160156 C 178.464844 95.160156 183.902344 100.441406 183.902344 107.121094 C 183.902344 113.640625 178.621094 119.078125 171.941406 119.078125 C 165.421875 119.078125 159.984375 113.796875 159.984375 107.121094 C 159.984375 100.597656 165.265625 95.160156 171.941406 95.160156 Z M 163.710938 122.496094 L 180.175781 122.496094 C 187.941406 122.496094 194.152344 128.707031 194.152344 136.472656 L 194.152344 137.558594 L 149.734375 137.558594 L 149.734375 136.472656 C 149.734375 128.707031 155.945312 122.496094 163.710938 122.496094 Z M 163.710938 122.496094 " fill-opacity="1" fill-rule="evenodd"/><g clip-path="url(#f65eaf5321)"><path fill="#ffffff" d="M 330.824219 95.472656 L 344.492188 119.078125 C 345.578125 120.941406 344.957031 123.269531 343.09375 124.359375 L 263.265625 170.484375 C 262.488281 170.949219 261.710938 171.105469 260.78125 170.949219 L 239.191406 167.691406 C 237.949219 167.535156 237.015625 166.914062 236.394531 165.824219 C 235.773438 164.738281 235.773438 163.652344 236.085938 162.5625 L 244.007812 142.21875 C 244.316406 141.441406 244.9375 140.664062 245.714844 140.355469 L 325.542969 94.230469 C 327.40625 93.140625 329.738281 93.761719 330.824219 95.625 Z M 326.164062 102.148438 C 326.628906 103.082031 326.320312 104.167969 325.542969 104.632812 L 254.257812 145.792969 C 253.324219 146.257812 252.238281 145.945312 251.773438 145.167969 C 251.304688 144.238281 251.617188 143.152344 252.394531 142.683594 L 323.679688 101.527344 C 324.609375 101.0625 325.699219 101.371094 326.164062 102.148438 Z M 326.164062 102.148438 " fill-opacity="1" fill-rule="evenodd"/></g><g mask="url(#45fe75aa2d)"><g transform="matrix(1, 0, 0, 1, 323, 297)"><g clip-path="url(#0b9651aa79)"><g clip-path="url(#da8d29891c)"><path fill="#ffffff" d="M 9.617188 20.703125 C 9.585938 20.507812 9.570312 20.316406 9.570312 20.125 C 9.570312 20.117188 9.570312 20.105469 9.570312 20.097656 C 9.582031 19.707031 9.582031 19.359375 9.578125 19.054688 C 9.570312 18.398438 9.554688 17.664062 9.53125 16.851562 L 9.53125 16.863281 C 9.460938 14.5625 9.375 11.96875 9.273438 9.082031 L 9.273438 9.074219 C 9.25 8.328125 9.230469 7.632812 9.21875 6.984375 C 9.171875 4.832031 9.167969 3.277344 9.207031 2.324219 C 9.253906 1.128906 10.261719 0.199219 11.457031 0.246094 C 12.652344 0.292969 13.582031 1.296875 13.535156 2.492188 C 13.5 3.359375 13.503906 4.828125 13.546875 6.894531 C 13.5625 7.527344 13.578125 8.207031 13.601562 8.9375 L 13.601562 8.929688 C 13.703125 11.824219 13.789062 14.421875 13.863281 16.726562 C 13.863281 16.730469 13.863281 16.734375 13.863281 16.738281 C 13.882812 17.570312 13.898438 18.320312 13.910156 18.996094 C 13.914062 19.351562 13.910156 19.75 13.902344 20.195312 L 13.902344 20.167969 C 13.902344 20.109375 13.898438 20.058594 13.890625 20.007812 C 14.082031 21.191406 13.28125 22.300781 12.101562 22.492188 C 10.917969 22.683594 9.808594 21.882812 9.617188 20.703125 Z M 9.617188 20.703125 " fill-opacity="1" fill-rule="nonzero"/></g><g clip-path="url(#af9f24b245)"><path fill="#ffffff" d="M 2.089844 9.03125 C 2.285156 9 2.476562 8.984375 2.667969 8.988281 C 2.675781 8.988281 2.683594 8.988281 2.695312 8.988281 C 3.085938 8.996094 3.433594 9 3.738281 8.996094 C 4.390625 8.984375 5.125 8.96875 5.941406 8.949219 L 5.929688 8.949219 C 8.230469 8.875 10.824219 8.789062 13.710938 8.691406 L 13.71875 8.691406 C 14.460938 8.664062 15.15625 8.648438 15.804688 8.632812 C 17.960938 8.589844 19.515625 8.585938 20.46875 8.621094 C 21.664062 8.671875 22.59375 9.675781 22.546875 10.871094 C 22.5 12.066406 21.492188 12.996094 20.296875 12.949219 C 19.429688 12.917969 17.964844 12.921875 15.894531 12.964844 L 15.898438 12.964844 C 15.265625 12.976562 14.582031 12.996094 13.855469 13.019531 L 13.863281 13.019531 C 10.96875 13.117188 8.371094 13.203125 6.066406 13.277344 C 6.0625 13.277344 6.058594 13.277344 6.054688 13.277344 C 5.222656 13.300781 4.472656 13.316406 3.796875 13.324219 C 3.441406 13.332031 3.042969 13.328125 2.597656 13.316406 L 2.625 13.316406 C 2.679688 13.320312 2.734375 13.316406 2.78125 13.308594 C 1.601562 13.5 0.488281 12.695312 0.296875 11.515625 C 0.105469 10.335938 0.910156 9.222656 2.089844 9.03125 Z M 2.089844 9.03125 " fill-opacity="1" fill-rule="nonzero"/></g></g></g></g><g mask="url(#38d120caf6)"><g transform="matrix(1, 0, 0, 1, 40, 10)"><g clip-path="url(#30c6c08943)"><g clip-path="url(#ee7b943225)"><path fill="#ffffff" d="M 10.828125 0.417969 C 5.351562 0.417969 0.917969 4.851562 0.917969 10.324219 C 0.917969 15.800781 5.351562 20.234375 10.828125 20.234375 C 16.300781 20.234375 20.734375 15.800781 20.734375 10.324219 C 20.734375 4.851562 16.300781 0.417969 10.828125 0.417969 Z M 10.828125 18.25 C 6.445312 18.25 2.898438 14.703125 2.898438 10.324219 C 2.898438 5.945312 6.445312 2.398438 10.828125 2.398438 C 15.207031 2.398438 18.753906 5.945312 18.753906 10.324219 C 18.753906 14.703125 15.207031 18.25 10.828125 18.25 Z M 10.828125 18.25 " fill-opacity="1" fill-rule="nonzero"/></g></g></g></g><g mask="url(#fe0baa66ab)"><g transform="matrix(1, 0, 0, 1, 0, 335)"><g clip-path="url(#007ef20623)"><g clip-path="url(#3450c1a7cb)"><path fill="#ffffff" d="M -32.105469 51.019531 C -16.308594 46.273438 -12.878906 37.226562 -9.019531 20.71875 C -8.960938 20.460938 -8.824219 20.25 -8.617188 20.082031 C -8.410156 19.917969 -8.171875 19.835938 -7.90625 19.835938 C -7.640625 19.835938 -7.40625 19.917969 -7.195312 20.082031 C -6.988281 20.25 -6.855469 20.460938 -6.792969 20.71875 C -2.9375 37.226562 0.492188 46.273438 16.289062 51.019531 C 16.53125 51.09375 16.726562 51.230469 16.878906 51.433594 C 17.027344 51.636719 17.105469 51.863281 17.105469 52.117188 C 17.105469 52.367188 17.027344 52.59375 16.878906 52.796875 C 16.726562 53 16.53125 53.136719 16.289062 53.210938 C 0.492188 57.957031 -2.941406 67.007812 -6.800781 83.511719 C -6.859375 83.773438 -6.992188 83.984375 -7.203125 84.148438 C -7.410156 84.3125 -7.648438 84.398438 -7.914062 84.398438 C -8.179688 84.398438 -8.414062 84.3125 -8.625 84.148438 C -8.832031 83.984375 -8.964844 83.773438 -9.027344 83.511719 C -12.882812 67.007812 -16.3125 57.957031 -32.109375 53.210938 C -32.351562 53.140625 -32.546875 53 -32.699219 52.796875 C -32.847656 52.59375 -32.925781 52.367188 -32.925781 52.113281 C -32.921875 51.863281 -32.847656 51.632812 -32.695312 51.429688 C -32.542969 51.230469 -32.347656 51.09375 -32.105469 51.019531 Z M 14.414062 17.628906 C 21.074219 20.074219 23.117188 24.308594 24.910156 31.410156 C 24.976562 31.664062 25.113281 31.871094 25.316406 32.03125 C 25.523438 32.191406 25.757812 32.269531 26.019531 32.269531 C 26.277344 32.269531 26.511719 32.191406 26.71875 32.03125 C 26.925781 31.871094 27.058594 31.664062 27.125 31.410156 C 28.921875 24.308594 30.960938 20.078125 37.625 17.628906 C 37.847656 17.546875 38.03125 17.410156 38.167969 17.210938 C 38.304688 17.015625 38.375 16.796875 38.375 16.558594 C 38.375 16.316406 38.304688 16.097656 38.167969 15.902344 C 38.03125 15.703125 37.847656 15.566406 37.625 15.484375 C 30.960938 13.039062 28.921875 8.804688 27.125 1.703125 C 27.058594 1.449219 26.925781 1.242188 26.71875 1.082031 C 26.511719 0.921875 26.277344 0.84375 26.019531 0.84375 C 25.757812 0.84375 25.523438 0.921875 25.316406 1.082031 C 25.113281 1.242188 24.976562 1.449219 24.910156 1.703125 C 23.113281 8.804688 21.074219 13.039062 14.414062 15.484375 C 14.1875 15.566406 14.007812 15.703125 13.867188 15.902344 C 13.730469 16.097656 13.664062 16.316406 13.664062 16.558594 C 13.664062 16.796875 13.730469 17.015625 13.867188 17.210938 C 14.007812 17.410156 14.1875 17.546875 14.414062 17.628906 Z M 15.949219 79.085938 C 19.878906 80.75 21.375 83.433594 22.550781 87.660156 C 22.617188 87.910156 22.753906 88.109375 22.960938 88.265625 C 23.164062 88.421875 23.394531 88.5 23.652344 88.5 C 23.910156 88.5 24.140625 88.421875 24.34375 88.265625 C 24.546875 88.109375 24.683594 87.910156 24.753906 87.660156 C 25.929688 83.433594 27.421875 80.75 31.355469 79.085938 C 31.566406 78.996094 31.734375 78.855469 31.863281 78.664062 C 31.988281 78.472656 32.050781 78.265625 32.050781 78.035156 C 32.050781 77.804688 31.988281 77.59375 31.863281 77.402344 C 31.734375 77.210938 31.566406 77.074219 31.355469 76.984375 C 27.425781 75.320312 25.929688 72.636719 24.753906 68.40625 C 24.683594 68.160156 24.546875 67.957031 24.34375 67.804688 C 24.140625 67.648438 23.910156 67.570312 23.652344 67.570312 C 23.394531 67.570312 23.164062 67.648438 22.960938 67.804688 C 22.753906 67.957031 22.617188 68.160156 22.550781 68.40625 C 21.375 72.636719 19.878906 75.320312 15.949219 76.984375 C 15.738281 77.070312 15.566406 77.210938 15.441406 77.402344 C 15.3125 77.59375 15.25 77.804688 15.25 78.035156 C 15.25 78.261719 15.3125 78.472656 15.4375 78.664062 C 15.566406 78.855469 15.734375 78.996094 15.945312 79.085938 Z M 15.949219 79.085938 " fill-opacity="1" fill-rule="nonzero"/></g></g></g></g></svg>