<svg xmlns="http://www.w3.org/2000/svg" xmlns:xlink="http://www.w3.org/1999/xlink" width="512" zoomAndPan="magnify" viewBox="0 0 384 383.999986" height="512" preserveAspectRatio="xMidYMid meet" version="1.0"><defs><filter x="0%" y="0%" width="100%" height="100%" id="9f4361a0c4"><feColorMatrix values="0 0 0 0 1 0 0 0 0 1 0 0 0 0 1 0 0 0 1 0" color-interpolation-filters="sRGB"/></filter><clipPath id="c498261c31"><path d="M 24 39.648438 L 351.960938 39.648438 L 351.960938 375.648438 L 24 375.648438 Z M 24 39.648438 " clip-rule="nonzero"/></clipPath><mask id="80d2c3733d"><g filter="url(#9f4361a0c4)"><rect x="-38.4" width="460.8" fill="#000000" y="-38.399999" height="460.799983" fill-opacity="0.5"/></g></mask><clipPath id="9369997669"><path d="M 16.660156 0.425781 L 52.925781 0.425781 L 52.925781 46.734375 L 16.660156 46.734375 Z M 16.660156 0.425781 " clip-rule="nonzero"/></clipPath><clipPath id="f71d67b028"><rect x="0" width="54" y="0" height="115"/></clipPath><mask id="d5483af2a1"><g filter="url(#9f4361a0c4)"><rect x="-38.4" width="460.8" fill="#000000" y="-38.399999" height="460.799983" fill-opacity="0.5"/></g></mask><clipPath id="b5b17d4d57"><path d="M 36.859375 0.410156 L 60.183594 0.410156 L 60.183594 30.652344 L 36.859375 30.652344 Z M 36.859375 0.410156 " clip-rule="nonzero"/></clipPath><clipPath id="f237d6e843"><rect x="0" width="61" y="0" height="74"/></clipPath><mask id="47753a993f"><g filter="url(#9f4361a0c4)"><rect x="-38.4" width="460.8" fill="#000000" y="-38.399999" height="460.799983" fill-opacity="0.5"/></g></mask><clipPath id="726c3a2446"><path d="M 13 0.800781 L 20 0.800781 L 20 31.160156 L 13 31.160156 Z M 13 0.800781 " clip-rule="nonzero"/></clipPath><clipPath id="ac9adc2c17"><path d="M 0.761719 12 L 31.199219 12 L 31.199219 19 L 0.761719 19 Z M 0.761719 12 " clip-rule="nonzero"/></clipPath><clipPath id="14ed63baac"><rect x="0" width="32" y="0" height="32"/></clipPath><mask id="de6b73961b"><g filter="url(#9f4361a0c4)"><rect x="-38.4" width="460.8" fill="#000000" y="-38.399999" height="460.799983" fill-opacity="0.5"/></g></mask><clipPath id="e9720a20f2"><path d="M 47.339844 0.90625 L 77.339844 0.90625 L 77.339844 39.15625 L 47.339844 39.15625 Z M 47.339844 0.90625 " clip-rule="nonzero"/></clipPath><clipPath id="4468f179e0"><rect x="0" width="78" y="0" height="96"/></clipPath><mask id="1c4245f060"><g filter="url(#9f4361a0c4)"><rect x="-38.4" width="460.8" fill="#000000" y="-38.399999" height="460.799983" fill-opacity="0.5"/></g></mask><clipPath id="48c68d0a1f"><path d="M 0.878906 1.039062 L 21.878906 1.039062 L 21.878906 22.039062 L 0.878906 22.039062 Z M 0.878906 1.039062 " clip-rule="nonzero"/></clipPath><clipPath id="9a518d7952"><rect x="0" width="23" y="0" height="23"/></clipPath></defs><g clip-path="url(#c498261c31)"><path fill="#ffffff" d="M 350.785156 274.835938 L 321.894531 213.011719 L 321.894531 112.53125 C 321.894531 111.746094 321.742188 110.988281 321.441406 110.257812 C 321.140625 109.53125 320.710938 108.886719 320.15625 108.328125 L 267.726562 55.886719 C 267.167969 55.328125 266.523438 54.898438 265.796875 54.597656 C 265.066406 54.292969 264.308594 54.144531 263.523438 54.140625 L 230.964844 54.140625 L 222.902344 49.273438 C 222.226562 48.867188 221.5 48.605469 220.71875 48.484375 C 219.941406 48.367188 219.167969 48.402344 218.402344 48.589844 L 210.777344 50.464844 L 181.964844 40.007812 C 181.226562 39.742188 180.460938 39.625 179.671875 39.660156 C 178.886719 39.695312 178.136719 39.878906 177.421875 40.210938 L 147.570312 54.15625 L 96.136719 54.15625 C 95.746094 54.15625 95.359375 54.195312 94.976562 54.269531 C 94.59375 54.347656 94.222656 54.460938 93.859375 54.609375 C 93.5 54.757812 93.15625 54.941406 92.832031 55.160156 C 92.507812 55.375 92.207031 55.621094 91.933594 55.898438 C 91.65625 56.175781 91.410156 56.476562 91.191406 56.800781 C 90.976562 57.125 90.792969 57.46875 90.644531 57.828125 C 90.492188 58.1875 90.378906 58.558594 90.304688 58.941406 C 90.226562 59.324219 90.191406 59.710938 90.191406 60.101562 L 90.191406 80.128906 L 57.890625 88.082031 C 57.511719 88.171875 57.144531 88.304688 56.789062 88.46875 C 56.4375 88.632812 56.101562 88.832031 55.789062 89.0625 C 55.472656 89.292969 55.183594 89.554688 54.921875 89.839844 C 54.660156 90.128906 54.425781 90.441406 54.222656 90.773438 C 54.019531 91.109375 53.855469 91.457031 53.722656 91.824219 C 53.589844 92.191406 53.492188 92.570312 53.433594 92.953125 C 53.375 93.339844 53.355469 93.726562 53.371094 94.117188 C 53.390625 94.507812 53.445312 94.894531 53.539062 95.273438 L 54.164062 97.796875 L 27.652344 110.195312 C 27.300781 110.359375 26.964844 110.558594 26.652344 110.789062 C 26.335938 111.019531 26.046875 111.28125 25.78125 111.566406 C 25.519531 111.855469 25.285156 112.167969 25.085938 112.5 C 24.882812 112.835938 24.714844 113.1875 24.582031 113.554688 C 24.449219 113.921875 24.351562 114.296875 24.292969 114.683594 C 24.234375 115.070312 24.210938 115.457031 24.230469 115.847656 C 24.246094 116.238281 24.304688 116.621094 24.398438 117 C 24.488281 117.378906 24.621094 117.746094 24.785156 118.101562 L 90.195312 258.074219 L 90.195312 343.613281 C 90.195312 344.003906 90.230469 344.390625 90.308594 344.773438 C 90.382812 345.15625 90.496094 345.527344 90.644531 345.886719 C 90.796875 346.246094 90.976562 346.589844 91.195312 346.914062 C 91.410156 347.238281 91.660156 347.539062 91.933594 347.816406 C 92.210938 348.089844 92.511719 348.335938 92.835938 348.554688 C 93.160156 348.769531 93.5 348.953125 93.863281 349.101562 C 94.222656 349.253906 94.59375 349.363281 94.976562 349.441406 C 95.359375 349.515625 95.746094 349.554688 96.136719 349.554688 L 116.070312 349.554688 L 120.402344 367.175781 C 120.492188 367.558594 120.625 367.921875 120.789062 368.277344 C 120.953125 368.628906 121.152344 368.964844 121.382812 369.277344 C 121.613281 369.59375 121.875 369.882812 122.160156 370.144531 C 122.449219 370.410156 122.761719 370.640625 123.09375 370.84375 C 123.429688 371.046875 123.777344 371.214844 124.144531 371.347656 C 124.511719 371.480469 124.890625 371.574219 125.273438 371.632812 C 125.660156 371.691406 126.050781 371.714844 126.4375 371.695312 C 126.828125 371.679688 127.214844 371.621094 127.59375 371.527344 L 141.597656 368.085938 L 143.324219 371.777344 C 143.488281 372.132812 143.683594 372.46875 143.914062 372.78125 C 144.144531 373.097656 144.40625 373.386719 144.691406 373.652344 C 144.980469 373.917969 145.289062 374.152344 145.625 374.355469 C 145.957031 374.558594 146.308594 374.726562 146.675781 374.859375 C 147.042969 374.996094 147.417969 375.089844 147.804688 375.152344 C 148.191406 375.210938 148.578125 375.230469 148.96875 375.214844 C 149.359375 375.199219 149.746094 375.144531 150.125 375.050781 C 150.503906 374.957031 150.871094 374.828125 151.226562 374.664062 L 191.574219 355.808594 L 216.914062 349.574219 L 315.953125 349.574219 C 316.339844 349.574219 316.726562 349.535156 317.109375 349.460938 C 317.492188 349.382812 317.863281 349.269531 318.226562 349.121094 C 318.585938 348.972656 318.929688 348.789062 319.253906 348.570312 C 319.578125 348.355469 319.878906 348.109375 320.152344 347.832031 C 320.429688 347.558594 320.675781 347.257812 320.890625 346.933594 C 321.109375 346.609375 321.292969 346.265625 321.441406 345.90625 C 321.589844 345.542969 321.703125 345.171875 321.78125 344.789062 C 321.855469 344.40625 321.894531 344.019531 321.894531 343.632812 L 321.894531 323.734375 L 338.414062 319.667969 C 338.792969 319.578125 339.160156 319.445312 339.515625 319.28125 C 339.867188 319.117188 340.203125 318.917969 340.515625 318.6875 C 340.832031 318.457031 341.121094 318.195312 341.382812 317.910156 C 341.648438 317.621094 341.878906 317.308594 342.082031 316.976562 C 342.285156 316.640625 342.453125 316.292969 342.585938 315.925781 C 342.71875 315.558594 342.8125 315.179688 342.871094 314.796875 C 342.929688 314.410156 342.953125 314.019531 342.933594 313.632812 C 342.917969 313.242188 342.859375 312.855469 342.765625 312.476562 L 336.734375 287.941406 L 347.917969 282.71875 C 348.273438 282.554688 348.609375 282.355469 348.925781 282.125 C 349.238281 281.894531 349.53125 281.636719 349.792969 281.347656 C 350.058594 281.0625 350.292969 280.75 350.496094 280.417969 C 350.699219 280.082031 350.867188 279.734375 351 279.367188 C 351.132812 279 351.230469 278.621094 351.292969 278.234375 C 351.351562 277.851562 351.371094 277.460938 351.355469 277.070312 C 351.339844 276.679688 351.285156 276.296875 351.191406 275.917969 C 351.101562 275.539062 350.972656 275.171875 350.804688 274.816406 Z M 269.464844 74.453125 L 301.597656 106.585938 L 269.464844 106.585938 Z M 180.222656 52.019531 L 186.105469 54.15625 L 175.640625 54.15625 Z M 90.195312 92.371094 L 90.195312 194.585938 L 66.484375 98.207031 Z M 57.042969 109.585938 L 82.730469 214.015625 L 38.070312 118.449219 Z M 128.316406 349.554688 L 167.152344 349.554688 L 130.53125 358.574219 Z M 102.085938 337.648438 L 102.085938 66.046875 L 257.574219 66.046875 L 257.574219 112.53125 C 257.574219 112.921875 257.613281 113.308594 257.691406 113.691406 C 257.765625 114.074219 257.878906 114.449219 258.027344 114.808594 C 258.175781 115.167969 258.359375 115.511719 258.578125 115.835938 C 258.792969 116.160156 259.042969 116.460938 259.316406 116.738281 C 259.59375 117.011719 259.894531 117.257812 260.21875 117.476562 C 260.542969 117.691406 260.886719 117.875 261.246094 118.023438 C 261.605469 118.171875 261.980469 118.285156 262.363281 118.363281 C 262.746094 118.4375 263.132812 118.476562 263.523438 118.476562 L 310.003906 118.476562 L 310.003906 337.679688 Z M 321.894531 311.472656 L 321.894531 277.425781 L 329.804688 309.539062 Z M 333.839844 276.167969 L 328.890625 256.066406 L 337.496094 274.464844 Z M 119.878906 117.101562 C 119.878906 116.710938 119.914062 116.324219 119.992188 115.941406 C 120.066406 115.558594 120.179688 115.1875 120.332031 114.824219 C 120.480469 114.464844 120.664062 114.121094 120.878906 113.796875 C 121.097656 113.472656 121.34375 113.171875 121.621094 112.898438 C 121.894531 112.621094 122.195312 112.375 122.519531 112.160156 C 122.84375 111.941406 123.1875 111.757812 123.550781 111.609375 C 123.910156 111.460938 124.28125 111.347656 124.664062 111.273438 C 125.046875 111.195312 125.433594 111.15625 125.824219 111.160156 L 176.3125 111.160156 C 176.695312 111.167969 177.078125 111.214844 177.453125 111.296875 C 177.828125 111.378906 178.191406 111.5 178.542969 111.652344 C 178.894531 111.804688 179.230469 111.992188 179.546875 112.210938 C 179.863281 112.429688 180.152344 112.675781 180.421875 112.949219 C 180.691406 113.226562 180.929688 113.523438 181.140625 113.84375 C 181.351562 114.167969 181.527344 114.503906 181.675781 114.859375 C 181.820312 115.21875 181.929688 115.582031 182 115.960938 C 182.074219 116.335938 182.113281 116.71875 182.113281 117.101562 C 182.113281 117.488281 182.074219 117.867188 182 118.246094 C 181.929688 118.621094 181.820312 118.988281 181.675781 119.34375 C 181.527344 119.699219 181.351562 120.039062 181.140625 120.359375 C 180.929688 120.683594 180.691406 120.980469 180.421875 121.253906 C 180.152344 121.53125 179.863281 121.777344 179.546875 121.996094 C 179.230469 122.214844 178.894531 122.398438 178.542969 122.554688 C 178.191406 122.707031 177.828125 122.824219 177.453125 122.910156 C 177.078125 122.992188 176.695312 123.039062 176.3125 123.046875 L 125.828125 123.046875 C 125.4375 123.046875 125.050781 123.007812 124.667969 122.933594 C 124.289062 122.859375 123.917969 122.746094 123.554688 122.597656 C 123.195312 122.449219 122.855469 122.265625 122.53125 122.050781 C 122.207031 121.832031 121.90625 121.585938 121.628906 121.3125 C 121.351562 121.035156 121.105469 120.738281 120.890625 120.414062 C 120.671875 120.089844 120.488281 119.75 120.339844 119.390625 C 120.1875 119.03125 120.074219 118.660156 120 118.277344 C 119.921875 117.894531 119.882812 117.507812 119.882812 117.117188 Z M 119.878906 141.617188 C 119.878906 141.226562 119.914062 140.839844 119.992188 140.457031 C 120.066406 140.074219 120.179688 139.703125 120.332031 139.34375 C 120.480469 138.984375 120.664062 138.640625 120.878906 138.316406 C 121.097656 137.992188 121.34375 137.691406 121.621094 137.414062 C 121.894531 137.140625 122.195312 136.894531 122.519531 136.675781 C 122.84375 136.460938 123.1875 136.277344 123.550781 136.128906 C 123.910156 135.976562 124.28125 135.867188 124.664062 135.789062 C 125.046875 135.714844 125.433594 135.675781 125.824219 135.675781 L 217.007812 135.675781 C 217.398438 135.675781 217.785156 135.714844 218.171875 135.789062 C 218.554688 135.867188 218.925781 135.980469 219.289062 136.128906 C 219.648438 136.277344 219.992188 136.460938 220.316406 136.679688 C 220.640625 136.894531 220.941406 137.144531 221.21875 137.417969 C 221.496094 137.695312 221.742188 137.996094 221.960938 138.320312 C 222.175781 138.648438 222.359375 138.988281 222.507812 139.351562 C 222.660156 139.710938 222.773438 140.085938 222.847656 140.46875 C 222.925781 140.851562 222.960938 141.238281 222.960938 141.628906 C 222.960938 142.019531 222.925781 142.40625 222.847656 142.789062 C 222.773438 143.175781 222.660156 143.546875 222.507812 143.90625 C 222.359375 144.269531 222.175781 144.613281 221.960938 144.9375 C 221.742188 145.261719 221.496094 145.5625 221.21875 145.839844 C 220.941406 146.117188 220.640625 146.363281 220.316406 146.578125 C 219.992188 146.796875 219.648438 146.980469 219.289062 147.128906 C 218.925781 147.277344 218.554688 147.390625 218.171875 147.46875 C 217.785156 147.542969 217.398438 147.582031 217.007812 147.582031 L 125.828125 147.582031 C 125.4375 147.582031 125.050781 147.542969 124.667969 147.46875 C 124.285156 147.390625 123.914062 147.28125 123.550781 147.128906 C 123.191406 146.980469 122.847656 146.796875 122.523438 146.582031 C 122.199219 146.363281 121.898438 146.117188 121.625 145.839844 C 121.347656 145.566406 121.101562 145.265625 120.882812 144.941406 C 120.667969 144.617188 120.484375 144.273438 120.335938 143.910156 C 120.183594 143.550781 120.070312 143.179688 119.996094 142.796875 C 119.917969 142.414062 119.882812 142.027344 119.882812 141.636719 Z M 292.207031 174.550781 C 292.207031 174.941406 292.167969 175.328125 292.09375 175.710938 C 292.015625 176.09375 291.902344 176.464844 291.753906 176.824219 C 291.605469 177.1875 291.421875 177.527344 291.203125 177.851562 C 290.988281 178.179688 290.742188 178.476562 290.464844 178.753906 C 290.1875 179.03125 289.886719 179.277344 289.5625 179.492188 C 289.238281 179.710938 288.894531 179.894531 288.535156 180.042969 C 288.175781 180.191406 287.804688 180.304688 287.421875 180.382812 C 287.039062 180.457031 286.652344 180.496094 286.261719 180.496094 L 125.828125 180.496094 C 125.4375 180.496094 125.050781 180.457031 124.667969 180.382812 C 124.28125 180.304688 123.910156 180.191406 123.550781 180.042969 C 123.1875 179.894531 122.84375 179.710938 122.519531 179.492188 C 122.195312 179.277344 121.894531 179.027344 121.617188 178.753906 C 121.339844 178.476562 121.09375 178.175781 120.878906 177.851562 C 120.660156 177.523438 120.476562 177.183594 120.328125 176.820312 C 120.179688 176.460938 120.066406 176.085938 119.988281 175.703125 C 119.914062 175.320312 119.875 174.933594 119.875 174.542969 C 119.875 174.152344 119.914062 173.765625 119.988281 173.382812 C 120.066406 172.996094 120.179688 172.625 120.328125 172.265625 C 120.476562 171.902344 120.660156 171.558594 120.878906 171.234375 C 121.09375 170.910156 121.339844 170.609375 121.617188 170.332031 C 121.894531 170.054688 122.195312 169.808594 122.519531 169.59375 C 122.84375 169.375 123.1875 169.191406 123.550781 169.042969 C 123.910156 168.894531 124.28125 168.78125 124.667969 168.703125 C 125.050781 168.628906 125.4375 168.589844 125.828125 168.589844 L 286.265625 168.589844 C 286.65625 168.589844 287.042969 168.628906 287.429688 168.703125 C 287.8125 168.78125 288.183594 168.894531 288.546875 169.042969 C 288.910156 169.195312 289.253906 169.378906 289.578125 169.597656 C 289.902344 169.816406 290.203125 170.0625 290.480469 170.34375 C 290.757812 170.621094 291.003906 170.921875 291.21875 171.25 C 291.4375 171.574219 291.617188 171.917969 291.765625 172.28125 C 291.914062 172.644531 292.027344 173.019531 292.101562 173.402344 C 292.175781 173.789062 292.210938 174.175781 292.210938 174.566406 Z M 292.207031 201.808594 C 292.207031 202.199219 292.171875 202.589844 292.097656 202.972656 C 292.023438 203.359375 291.914062 203.730469 291.765625 204.09375 C 291.617188 204.457031 291.433594 204.800781 291.21875 205.128906 C 291 205.453125 290.753906 205.757812 290.480469 206.035156 C 290.203125 206.3125 289.902344 206.5625 289.578125 206.777344 C 289.25 206.996094 288.90625 207.183594 288.546875 207.332031 C 288.183594 207.484375 287.8125 207.597656 287.425781 207.671875 C 287.042969 207.75 286.65625 207.789062 286.265625 207.789062 L 125.828125 207.789062 C 125.4375 207.789062 125.050781 207.75 124.667969 207.671875 C 124.28125 207.597656 123.910156 207.484375 123.550781 207.335938 C 123.1875 207.183594 122.84375 207 122.519531 206.785156 C 122.195312 206.566406 121.894531 206.320312 121.617188 206.042969 C 121.339844 205.769531 121.09375 205.46875 120.878906 205.140625 C 120.660156 204.816406 120.476562 204.472656 120.328125 204.113281 C 120.179688 203.75 120.066406 203.378906 119.988281 202.996094 C 119.914062 202.613281 119.875 202.226562 119.875 201.835938 C 119.875 201.445312 119.914062 201.054688 119.988281 200.671875 C 120.066406 200.289062 120.179688 199.917969 120.328125 199.554688 C 120.476562 199.195312 120.660156 198.851562 120.878906 198.527344 C 121.09375 198.203125 121.339844 197.902344 121.617188 197.625 C 121.894531 197.347656 122.195312 197.101562 122.519531 196.882812 C 122.84375 196.667969 123.1875 196.484375 123.550781 196.335938 C 123.910156 196.183594 124.28125 196.070312 124.667969 195.996094 C 125.050781 195.917969 125.4375 195.882812 125.828125 195.882812 L 286.265625 195.882812 C 286.652344 195.882812 287.039062 195.917969 287.421875 195.996094 C 287.808594 196.070312 288.179688 196.183594 288.539062 196.332031 C 288.898438 196.484375 289.242188 196.667969 289.566406 196.882812 C 289.890625 197.101562 290.191406 197.347656 290.46875 197.621094 C 290.746094 197.898438 290.992188 198.199219 291.207031 198.523438 C 291.425781 198.847656 291.609375 199.191406 291.757812 199.550781 C 291.90625 199.914062 292.019531 200.285156 292.097656 200.667969 C 292.171875 201.050781 292.210938 201.4375 292.210938 201.828125 Z M 292.207031 229.070312 C 292.207031 229.460938 292.167969 229.847656 292.09375 230.230469 C 292.015625 230.613281 291.902344 230.984375 291.753906 231.34375 C 291.605469 231.703125 291.421875 232.046875 291.203125 232.371094 C 290.988281 232.695312 290.742188 232.996094 290.464844 233.273438 C 290.1875 233.546875 289.886719 233.792969 289.5625 234.011719 C 289.238281 234.226562 288.894531 234.410156 288.535156 234.558594 C 288.175781 234.710938 287.804688 234.820312 287.421875 234.898438 C 287.035156 234.972656 286.652344 235.011719 286.261719 235.011719 L 125.828125 235.011719 C 125.4375 235.011719 125.050781 234.972656 124.664062 234.898438 C 124.28125 234.824219 123.910156 234.710938 123.546875 234.5625 C 123.183594 234.410156 122.839844 234.226562 122.515625 234.011719 C 122.191406 233.792969 121.890625 233.546875 121.613281 233.269531 C 121.335938 232.996094 121.089844 232.691406 120.871094 232.367188 C 120.652344 232.042969 120.46875 231.699219 120.320312 231.339844 C 120.171875 230.976562 120.058594 230.605469 119.980469 230.21875 C 119.902344 229.835938 119.867188 229.449219 119.867188 229.058594 C 119.867188 228.667969 119.902344 228.277344 119.980469 227.894531 C 120.058594 227.511719 120.171875 227.140625 120.320312 226.777344 C 120.46875 226.417969 120.652344 226.074219 120.871094 225.746094 C 121.089844 225.421875 121.335938 225.121094 121.613281 224.84375 C 121.890625 224.570312 122.191406 224.320312 122.515625 224.105469 C 122.839844 223.886719 123.183594 223.703125 123.546875 223.554688 C 123.910156 223.40625 124.28125 223.292969 124.664062 223.21875 C 125.050781 223.140625 125.4375 223.105469 125.828125 223.105469 L 286.265625 223.105469 C 286.65625 223.105469 287.042969 223.144531 287.425781 223.21875 C 287.8125 223.296875 288.183594 223.410156 288.546875 223.558594 C 288.90625 223.710938 289.25 223.894531 289.574219 224.113281 C 289.898438 224.328125 290.199219 224.578125 290.476562 224.855469 C 290.753906 225.132812 291 225.433594 291.214844 225.761719 C 291.433594 226.085938 291.617188 226.429688 291.765625 226.792969 C 291.914062 227.15625 292.023438 227.527344 292.101562 227.914062 C 292.175781 228.296875 292.210938 228.683594 292.210938 229.074219 Z M 292.207031 256.328125 C 292.207031 256.71875 292.167969 257.105469 292.09375 257.488281 C 292.015625 257.871094 291.902344 258.242188 291.753906 258.601562 C 291.605469 258.964844 291.421875 259.304688 291.203125 259.632812 C 290.988281 259.957031 290.742188 260.253906 290.464844 260.53125 C 290.1875 260.808594 289.886719 261.054688 289.5625 261.269531 C 289.238281 261.488281 288.894531 261.671875 288.535156 261.820312 C 288.175781 261.96875 287.804688 262.082031 287.421875 262.15625 C 287.035156 262.234375 286.652344 262.269531 286.261719 262.269531 L 125.828125 262.269531 C 125.4375 262.269531 125.050781 262.234375 124.667969 262.15625 C 124.28125 262.082031 123.910156 261.96875 123.550781 261.816406 C 123.1875 261.667969 122.84375 261.484375 122.519531 261.269531 C 122.195312 261.050781 121.894531 260.804688 121.617188 260.527344 C 121.339844 260.25 121.09375 259.949219 120.878906 259.625 C 120.660156 259.300781 120.476562 258.957031 120.328125 258.597656 C 120.179688 258.234375 120.066406 257.863281 119.988281 257.480469 C 119.914062 257.09375 119.875 256.707031 119.875 256.316406 C 119.875 255.925781 119.914062 255.539062 119.988281 255.15625 C 120.066406 254.773438 120.179688 254.402344 120.328125 254.039062 C 120.476562 253.679688 120.660156 253.335938 120.878906 253.011719 C 121.09375 252.683594 121.339844 252.382812 121.617188 252.109375 C 121.894531 251.832031 122.195312 251.585938 122.519531 251.367188 C 122.84375 251.148438 123.1875 250.96875 123.550781 250.816406 C 123.910156 250.667969 124.28125 250.554688 124.667969 250.476562 C 125.050781 250.402344 125.4375 250.363281 125.828125 250.363281 L 286.265625 250.363281 C 286.65625 250.363281 287.042969 250.402344 287.429688 250.480469 C 287.8125 250.554688 288.1875 250.667969 288.546875 250.820312 C 288.910156 250.96875 289.253906 251.15625 289.578125 251.375 C 289.902344 251.59375 290.203125 251.839844 290.480469 252.117188 C 290.757812 252.394531 291.003906 252.699219 291.21875 253.027344 C 291.4375 253.351562 291.621094 253.695312 291.769531 254.058594 C 291.917969 254.421875 292.027344 254.796875 292.101562 255.179688 C 292.175781 255.566406 292.210938 255.953125 292.210938 256.347656 Z M 292.207031 283.585938 C 292.207031 283.976562 292.167969 284.363281 292.09375 284.746094 C 292.015625 285.128906 291.902344 285.5 291.753906 285.859375 C 291.605469 286.21875 291.421875 286.5625 291.203125 286.886719 C 290.988281 287.210938 290.742188 287.511719 290.464844 287.789062 C 290.1875 288.066406 289.886719 288.3125 289.5625 288.527344 C 289.238281 288.746094 288.894531 288.929688 288.535156 289.078125 C 288.175781 289.226562 287.804688 289.339844 287.421875 289.417969 C 287.039062 289.492188 286.652344 289.53125 286.261719 289.53125 L 234.808594 289.53125 C 234.417969 289.53125 234.03125 289.492188 233.648438 289.417969 C 233.261719 289.339844 232.890625 289.226562 232.53125 289.078125 C 232.167969 288.925781 231.824219 288.746094 231.5 288.527344 C 231.175781 288.308594 230.875 288.0625 230.597656 287.785156 C 230.320312 287.511719 230.074219 287.210938 229.859375 286.882812 C 229.640625 286.558594 229.457031 286.214844 229.308594 285.855469 C 229.15625 285.492188 229.046875 285.121094 228.96875 284.738281 C 228.894531 284.355469 228.855469 283.96875 228.855469 283.578125 C 228.855469 283.1875 228.894531 282.800781 228.96875 282.414062 C 229.046875 282.03125 229.15625 281.660156 229.308594 281.296875 C 229.457031 280.9375 229.640625 280.59375 229.859375 280.269531 C 230.074219 279.945312 230.320312 279.644531 230.597656 279.367188 C 230.875 279.089844 231.175781 278.84375 231.5 278.625 C 231.824219 278.410156 232.167969 278.226562 232.53125 278.078125 C 232.890625 277.925781 233.261719 277.8125 233.648438 277.738281 C 234.03125 277.660156 234.417969 277.625 234.808594 277.625 L 286.265625 277.625 C 286.65625 277.625 287.042969 277.660156 287.429688 277.738281 C 287.8125 277.816406 288.183594 277.929688 288.546875 278.078125 C 288.910156 278.230469 289.253906 278.414062 289.578125 278.632812 C 289.902344 278.851562 290.203125 279.097656 290.480469 279.375 C 290.757812 279.652344 291.003906 279.957031 291.21875 280.28125 C 291.4375 280.609375 291.621094 280.953125 291.769531 281.316406 C 291.914062 281.679688 292.027344 282.050781 292.101562 282.4375 C 292.175781 282.820312 292.210938 283.210938 292.210938 283.601562 Z M 292.207031 283.585938 " fill-opacity="1" fill-rule="nonzero"/></g><g mask="url(#80d2c3733d)"><g transform="matrix(1, 0, 0, 1, 0, 8)"><g clip-path="url(#f71d67b028)"><g clip-path="url(#9369997669)"><path fill="#ffffff" d="M -38.613281 65.742188 C -18.050781 59.566406 -13.585938 47.785156 -8.566406 26.300781 C -8.488281 25.964844 -8.3125 25.6875 -8.039062 25.472656 C -7.769531 25.257812 -7.460938 25.148438 -7.117188 25.148438 C -6.769531 25.148438 -6.460938 25.257812 -6.191406 25.472656 C -5.917969 25.6875 -5.746094 25.964844 -5.667969 26.300781 C -0.644531 47.785156 3.820312 59.566406 24.382812 65.742188 C 24.695312 65.835938 24.949219 66.015625 25.148438 66.28125 C 25.34375 66.542969 25.441406 66.839844 25.441406 67.167969 C 25.441406 67.496094 25.34375 67.792969 25.148438 68.054688 C 24.949219 68.320312 24.695312 68.5 24.382812 68.59375 C 3.816406 74.773438 -0.652344 86.550781 -5.671875 108.039062 C -5.75 108.375 -5.925781 108.652344 -6.199219 108.867188 C -6.46875 109.082031 -6.777344 109.1875 -7.121094 109.1875 C -7.46875 109.1875 -7.777344 109.082031 -8.046875 108.867188 C -8.320312 108.652344 -8.492188 108.375 -8.570312 108.039062 C -13.59375 86.550781 -18.058594 74.773438 -38.621094 68.59375 C -38.933594 68.5 -39.191406 68.320312 -39.386719 68.058594 C -39.582031 67.792969 -39.679688 67.496094 -39.679688 67.167969 C -39.679688 66.835938 -39.582031 66.539062 -39.382812 66.277344 C -39.183594 66.015625 -38.929688 65.835938 -38.613281 65.742188 Z M 21.9375 22.277344 C 30.609375 25.460938 33.265625 30.972656 35.605469 40.21875 C 35.6875 40.546875 35.863281 40.816406 36.132812 41.023438 C 36.402344 41.230469 36.707031 41.335938 37.046875 41.335938 C 37.386719 41.335938 37.6875 41.230469 37.957031 41.023438 C 38.226562 40.816406 38.402344 40.546875 38.488281 40.21875 C 40.824219 30.972656 43.480469 25.460938 52.152344 22.277344 C 52.445312 22.171875 52.679688 21.988281 52.859375 21.734375 C 53.039062 21.476562 53.128906 21.195312 53.128906 20.882812 C 53.128906 20.570312 53.039062 20.285156 52.859375 20.027344 C 52.679688 19.773438 52.445312 19.589844 52.152344 19.484375 C 43.480469 16.300781 40.824219 10.789062 38.488281 1.542969 C 38.402344 1.214844 38.226562 0.945312 37.957031 0.738281 C 37.6875 0.53125 37.386719 0.425781 37.046875 0.425781 C 36.707031 0.425781 36.402344 0.53125 36.132812 0.738281 C 35.863281 0.945312 35.6875 1.214844 35.605469 1.542969 C 33.261719 10.789062 30.609375 16.300781 21.9375 19.484375 C 21.644531 19.589844 21.410156 19.773438 21.230469 20.027344 C 21.050781 20.285156 20.960938 20.570312 20.960938 20.882812 C 20.960938 21.195312 21.050781 21.476562 21.230469 21.734375 C 21.410156 21.988281 21.644531 22.171875 21.9375 22.277344 Z M 23.9375 102.277344 C 29.050781 104.441406 31 107.933594 32.53125 113.4375 C 32.621094 113.761719 32.796875 114.023438 33.0625 114.226562 C 33.328125 114.429688 33.628906 114.53125 33.964844 114.53125 C 34.300781 114.53125 34.597656 114.429688 34.867188 114.226562 C 35.132812 114.023438 35.308594 113.761719 35.398438 113.4375 C 36.929688 107.933594 38.875 104.441406 43.992188 102.277344 C 44.265625 102.160156 44.488281 101.976562 44.652344 101.726562 C 44.816406 101.480469 44.898438 101.203125 44.898438 100.90625 C 44.898438 100.609375 44.816406 100.335938 44.652344 100.085938 C 44.488281 99.835938 44.265625 99.652344 43.992188 99.539062 C 38.875 97.371094 36.929688 93.878906 35.398438 88.375 C 35.308594 88.054688 35.132812 87.789062 34.867188 87.589844 C 34.597656 87.386719 34.300781 87.285156 33.964844 87.285156 C 33.628906 87.285156 33.328125 87.386719 33.0625 87.589844 C 32.796875 87.789062 32.621094 88.054688 32.53125 88.375 C 31 93.878906 29.054688 97.371094 23.9375 99.539062 C 23.660156 99.652344 23.441406 99.835938 23.277344 100.085938 C 23.113281 100.332031 23.027344 100.605469 23.027344 100.90625 C 23.027344 101.203125 23.109375 101.476562 23.273438 101.726562 C 23.4375 101.976562 23.65625 102.160156 23.929688 102.277344 Z M 23.9375 102.277344 " fill-opacity="1" fill-rule="nonzero"/></g></g></g></g><g mask="url(#d5483af2a1)"><g transform="matrix(1, 0, 0, 1, 27, 48)"><g clip-path="url(#f237d6e843)"><g clip-path="url(#b5b17d4d57)"><path fill="#ffffff" d="M 1.339844 42.386719 C 14.554688 38.417969 17.421875 30.847656 20.648438 17.039062 C 20.699219 16.820312 20.8125 16.644531 20.988281 16.507812 C 21.160156 16.367188 21.359375 16.300781 21.582031 16.300781 C 21.804688 16.300781 22 16.367188 22.175781 16.507812 C 22.347656 16.644531 22.460938 16.820312 22.511719 17.039062 C 25.738281 30.847656 28.609375 38.417969 41.824219 42.386719 C 42.027344 42.449219 42.191406 42.5625 42.316406 42.734375 C 42.441406 42.902344 42.503906 43.09375 42.503906 43.304688 C 42.503906 43.515625 42.441406 43.707031 42.316406 43.875 C 42.191406 44.042969 42.027344 44.160156 41.824219 44.21875 C 28.609375 48.191406 25.734375 55.761719 22.507812 69.570312 C 22.457031 69.785156 22.34375 69.964844 22.171875 70.101562 C 21.996094 70.242188 21.796875 70.308594 21.578125 70.308594 C 21.355469 70.308594 21.15625 70.242188 20.980469 70.101562 C 20.808594 69.964844 20.695312 69.785156 20.644531 69.570312 C 17.417969 55.761719 14.546875 48.191406 1.335938 44.222656 C 1.132812 44.160156 0.96875 44.046875 0.839844 43.875 C 0.714844 43.707031 0.652344 43.515625 0.652344 43.304688 C 0.652344 43.089844 0.714844 42.902344 0.84375 42.730469 C 0.96875 42.5625 1.136719 42.449219 1.339844 42.386719 Z M 40.253906 14.453125 C 45.828125 16.5 47.535156 20.039062 49.035156 25.984375 C 49.089844 26.195312 49.203125 26.367188 49.375 26.5 C 49.546875 26.636719 49.742188 26.703125 49.960938 26.703125 C 50.179688 26.703125 50.375 26.636719 50.546875 26.5 C 50.722656 26.367188 50.835938 26.195312 50.886719 25.984375 C 52.390625 20.042969 54.097656 16.5 59.671875 14.453125 C 59.859375 14.386719 60.011719 14.269531 60.125 14.105469 C 60.242188 13.941406 60.300781 13.757812 60.300781 13.554688 C 60.300781 13.355469 60.242188 13.171875 60.125 13.007812 C 60.011719 12.84375 59.859375 12.726562 59.671875 12.65625 C 54.097656 10.613281 52.390625 7.070312 50.886719 1.128906 C 50.835938 0.917969 50.722656 0.746094 50.546875 0.609375 C 50.375 0.476562 50.179688 0.410156 49.960938 0.410156 C 49.742188 0.410156 49.546875 0.476562 49.375 0.609375 C 49.203125 0.746094 49.089844 0.917969 49.035156 1.128906 C 47.53125 7.070312 45.828125 10.613281 40.253906 12.65625 C 40.066406 12.726562 39.914062 12.84375 39.796875 13.007812 C 39.683594 13.171875 39.625 13.355469 39.625 13.554688 C 39.625 13.757812 39.683594 13.941406 39.796875 14.105469 C 39.914062 14.269531 40.066406 14.386719 40.253906 14.453125 Z M 41.539062 65.867188 C 44.824219 67.257812 46.078125 69.503906 47.0625 73.039062 C 47.117188 73.246094 47.230469 73.417969 47.402344 73.546875 C 47.574219 73.675781 47.765625 73.742188 47.984375 73.742188 C 48.199219 73.742188 48.390625 73.675781 48.5625 73.546875 C 48.734375 73.417969 48.847656 73.246094 48.902344 73.039062 C 49.886719 69.503906 51.136719 67.257812 54.425781 65.867188 C 54.605469 65.792969 54.746094 65.675781 54.851562 65.515625 C 54.957031 65.355469 55.007812 65.179688 55.007812 64.988281 C 55.007812 64.796875 54.957031 64.621094 54.851562 64.460938 C 54.746094 64.300781 54.605469 64.183594 54.425781 64.105469 C 51.140625 62.714844 49.886719 60.46875 48.902344 56.933594 C 48.847656 56.726562 48.734375 56.558594 48.5625 56.425781 C 48.390625 56.296875 48.199219 56.230469 47.984375 56.230469 C 47.765625 56.230469 47.574219 56.296875 47.402344 56.425781 C 47.230469 56.558594 47.117188 56.726562 47.0625 56.933594 C 46.078125 60.46875 44.828125 62.714844 41.539062 64.105469 C 41.359375 64.183594 41.21875 64.300781 41.113281 64.457031 C 41.007812 64.617188 40.953125 64.792969 40.953125 64.984375 C 40.953125 65.179688 41.007812 65.355469 41.113281 65.515625 C 41.21875 65.675781 41.359375 65.792969 41.535156 65.867188 Z M 41.539062 65.867188 " fill-opacity="1" fill-rule="nonzero"/></g></g></g></g><g mask="url(#47753a993f)"><g transform="matrix(1, 0, 0, 1, 36, 307)"><g clip-path="url(#14ed63baac)"><g clip-path="url(#726c3a2446)"><path fill="#ffffff" d="M 13.636719 28.570312 C 13.59375 28.304688 13.574219 28.042969 13.578125 27.785156 C 13.578125 27.773438 13.578125 27.761719 13.578125 27.75 C 13.589844 27.21875 13.589844 26.75 13.585938 26.339844 C 13.574219 25.449219 13.550781 24.457031 13.523438 23.351562 L 13.523438 23.367188 C 13.425781 20.253906 13.308594 16.742188 13.171875 12.828125 L 13.171875 12.820312 C 13.140625 11.8125 13.117188 10.871094 13.097656 9.992188 C 13.035156 7.074219 13.03125 4.96875 13.082031 3.675781 C 13.144531 2.058594 14.507812 0.796875 16.128906 0.863281 C 17.746094 0.925781 19.007812 2.289062 18.941406 3.90625 C 18.898438 5.082031 18.902344 7.070312 18.960938 9.871094 C 18.980469 10.726562 19.003906 11.648438 19.035156 12.632812 L 19.035156 12.625 C 19.171875 16.542969 19.289062 20.0625 19.386719 23.183594 C 19.386719 23.1875 19.386719 23.191406 19.386719 23.199219 C 19.417969 24.324219 19.4375 25.34375 19.449219 26.253906 L 19.449219 26.257812 C 19.457031 26.738281 19.453125 27.28125 19.441406 27.882812 L 19.441406 27.84375 C 19.441406 27.769531 19.4375 27.695312 19.425781 27.628906 C 19.6875 29.230469 18.601562 30.734375 17 30.996094 C 15.402344 31.253906 13.894531 30.167969 13.636719 28.570312 Z M 13.636719 28.570312 " fill-opacity="1" fill-rule="nonzero"/></g><g clip-path="url(#ac9adc2c17)"><path fill="#ffffff" d="M 3.441406 12.765625 C 3.707031 12.722656 3.96875 12.699219 4.226562 12.703125 C 4.238281 12.703125 4.25 12.703125 4.261719 12.703125 C 4.792969 12.714844 5.261719 12.71875 5.675781 12.714844 L 5.671875 12.714844 C 6.5625 12.699219 7.554688 12.679688 8.660156 12.652344 L 8.644531 12.652344 C 11.757812 12.550781 15.269531 12.433594 19.183594 12.300781 L 19.191406 12.300781 C 20.199219 12.269531 21.140625 12.242188 22.019531 12.222656 C 24.9375 12.164062 27.042969 12.160156 28.335938 12.210938 C 29.953125 12.273438 31.214844 13.636719 31.148438 15.253906 C 31.085938 16.875 29.722656 18.132812 28.105469 18.070312 C 26.929688 18.023438 24.941406 18.03125 22.140625 18.089844 L 22.144531 18.089844 C 21.285156 18.105469 20.363281 18.128906 19.378906 18.160156 L 19.386719 18.160156 C 15.46875 18.296875 11.949219 18.414062 8.828125 18.511719 C 8.824219 18.511719 8.820312 18.511719 8.8125 18.511719 C 7.6875 18.542969 6.667969 18.566406 5.757812 18.578125 L 5.753906 18.578125 C 5.273438 18.585938 4.730469 18.582031 4.132812 18.566406 L 4.167969 18.566406 C 4.242188 18.570312 4.316406 18.5625 4.382812 18.554688 C 2.78125 18.8125 1.277344 17.726562 1.015625 16.128906 C 0.757812 14.53125 1.84375 13.023438 3.441406 12.765625 Z M 3.441406 12.765625 " fill-opacity="1" fill-rule="nonzero"/></g></g></g></g><g mask="url(#de6b73961b)"><g transform="matrix(1, 0, 0, 1, 290, 174)"><g clip-path="url(#4468f179e0)"><g clip-path="url(#e9720a20f2)"><path fill="#ffffff" d="M 1.914062 54.585938 C 18.8125 49.507812 22.480469 39.828125 26.609375 22.171875 C 26.675781 21.894531 26.816406 21.667969 27.039062 21.488281 C 27.261719 21.3125 27.515625 21.226562 27.800781 21.226562 C 28.085938 21.226562 28.339844 21.3125 28.5625 21.488281 C 28.785156 21.667969 28.925781 21.894531 28.992188 22.171875 C 33.117188 39.828125 36.789062 49.507812 53.6875 54.585938 C 53.945312 54.664062 54.15625 54.808594 54.316406 55.027344 C 54.476562 55.242188 54.558594 55.488281 54.558594 55.757812 C 54.558594 56.027344 54.476562 56.269531 54.316406 56.488281 C 54.15625 56.703125 53.945312 56.851562 53.6875 56.929688 C 36.785156 62.007812 33.113281 71.6875 28.984375 89.34375 C 28.921875 89.621094 28.777344 89.847656 28.554688 90.027344 C 28.332031 90.203125 28.078125 90.289062 27.796875 90.289062 C 27.511719 90.289062 27.257812 90.203125 27.035156 90.027344 C 26.8125 89.847656 26.667969 89.621094 26.605469 89.34375 C 22.476562 71.6875 18.808594 62.007812 1.910156 56.929688 C 1.652344 56.851562 1.441406 56.703125 1.277344 56.488281 C 1.117188 56.269531 1.039062 56.027344 1.039062 55.753906 C 1.039062 55.484375 1.121094 55.242188 1.28125 55.023438 C 1.445312 54.808594 1.65625 54.660156 1.914062 54.585938 Z M 51.679688 18.867188 C 58.804688 21.480469 60.988281 26.007812 62.910156 33.609375 C 62.980469 33.878906 63.125 34.097656 63.34375 34.269531 C 63.566406 34.441406 63.816406 34.527344 64.09375 34.527344 C 64.375 34.527344 64.621094 34.441406 64.84375 34.269531 C 65.0625 34.097656 65.207031 33.878906 65.277344 33.609375 C 67.199219 26.011719 69.382812 21.480469 76.507812 18.867188 C 76.75 18.777344 76.945312 18.628906 77.089844 18.417969 C 77.238281 18.207031 77.3125 17.972656 77.3125 17.714844 C 77.3125 17.460938 77.238281 17.226562 77.089844 17.015625 C 76.945312 16.804688 76.75 16.65625 76.507812 16.566406 C 69.382812 13.953125 67.199219 9.425781 65.277344 1.824219 C 65.207031 1.554688 65.0625 1.332031 64.84375 1.164062 C 64.621094 0.992188 64.375 0.90625 64.09375 0.90625 C 63.816406 0.90625 63.566406 0.992188 63.34375 1.164062 C 63.125 1.332031 62.980469 1.554688 62.910156 1.824219 C 60.984375 9.425781 58.804688 13.953125 51.679688 16.566406 C 51.4375 16.65625 51.242188 16.804688 51.097656 17.015625 C 50.949219 17.226562 50.875 17.460938 50.875 17.714844 C 50.875 17.972656 50.949219 18.207031 51.097656 18.417969 C 51.242188 18.628906 51.4375 18.777344 51.679688 18.867188 Z M 53.320312 84.609375 C 57.523438 86.390625 59.125 89.261719 60.382812 93.78125 C 60.457031 94.046875 60.601562 94.265625 60.820312 94.429688 C 61.039062 94.597656 61.285156 94.679688 61.5625 94.679688 C 61.835938 94.679688 62.085938 94.597656 62.304688 94.429688 C 62.523438 94.265625 62.667969 94.046875 62.742188 93.78125 C 64 89.261719 65.597656 86.390625 69.804688 84.609375 C 70.03125 84.515625 70.210938 84.363281 70.34375 84.160156 C 70.480469 83.953125 70.546875 83.730469 70.546875 83.484375 C 70.546875 83.238281 70.480469 83.015625 70.34375 82.808594 C 70.210938 82.605469 70.03125 82.457031 69.804688 82.359375 C 65.597656 80.578125 64 77.707031 62.742188 73.1875 C 62.667969 72.921875 62.523438 72.707031 62.304688 72.539062 C 62.085938 72.371094 61.835938 72.289062 61.5625 72.289062 C 61.285156 72.289062 61.039062 72.371094 60.820312 72.539062 C 60.601562 72.707031 60.457031 72.921875 60.382812 73.1875 C 59.125 77.707031 57.527344 80.578125 53.320312 82.359375 C 53.09375 82.453125 52.914062 82.605469 52.777344 82.808594 C 52.644531 83.011719 52.574219 83.238281 52.574219 83.484375 C 52.574219 83.730469 52.640625 83.953125 52.777344 84.160156 C 52.910156 84.363281 53.089844 84.511719 53.316406 84.609375 Z M 53.320312 84.609375 " fill-opacity="1" fill-rule="nonzero"/></g></g></g></g><g mask="url(#1c4245f060)"><g transform="matrix(1, 0, 0, 1, 336, 352)"><g clip-path="url(#9a518d7952)"><g clip-path="url(#48c68d0a1f)"><path fill="#ffffff" d="M 11.480469 1.039062 C 5.621094 1.039062 0.878906 5.78125 0.878906 11.640625 C 0.878906 17.496094 5.621094 22.238281 11.480469 22.238281 C 17.335938 22.238281 22.078125 17.496094 22.078125 11.640625 C 22.078125 5.78125 17.335938 1.039062 11.480469 1.039062 Z M 11.480469 20.117188 C 6.792969 20.117188 3 16.324219 3 11.640625 C 3 6.953125 6.792969 3.160156 11.480469 3.160156 C 16.164062 3.160156 19.957031 6.953125 19.957031 11.640625 C 19.957031 16.324219 16.164062 20.117188 11.480469 20.117188 Z M 11.480469 20.117188 " fill-opacity="1" fill-rule="nonzero"/></g></g></g></g></svg>