<svg xmlns="http://www.w3.org/2000/svg" xmlns:xlink="http://www.w3.org/1999/xlink" width="512" zoomAndPan="magnify" viewBox="0 0 384 383.999986" height="512" preserveAspectRatio="xMidYMid meet" version="1.0"><defs><filter x="0%" y="0%" width="100%" height="100%" id="51475fcfe2"><feColorMatrix values="0 0 0 0 1 0 0 0 0 1 0 0 0 0 1 0 0 0 1 0" color-interpolation-filters="sRGB"/></filter><mask id="d71823a669"><g filter="url(#51475fcfe2)"><rect x="-38.4" width="460.8" fill="#000000" y="-38.399999" height="460.799983" fill-opacity="0.5"/></g></mask><clipPath id="97916dd7b6"><path d="M 0 1.039062 L 36.265625 1.039062 L 36.265625 47.34375 L 0 47.34375 Z M 0 1.039062 " clip-rule="nonzero"/></clipPath><clipPath id="83a3b9a6d1"><rect x="0" width="37" y="0" height="71"/></clipPath><mask id="eddd0484b7"><g filter="url(#51475fcfe2)"><rect x="-38.4" width="460.8" fill="#000000" y="-38.399999" height="460.799983" fill-opacity="0.5"/></g></mask><clipPath id="d45880acb0"><path d="M 37.203125 0.0195312 L 60.523438 0.0195312 L 60.523438 30 L 37.203125 30 Z M 37.203125 0.0195312 " clip-rule="nonzero"/></clipPath><clipPath id="0ec2f24bce"><rect x="0" width="61" y="0" height="30"/></clipPath><mask id="b4d150bfa5"><g filter="url(#51475fcfe2)"><rect x="-38.4" width="460.8" fill="#000000" y="-38.399999" height="460.799983" fill-opacity="0.5"/></g></mask><clipPath id="8619cf8548"><path d="M 12 0.9375 L 19 0.9375 L 19 31.398438 L 12 31.398438 Z M 12 0.9375 " clip-rule="nonzero"/></clipPath><clipPath id="9cc2fc0d82"><path d="M 0.320312 12 L 30.800781 12 L 30.800781 19 L 0.320312 19 Z M 0.320312 12 " clip-rule="nonzero"/></clipPath><clipPath id="f1dc7ddd38"><rect x="0" width="31" y="0" height="32"/></clipPath><mask id="33c2cbc90c"><g filter="url(#51475fcfe2)"><rect x="-38.4" width="460.8" fill="#000000" y="-38.399999" height="460.799983" fill-opacity="0.5"/></g></mask><clipPath id="d32154997c"><path d="M 46.601562 0.167969 L 76.601562 0.167969 L 76.601562 38.417969 L 46.601562 38.417969 Z M 46.601562 0.167969 " clip-rule="nonzero"/></clipPath><clipPath id="bcfd4393b7"><rect x="0" width="77" y="0" height="95"/></clipPath><mask id="34cce87550"><g filter="url(#51475fcfe2)"><rect x="-38.4" width="460.8" fill="#000000" y="-38.399999" height="460.799983" fill-opacity="0.5"/></g></mask><clipPath id="8076131f15"><path d="M 0.996094 0.808594 L 21.996094 0.808594 L 21.996094 21.808594 L 0.996094 21.808594 Z M 0.996094 0.808594 " clip-rule="nonzero"/></clipPath><clipPath id="53a0a578e3"><rect x="0" width="23" y="0" height="23"/></clipPath><clipPath id="8f00c8f9f2"><path d="M 16.277344 16.277344 L 368 16.277344 L 368 368 L 16.277344 368 Z M 16.277344 16.277344 " clip-rule="nonzero"/></clipPath></defs><g mask="url(#d71823a669)"><g transform="matrix(1, 0, 0, 1, 0, 313)"><g clip-path="url(#83a3b9a6d1)"><g clip-path="url(#97916dd7b6)"><path fill="#ffffff" d="M -55.273438 66.355469 C -34.710938 60.175781 -30.246094 48.394531 -25.226562 26.910156 C -25.144531 26.574219 -24.972656 26.296875 -24.699219 26.082031 C -24.429688 25.867188 -24.121094 25.761719 -23.777344 25.761719 C -23.429688 25.761719 -23.121094 25.867188 -22.851562 26.082031 C -22.578125 26.296875 -22.40625 26.574219 -22.328125 26.910156 C -17.304688 48.394531 -12.839844 60.175781 7.722656 66.355469 C 8.035156 66.449219 8.292969 66.628906 8.488281 66.890625 C 8.683594 67.15625 8.78125 67.449219 8.78125 67.777344 C 8.78125 68.109375 8.683594 68.402344 8.488281 68.667969 C 8.292969 68.929688 8.035156 69.109375 7.722656 69.203125 C -12.84375 75.382812 -17.3125 87.164062 -22.332031 108.648438 C -22.410156 108.984375 -22.585938 109.261719 -22.855469 109.476562 C -23.128906 109.691406 -23.4375 109.800781 -23.78125 109.800781 C -24.128906 109.800781 -24.4375 109.691406 -24.707031 109.476562 C -24.976562 109.261719 -25.152344 108.984375 -25.230469 108.648438 C -30.253906 87.164062 -34.71875 75.382812 -55.277344 69.207031 C -55.59375 69.113281 -55.851562 68.933594 -56.046875 68.667969 C -56.242188 68.402344 -56.339844 68.105469 -56.339844 67.777344 C -56.339844 67.449219 -56.238281 67.152344 -56.042969 66.886719 C -55.84375 66.625 -55.589844 66.445312 -55.273438 66.355469 Z M 5.28125 22.890625 C 13.953125 26.070312 16.609375 31.582031 18.945312 40.828125 C 19.027344 41.15625 19.207031 41.425781 19.472656 41.632812 C 19.742188 41.84375 20.046875 41.945312 20.386719 41.945312 C 20.726562 41.945312 21.027344 41.84375 21.296875 41.632812 C 21.566406 41.425781 21.742188 41.15625 21.828125 40.828125 C 24.164062 31.585938 26.820312 26.074219 35.492188 22.890625 C 35.785156 22.78125 36.019531 22.601562 36.199219 22.34375 C 36.378906 22.089844 36.46875 21.804688 36.46875 21.492188 C 36.46875 21.179688 36.378906 20.894531 36.199219 20.640625 C 36.019531 20.382812 35.785156 20.203125 35.492188 20.09375 C 26.820312 16.914062 24.164062 11.402344 21.828125 2.15625 C 21.742188 1.828125 21.566406 1.558594 21.296875 1.351562 C 21.027344 1.140625 20.726562 1.039062 20.386719 1.039062 C 20.046875 1.039062 19.742188 1.140625 19.472656 1.351562 C 19.207031 1.558594 19.027344 1.828125 18.945312 2.15625 C 16.601562 11.402344 13.953125 16.914062 5.28125 20.09375 C 4.984375 20.203125 4.75 20.382812 4.570312 20.640625 C 4.390625 20.894531 4.300781 21.179688 4.300781 21.492188 C 4.300781 21.804688 4.390625 22.089844 4.570312 22.34375 C 4.75 22.601562 4.984375 22.78125 5.28125 22.890625 Z M 7.277344 102.886719 C 12.390625 105.050781 14.339844 108.546875 15.871094 114.046875 C 15.960938 114.371094 16.136719 114.632812 16.402344 114.835938 C 16.667969 115.039062 16.96875 115.140625 17.304688 115.140625 C 17.640625 115.140625 17.941406 115.039062 18.207031 114.835938 C 18.472656 114.632812 18.648438 114.371094 18.738281 114.046875 C 20.269531 108.546875 22.214844 105.050781 27.332031 102.886719 C 27.609375 102.769531 27.828125 102.585938 27.992188 102.339844 C 28.15625 102.089844 28.238281 101.816406 28.238281 101.519531 C 28.238281 101.21875 28.15625 100.945312 27.992188 100.695312 C 27.828125 100.449219 27.609375 100.265625 27.332031 100.148438 C 22.214844 97.984375 20.269531 94.488281 18.738281 88.988281 C 18.648438 88.664062 18.472656 88.402344 18.207031 88.199219 C 17.941406 87.996094 17.640625 87.894531 17.304688 87.894531 C 16.96875 87.894531 16.667969 87.996094 16.402344 88.199219 C 16.136719 88.402344 15.960938 88.664062 15.871094 88.988281 C 14.339844 94.488281 12.394531 97.984375 7.277344 100.148438 C 7 100.265625 6.78125 100.449219 6.617188 100.695312 C 6.453125 100.945312 6.367188 101.21875 6.367188 101.515625 C 6.367188 101.816406 6.449219 102.089844 6.613281 102.335938 C 6.777344 102.585938 6.996094 102.769531 7.273438 102.886719 Z M 7.277344 102.886719 " fill-opacity="1" fill-rule="nonzero"/></g></g></g></g><g mask="url(#eddd0484b7)"><g transform="matrix(1, 0, 0, 1, 10, 354)"><g clip-path="url(#0ec2f24bce)"><g clip-path="url(#d45880acb0)"><path fill="#ffffff" d="M 1.679688 42 C 14.894531 38.027344 17.761719 30.457031 20.988281 16.648438 C 21.039062 16.433594 21.152344 16.257812 21.328125 16.117188 C 21.5 15.980469 21.699219 15.910156 21.921875 15.910156 C 22.144531 15.910156 22.339844 15.980469 22.515625 16.117188 C 22.691406 16.257812 22.800781 16.433594 22.851562 16.648438 C 26.078125 30.457031 28.949219 38.027344 42.164062 42 C 42.367188 42.058594 42.53125 42.175781 42.65625 42.34375 C 42.78125 42.511719 42.84375 42.703125 42.84375 42.914062 C 42.84375 43.125 42.78125 43.316406 42.65625 43.484375 C 42.53125 43.65625 42.367188 43.769531 42.164062 43.832031 C 28.949219 47.800781 26.074219 55.375 22.847656 69.179688 C 22.796875 69.398438 22.683594 69.574219 22.511719 69.714844 C 22.335938 69.851562 22.140625 69.921875 21.917969 69.921875 C 21.695312 69.921875 21.496094 69.851562 21.320312 69.714844 C 21.148438 69.574219 21.035156 69.398438 20.984375 69.179688 C 17.757812 55.375 14.886719 47.800781 1.675781 43.832031 C 1.472656 43.773438 1.308594 43.65625 1.179688 43.484375 C 1.054688 43.316406 0.992188 43.125 0.992188 42.914062 C 0.992188 42.703125 1.058594 42.511719 1.183594 42.34375 C 1.3125 42.171875 1.476562 42.058594 1.679688 42 Z M 40.59375 14.066406 C 46.167969 16.109375 47.875 19.652344 49.375 25.59375 C 49.429688 25.804688 49.542969 25.980469 49.714844 26.113281 C 49.890625 26.246094 50.085938 26.3125 50.300781 26.3125 C 50.519531 26.3125 50.714844 26.246094 50.886719 26.113281 C 51.0625 25.980469 51.175781 25.804688 51.230469 25.59375 C 52.730469 19.652344 54.4375 16.113281 60.011719 14.066406 C 60.199219 13.996094 60.351562 13.878906 60.464844 13.714844 C 60.582031 13.550781 60.640625 13.367188 60.640625 13.167969 C 60.640625 12.964844 60.582031 12.785156 60.464844 12.617188 C 60.351562 12.453125 60.199219 12.335938 60.011719 12.269531 C 54.4375 10.222656 52.730469 6.683594 51.230469 0.738281 C 51.175781 0.527344 51.0625 0.355469 50.886719 0.222656 C 50.714844 0.0898438 50.519531 0.0195312 50.300781 0.0195312 C 50.085938 0.0195312 49.890625 0.0898438 49.714844 0.222656 C 49.542969 0.355469 49.429688 0.527344 49.375 0.738281 C 47.871094 6.683594 46.167969 10.222656 40.59375 12.269531 C 40.40625 12.335938 40.253906 12.453125 40.136719 12.617188 C 40.023438 12.785156 39.964844 12.964844 39.964844 13.167969 C 39.964844 13.367188 40.023438 13.550781 40.136719 13.714844 C 40.253906 13.878906 40.40625 13.996094 40.59375 14.066406 Z M 41.878906 65.476562 C 45.164062 66.871094 46.417969 69.117188 47.402344 72.652344 C 47.457031 72.859375 47.570312 73.027344 47.742188 73.15625 C 47.914062 73.289062 48.109375 73.351562 48.324219 73.351562 C 48.539062 73.351562 48.730469 73.289062 48.902344 73.15625 C 49.074219 73.027344 49.1875 72.859375 49.246094 72.652344 C 50.226562 69.117188 51.476562 66.871094 54.769531 65.476562 C 54.945312 65.402344 55.085938 65.285156 55.191406 65.125 C 55.296875 64.964844 55.351562 64.789062 55.351562 64.597656 C 55.351562 64.40625 55.296875 64.230469 55.191406 64.070312 C 55.085938 63.910156 54.945312 63.792969 54.769531 63.71875 C 51.480469 62.328125 50.226562 60.082031 49.246094 56.546875 C 49.1875 56.335938 49.074219 56.167969 48.902344 56.039062 C 48.730469 55.910156 48.539062 55.84375 48.324219 55.84375 C 48.109375 55.84375 47.914062 55.910156 47.742188 56.039062 C 47.570312 56.167969 47.457031 56.335938 47.402344 56.546875 C 46.417969 60.082031 45.167969 62.328125 41.878906 63.71875 C 41.699219 63.792969 41.558594 63.910156 41.453125 64.070312 C 41.347656 64.230469 41.292969 64.40625 41.292969 64.597656 C 41.292969 64.789062 41.347656 64.964844 41.453125 65.125 C 41.558594 65.285156 41.699219 65.402344 41.875 65.476562 Z M 41.878906 65.476562 " fill-opacity="1" fill-rule="nonzero"/></g></g></g></g><g mask="url(#b4d150bfa5)"><g transform="matrix(1, 0, 0, 1, 16, 7)"><g clip-path="url(#f1dc7ddd38)"><g clip-path="url(#8619cf8548)"><path fill="#ffffff" d="M 13.152344 28.710938 C 13.109375 28.445312 13.089844 28.183594 13.09375 27.925781 C 13.09375 27.914062 13.09375 27.902344 13.09375 27.890625 C 13.105469 27.359375 13.109375 26.890625 13.101562 26.476562 C 13.089844 25.589844 13.070312 24.59375 13.039062 23.492188 L 13.039062 23.507812 C 12.941406 20.394531 12.824219 16.878906 12.6875 12.96875 L 12.6875 12.960938 C 12.65625 11.953125 12.632812 11.007812 12.613281 10.132812 C 12.554688 7.214844 12.546875 5.109375 12.597656 3.816406 C 12.664062 2.199219 14.027344 0.9375 15.644531 1 C 17.261719 1.066406 18.523438 2.429688 18.460938 4.046875 C 18.414062 5.222656 18.417969 7.207031 18.476562 10.007812 C 18.496094 10.867188 18.519531 11.785156 18.550781 12.773438 L 18.550781 12.765625 C 18.6875 16.683594 18.804688 20.203125 18.902344 23.324219 C 18.902344 23.328125 18.902344 23.332031 18.902344 23.335938 C 18.933594 24.464844 18.953125 25.484375 18.96875 26.394531 C 18.972656 26.878906 18.96875 27.417969 18.957031 28.019531 L 18.957031 27.984375 C 18.957031 27.90625 18.953125 27.835938 18.941406 27.769531 C 19.203125 29.367188 18.117188 30.875 16.519531 31.132812 C 14.917969 31.394531 13.414062 30.308594 13.152344 28.710938 Z M 13.152344 28.710938 " fill-opacity="1" fill-rule="nonzero"/></g><g clip-path="url(#9cc2fc0d82)"><path fill="#ffffff" d="M 2.957031 12.902344 C 3.222656 12.859375 3.484375 12.839844 3.742188 12.84375 C 3.753906 12.84375 3.765625 12.84375 3.777344 12.84375 C 4.308594 12.855469 4.777344 12.859375 5.191406 12.851562 C 6.078125 12.839844 7.074219 12.820312 8.175781 12.789062 L 8.160156 12.789062 C 11.273438 12.691406 14.789062 12.574219 18.699219 12.4375 L 18.707031 12.4375 C 19.714844 12.40625 20.660156 12.382812 21.535156 12.363281 C 24.453125 12.304688 26.558594 12.296875 27.851562 12.347656 C 29.46875 12.414062 30.730469 13.777344 30.667969 15.394531 C 30.601562 17.011719 29.238281 18.273438 27.621094 18.210938 C 26.445312 18.164062 24.460938 18.167969 21.660156 18.226562 C 20.800781 18.246094 19.882812 18.269531 18.894531 18.300781 L 18.902344 18.300781 C 14.984375 18.4375 11.464844 18.554688 8.34375 18.652344 C 8.339844 18.652344 8.335938 18.652344 8.332031 18.652344 C 7.203125 18.683594 6.183594 18.703125 5.273438 18.71875 C 4.789062 18.722656 4.25 18.71875 3.648438 18.707031 L 3.683594 18.707031 C 3.761719 18.707031 3.832031 18.703125 3.898438 18.691406 C 2.300781 18.953125 0.792969 17.867188 0.535156 16.269531 C 0.273438 14.667969 1.359375 13.164062 2.957031 12.902344 Z M 2.957031 12.902344 " fill-opacity="1" fill-rule="nonzero"/></g></g></g></g><g mask="url(#33c2cbc90c)"><g transform="matrix(1, 0, 0, 1, 269, 23)"><g clip-path="url(#bcfd4393b7)"><g clip-path="url(#d32154997c)"><path fill="#ffffff" d="M 1.175781 53.847656 C 18.074219 48.773438 21.742188 39.089844 25.871094 21.433594 C 25.933594 21.15625 26.078125 20.929688 26.300781 20.753906 C 26.523438 20.578125 26.777344 20.488281 27.0625 20.488281 C 27.34375 20.488281 27.597656 20.578125 27.820312 20.753906 C 28.042969 20.929688 28.1875 21.15625 28.25 21.433594 C 32.378906 39.089844 36.046875 48.773438 52.945312 53.847656 C 53.203125 53.925781 53.414062 54.074219 53.574219 54.289062 C 53.738281 54.507812 53.816406 54.75 53.816406 55.019531 C 53.816406 55.289062 53.738281 55.535156 53.574219 55.75 C 53.414062 55.96875 53.203125 56.113281 52.945312 56.191406 C 36.046875 61.269531 32.371094 70.953125 28.246094 88.609375 C 28.179688 88.886719 28.039062 89.113281 27.816406 89.289062 C 27.59375 89.464844 27.339844 89.554688 27.054688 89.554688 C 26.769531 89.554688 26.515625 89.464844 26.292969 89.289062 C 26.070312 89.113281 25.929688 88.886719 25.863281 88.609375 C 21.738281 70.953125 18.066406 61.269531 1.167969 56.195312 C 0.910156 56.117188 0.699219 55.96875 0.539062 55.75 C 0.378906 55.535156 0.296875 55.289062 0.296875 55.019531 C 0.296875 54.75 0.378906 54.503906 0.542969 54.289062 C 0.703125 54.070312 0.914062 53.925781 1.175781 53.847656 Z M 50.9375 18.128906 C 58.066406 20.742188 60.25 25.273438 62.167969 32.871094 C 62.238281 33.140625 62.382812 33.363281 62.605469 33.535156 C 62.824219 33.707031 63.074219 33.789062 63.355469 33.789062 C 63.632812 33.789062 63.882812 33.707031 64.101562 33.535156 C 64.324219 33.363281 64.46875 33.140625 64.539062 32.871094 C 66.460938 25.273438 68.640625 20.746094 75.769531 18.128906 C 76.011719 18.042969 76.203125 17.890625 76.351562 17.679688 C 76.5 17.472656 76.570312 17.238281 76.570312 16.980469 C 76.570312 16.722656 76.5 16.488281 76.351562 16.28125 C 76.203125 16.070312 76.011719 15.917969 75.769531 15.832031 C 68.640625 13.21875 66.457031 8.6875 64.539062 1.089844 C 64.46875 0.816406 64.324219 0.597656 64.101562 0.425781 C 63.882812 0.253906 63.632812 0.171875 63.355469 0.171875 C 63.074219 0.171875 62.824219 0.253906 62.605469 0.425781 C 62.382812 0.597656 62.238281 0.816406 62.167969 1.089844 C 60.246094 8.6875 58.066406 13.21875 50.9375 15.832031 C 50.699219 15.917969 50.503906 16.070312 50.355469 16.28125 C 50.210938 16.488281 50.136719 16.722656 50.136719 16.980469 C 50.136719 17.238281 50.210938 17.472656 50.355469 17.679688 C 50.503906 17.890625 50.699219 18.042969 50.9375 18.128906 Z M 52.582031 83.875 C 56.785156 85.652344 58.386719 88.523438 59.644531 93.046875 C 59.714844 93.3125 59.863281 93.527344 60.082031 93.695312 C 60.300781 93.859375 60.546875 93.945312 60.820312 93.945312 C 61.097656 93.945312 61.34375 93.859375 61.5625 93.695312 C 61.78125 93.527344 61.925781 93.3125 62 93.046875 C 63.257812 88.523438 64.855469 85.652344 69.0625 83.875 C 69.289062 83.777344 69.46875 83.628906 69.605469 83.421875 C 69.742188 83.21875 69.808594 82.992188 69.808594 82.75 C 69.808594 82.503906 69.742188 82.277344 69.605469 82.074219 C 69.46875 81.871094 69.289062 81.71875 69.0625 81.625 C 64.859375 79.84375 63.257812 76.972656 62 72.449219 C 61.925781 72.183594 61.78125 71.96875 61.5625 71.800781 C 61.34375 71.636719 61.097656 71.550781 60.820312 71.550781 C 60.546875 71.550781 60.300781 71.636719 60.082031 71.800781 C 59.863281 71.96875 59.714844 72.183594 59.644531 72.449219 C 58.386719 76.972656 56.785156 79.84375 52.582031 81.625 C 52.355469 81.71875 52.171875 81.867188 52.039062 82.074219 C 51.902344 82.277344 51.835938 82.503906 51.835938 82.746094 C 51.832031 82.992188 51.902344 83.21875 52.035156 83.421875 C 52.171875 83.625 52.351562 83.777344 52.578125 83.875 Z M 52.582031 83.875 " fill-opacity="1" fill-rule="nonzero"/></g></g></g></g><g mask="url(#34cce87550)"><g transform="matrix(1, 0, 0, 1, 349, 327)"><g clip-path="url(#53a0a578e3)"><g clip-path="url(#8076131f15)"><path fill="#ffffff" d="M 11.59375 0.808594 C 5.738281 0.808594 0.996094 5.554688 0.996094 11.410156 C 0.996094 17.265625 5.738281 22.007812 11.59375 22.007812 C 17.453125 22.007812 22.195312 17.265625 22.195312 11.410156 C 22.195312 5.554688 17.453125 0.808594 11.59375 0.808594 Z M 11.59375 19.890625 C 6.910156 19.890625 3.117188 16.09375 3.117188 11.410156 C 3.117188 6.726562 6.910156 2.929688 11.59375 2.929688 C 16.28125 2.929688 20.074219 6.726562 20.074219 11.410156 C 20.074219 16.09375 16.28125 19.890625 11.59375 19.890625 Z M 11.59375 19.890625 " fill-opacity="1" fill-rule="nonzero"/></g></g></g></g><g clip-path="url(#8f00c8f9f2)"><path fill="#ffffff" d="M 191.996094 353.703125 C 102.828125 353.703125 30.285156 281.160156 30.285156 191.996094 C 30.285156 102.828125 102.828125 30.285156 191.996094 30.285156 C 281.160156 30.285156 353.703125 102.828125 353.703125 191.996094 C 353.703125 281.160156 281.160156 353.703125 191.996094 353.703125 Z M 191.996094 16.277344 C 95.101562 16.277344 16.277344 95.101562 16.277344 191.996094 C 16.277344 288.886719 95.101562 367.710938 191.996094 367.710938 C 288.886719 367.710938 367.710938 288.886719 367.710938 191.996094 C 367.710938 95.101562 288.886719 16.277344 191.996094 16.277344 " fill-opacity="1" fill-rule="nonzero"/></g><path fill="#ffffff" d="M 191.992188 187.03125 C 212.46875 187.03125 229.070312 169.253906 229.070312 147.328125 C 229.070312 125.394531 212.46875 107.621094 191.992188 107.621094 C 171.515625 107.621094 154.914062 125.394531 154.914062 147.328125 C 154.914062 169.253906 171.515625 187.03125 191.992188 187.03125 " fill-opacity="1" fill-rule="nonzero"/><path fill="#ffffff" d="M 214.425781 202.648438 L 169.558594 202.648438 C 144.75 202.648438 124.640625 222.761719 124.640625 247.566406 L 124.640625 262.394531 C 124.640625 274.8125 134.707031 284.878906 147.125 284.878906 L 236.863281 284.878906 C 249.28125 284.878906 259.347656 274.8125 259.347656 262.394531 L 259.347656 247.566406 C 259.347656 222.761719 239.230469 202.648438 214.425781 202.648438 " fill-opacity="1" fill-rule="nonzero"/><path fill="#ffffff" d="M 262.425781 189.25 C 277.980469 189.25 290.589844 175.742188 290.589844 159.085938 C 290.589844 142.429688 277.980469 128.925781 262.425781 128.925781 C 246.871094 128.925781 234.265625 142.429688 234.265625 159.085938 C 234.265625 175.742188 246.871094 189.25 262.425781 189.25 " fill-opacity="1" fill-rule="nonzero"/><path fill="#ffffff" d="M 121.558594 189.25 C 137.113281 189.25 149.722656 175.742188 149.722656 159.085938 C 149.722656 142.429688 137.113281 128.925781 121.558594 128.925781 C 106.003906 128.925781 93.398438 142.429688 93.398438 159.085938 C 93.398438 175.742188 106.003906 189.25 121.558594 189.25 " fill-opacity="1" fill-rule="nonzero"/><path fill="#ffffff" d="M 145.914062 201.917969 C 143.558594 201.402344 141.113281 201.113281 138.601562 201.113281 L 104.519531 201.113281 C 85.675781 201.113281 70.402344 216.386719 70.402344 235.230469 L 70.402344 246.492188 C 70.402344 255.925781 78.042969 263.570312 87.476562 263.570312 L 117.140625 263.570312 L 117.140625 248.121094 C 117.140625 227.84375 128.875 210.308594 145.914062 201.917969 " fill-opacity="1" fill-rule="nonzero"/><path fill="#ffffff" d="M 279.46875 201.113281 L 245.386719 201.113281 C 242.871094 201.113281 240.429688 201.402344 238.070312 201.917969 C 255.113281 210.308594 266.847656 227.84375 266.847656 248.121094 L 266.847656 263.570312 L 296.511719 263.570312 C 305.941406 263.570312 313.585938 255.925781 313.585938 246.492188 L 313.585938 235.230469 C 313.585938 216.386719 298.3125 201.113281 279.46875 201.113281 " fill-opacity="1" fill-rule="nonzero"/></svg>