<svg xmlns="http://www.w3.org/2000/svg" xmlns:xlink="http://www.w3.org/1999/xlink" width="512" zoomAndPan="magnify" viewBox="0 0 384 383.999986" height="512" preserveAspectRatio="xMidYMid meet" version="1.0"><defs><filter x="0%" y="0%" width="100%" height="100%" id="64ee438b09"><feColorMatrix values="0 0 0 0 1 0 0 0 0 1 0 0 0 0 1 0 0 0 1 0" color-interpolation-filters="sRGB"/></filter><mask id="43e176b12f"><g filter="url(#64ee438b09)"><rect x="-38.4" width="460.8" fill="#000000" y="-38.399999" height="460.799983" fill-opacity="0.5"/></g></mask><clipPath id="70fb94a9fe"><path d="M 53.792969 0.703125 L 87.695312 0.703125 L 87.695312 43.988281 L 53.792969 43.988281 Z M 53.792969 0.703125 " clip-rule="nonzero"/></clipPath><clipPath id="154e604acc"><rect x="0" width="88" y="0" height="108"/></clipPath><mask id="369311fc34"><g filter="url(#64ee438b09)"><rect x="-38.4" width="460.8" fill="#000000" y="-38.399999" height="460.799983" fill-opacity="0.5"/></g></mask><clipPath id="e43d2c99be"><path d="M 34.914062 1.074219 L 56.714844 1.074219 L 56.714844 29.34375 L 34.914062 29.34375 Z M 34.914062 1.074219 " clip-rule="nonzero"/></clipPath><clipPath id="a58fefca0d"><rect x="0" width="57" y="0" height="70"/></clipPath><mask id="762e4abd51"><g filter="url(#64ee438b09)"><rect x="-38.4" width="460.8" fill="#000000" y="-38.399999" height="460.799983" fill-opacity="0.5"/></g></mask><clipPath id="0f7ede6969"><path d="M 8 0.15625 L 14 0.15625 L 14 22.65625 L 8 22.65625 Z M 8 0.15625 " clip-rule="nonzero"/></clipPath><clipPath id="9945f49a0a"><path d="M 0 8 L 22.394531 8 L 22.394531 14 L 0 14 Z M 0 8 " clip-rule="nonzero"/></clipPath><clipPath id="9c13aa6bcf"><rect x="0" width="23" y="0" height="23"/></clipPath><mask id="a970cde753"><g filter="url(#64ee438b09)"><rect x="-38.4" width="460.8" fill="#000000" y="-38.399999" height="460.799983" fill-opacity="0.5"/></g></mask><clipPath id="ca1aeb5d67"><path d="M 0.328125 0.484375 L 25 0.484375 L 25 25.121094 L 0.328125 25.121094 Z M 0.328125 0.484375 " clip-rule="nonzero"/></clipPath><clipPath id="e591dba5b2"><rect x="0" width="26" y="0" height="26"/></clipPath><mask id="be4ef6f0ec"><g filter="url(#64ee438b09)"><rect x="-38.4" width="460.8" fill="#000000" y="-38.399999" height="460.799983" fill-opacity="0.5"/></g></mask><clipPath id="7bd93e91b1"><path d="M 43.671875 0.195312 L 71.421875 0.195312 L 71.421875 36.195312 L 43.671875 36.195312 Z M 43.671875 0.195312 " clip-rule="nonzero"/></clipPath><clipPath id="920d27129c"><rect x="0" width="72" y="0" height="79"/></clipPath><clipPath id="f12022777a"><path d="M 23.894531 57.515625 L 359.894531 57.515625 L 359.894531 148 L 23.894531 148 Z M 23.894531 57.515625 " clip-rule="nonzero"/></clipPath><clipPath id="3fa96d579b"><path d="M 23.894531 236 L 359.894531 236 L 359.894531 326.765625 L 23.894531 326.765625 Z M 23.894531 236 " clip-rule="nonzero"/></clipPath><clipPath id="6e2ac5c436"><path d="M 23.894531 147 L 359.894531 147 L 359.894531 237 L 23.894531 237 Z M 23.894531 147 " clip-rule="nonzero"/></clipPath></defs><g mask="url(#43e176b12f)"><g transform="matrix(1, 0, 0, 1, 237, 5)"><g clip-path="url(#154e604acc)"><g clip-path="url(#70fb94a9fe)"><path fill="#ffffff" d="M 2.128906 61.753906 C 21.347656 55.980469 25.519531 44.96875 30.214844 24.886719 C 30.289062 24.570312 30.453125 24.3125 30.703125 24.113281 C 30.957031 23.910156 31.246094 23.8125 31.570312 23.8125 C 31.894531 23.8125 32.179688 23.910156 32.433594 24.113281 C 32.6875 24.3125 32.851562 24.570312 32.925781 24.886719 C 37.617188 44.96875 41.792969 55.980469 61.011719 61.753906 C 61.304688 61.84375 61.542969 62.011719 61.726562 62.257812 C 61.910156 62.503906 62.003906 62.78125 62.003906 63.085938 C 62.003906 63.394531 61.910156 63.671875 61.726562 63.917969 C 61.542969 64.164062 61.304688 64.332031 61.011719 64.417969 C 41.789062 70.195312 37.609375 81.207031 32.917969 101.289062 C 32.84375 101.605469 32.679688 101.863281 32.429688 102.066406 C 32.175781 102.265625 31.886719 102.367188 31.5625 102.367188 C 31.238281 102.367188 30.953125 102.265625 30.699219 102.066406 C 30.445312 101.863281 30.28125 101.605469 30.207031 101.289062 C 25.515625 81.207031 21.339844 70.195312 2.121094 64.421875 C 1.828125 64.332031 1.589844 64.164062 1.40625 63.917969 C 1.222656 63.671875 1.128906 63.394531 1.128906 63.085938 C 1.132812 62.777344 1.222656 62.5 1.410156 62.253906 C 1.59375 62.007812 1.832031 61.84375 2.128906 61.753906 Z M 58.730469 21.128906 C 66.835938 24.101562 69.316406 29.253906 71.5 37.898438 C 71.582031 38.203125 71.746094 38.457031 71.996094 38.648438 C 72.246094 38.84375 72.53125 38.941406 72.847656 38.941406 C 73.167969 38.941406 73.449219 38.84375 73.703125 38.648438 C 73.953125 38.457031 74.117188 38.203125 74.195312 37.898438 C 76.382812 29.253906 78.863281 24.105469 86.96875 21.128906 C 87.242188 21.027344 87.464844 20.859375 87.632812 20.617188 C 87.800781 20.378906 87.882812 20.113281 87.882812 19.820312 C 87.882812 19.53125 87.800781 19.265625 87.632812 19.023438 C 87.464844 18.785156 87.242188 18.617188 86.96875 18.515625 C 78.863281 15.542969 76.378906 10.390625 74.195312 1.746094 C 74.117188 1.4375 73.953125 1.1875 73.703125 0.992188 C 73.449219 0.800781 73.167969 0.703125 72.847656 0.703125 C 72.53125 0.703125 72.246094 0.800781 71.996094 0.992188 C 71.746094 1.1875 71.582031 1.4375 71.5 1.746094 C 69.3125 10.390625 66.835938 15.542969 58.730469 18.515625 C 58.453125 18.617188 58.234375 18.785156 58.066406 19.023438 C 57.898438 19.265625 57.816406 19.53125 57.816406 19.820312 C 57.816406 20.113281 57.898438 20.378906 58.066406 20.617188 C 58.234375 20.859375 58.453125 21.027344 58.730469 21.128906 Z M 60.59375 95.90625 C 65.378906 97.929688 67.195312 101.195312 68.628906 106.335938 C 68.710938 106.640625 68.878906 106.886719 69.125 107.074219 C 69.375 107.265625 69.65625 107.359375 69.96875 107.359375 C 70.28125 107.359375 70.5625 107.265625 70.8125 107.074219 C 71.058594 106.886719 71.226562 106.640625 71.308594 106.335938 C 72.742188 101.195312 74.558594 97.929688 79.34375 95.90625 C 79.601562 95.796875 79.804688 95.625 79.957031 95.390625 C 80.113281 95.160156 80.191406 94.902344 80.191406 94.625 C 80.191406 94.347656 80.113281 94.089844 79.957031 93.859375 C 79.804688 93.625 79.601562 93.453125 79.34375 93.34375 C 74.5625 91.320312 72.742188 88.054688 71.308594 82.910156 C 71.226562 82.609375 71.058594 82.363281 70.8125 82.175781 C 70.5625 81.984375 70.28125 81.890625 69.96875 81.890625 C 69.65625 81.890625 69.375 81.984375 69.125 82.175781 C 68.878906 82.363281 68.710938 82.609375 68.628906 82.910156 C 67.195312 88.054688 65.378906 91.320312 60.59375 93.34375 C 60.339844 93.453125 60.132812 93.625 59.976562 93.855469 C 59.824219 94.089844 59.746094 94.34375 59.746094 94.625 C 59.746094 94.902344 59.824219 95.160156 59.976562 95.390625 C 60.128906 95.625 60.335938 95.796875 60.589844 95.90625 Z M 60.59375 95.90625 " fill-opacity="1" fill-rule="nonzero"/></g></g></g></g><g mask="url(#369311fc34)"><g transform="matrix(1, 0, 0, 1, 300, 42)"><g clip-path="url(#a58fefca0d)"><g clip-path="url(#e43d2c99be)"><path fill="#ffffff" d="M 1.710938 40.316406 C 14.0625 36.601562 16.742188 29.527344 19.761719 16.621094 C 19.808594 16.417969 19.914062 16.25 20.074219 16.121094 C 20.238281 15.992188 20.425781 15.929688 20.632812 15.929688 C 20.839844 15.929688 21.023438 15.992188 21.1875 16.121094 C 21.351562 16.25 21.457031 16.417969 21.503906 16.621094 C 24.519531 29.527344 27.199219 36.601562 39.554688 40.316406 C 39.742188 40.371094 39.894531 40.480469 40.011719 40.636719 C 40.132812 40.796875 40.191406 40.972656 40.191406 41.171875 C 40.191406 41.367188 40.132812 41.546875 40.011719 41.703125 C 39.894531 41.863281 39.742188 41.96875 39.554688 42.027344 C 27.199219 45.738281 24.515625 52.816406 21.5 65.722656 C 21.449219 65.925781 21.347656 66.089844 21.183594 66.21875 C 21.019531 66.347656 20.835938 66.414062 20.628906 66.414062 C 20.417969 66.414062 20.234375 66.351562 20.070312 66.21875 C 19.910156 66.089844 19.804688 65.925781 19.757812 65.722656 C 16.742188 52.816406 14.058594 45.738281 1.707031 42.027344 C 1.515625 41.972656 1.363281 41.863281 1.246094 41.703125 C 1.128906 41.546875 1.070312 41.367188 1.070312 41.167969 C 1.070312 40.972656 1.128906 40.792969 1.246094 40.636719 C 1.367188 40.476562 1.519531 40.371094 1.710938 40.316406 Z M 38.085938 14.203125 C 43.296875 16.113281 44.890625 19.425781 46.296875 24.980469 C 46.347656 25.179688 46.453125 25.339844 46.613281 25.464844 C 46.773438 25.589844 46.957031 25.652344 47.160156 25.652344 C 47.363281 25.652344 47.546875 25.589844 47.707031 25.464844 C 47.871094 25.339844 47.976562 25.179688 48.027344 24.980469 C 49.433594 19.425781 51.027344 16.117188 56.234375 14.203125 C 56.414062 14.140625 56.554688 14.03125 56.660156 13.875 C 56.769531 13.722656 56.824219 13.550781 56.824219 13.363281 C 56.824219 13.175781 56.769531 13.003906 56.660156 12.851562 C 56.554688 12.699219 56.414062 12.589844 56.234375 12.523438 C 51.027344 10.613281 49.429688 7.304688 48.027344 1.746094 C 47.976562 1.550781 47.871094 1.390625 47.707031 1.265625 C 47.546875 1.140625 47.363281 1.078125 47.160156 1.078125 C 46.957031 1.078125 46.773438 1.140625 46.613281 1.265625 C 46.453125 1.390625 46.347656 1.550781 46.296875 1.746094 C 44.890625 7.304688 43.296875 10.613281 38.085938 12.523438 C 37.910156 12.589844 37.769531 12.699219 37.660156 12.851562 C 37.550781 13.003906 37.5 13.175781 37.5 13.363281 C 37.5 13.550781 37.550781 13.722656 37.660156 13.875 C 37.769531 14.03125 37.910156 14.140625 38.085938 14.203125 Z M 39.285156 62.261719 C 42.359375 63.5625 43.527344 65.660156 44.449219 68.964844 C 44.503906 69.160156 44.609375 69.316406 44.769531 69.441406 C 44.929688 69.5625 45.109375 69.621094 45.308594 69.621094 C 45.511719 69.621094 45.691406 69.5625 45.851562 69.441406 C 46.011719 69.316406 46.117188 69.160156 46.171875 68.964844 C 47.089844 65.660156 48.261719 63.5625 51.335938 62.261719 C 51.699219 62.105469 51.878906 61.832031 51.878906 61.4375 C 51.878906 61.042969 51.699219 60.769531 51.335938 60.617188 C 48.261719 59.316406 47.089844 57.214844 46.171875 53.910156 C 46.117188 53.71875 46.011719 53.558594 45.851562 53.4375 C 45.691406 53.316406 45.511719 53.253906 45.308594 53.253906 C 45.109375 53.253906 44.929688 53.316406 44.769531 53.4375 C 44.609375 53.558594 44.503906 53.71875 44.449219 53.910156 C 43.527344 57.214844 42.359375 59.316406 39.285156 60.617188 C 38.921875 60.769531 38.742188 61.042969 38.742188 61.4375 C 38.738281 61.832031 38.921875 62.105469 39.28125 62.261719 Z M 39.285156 62.261719 " fill-opacity="1" fill-rule="nonzero"/></g></g></g></g><g mask="url(#762e4abd51)"><g transform="matrix(1, 0, 0, 1, 24, 27)"><g clip-path="url(#9c13aa6bcf)"><g clip-path="url(#0f7ede6969)"><path fill="#ffffff" d="M 9.402344 20.660156 C 9.371094 20.464844 9.355469 20.269531 9.359375 20.082031 C 9.359375 20.070312 9.359375 20.0625 9.359375 20.054688 C 9.367188 19.664062 9.367188 19.316406 9.363281 19.011719 C 9.355469 18.355469 9.339844 17.621094 9.320312 16.808594 L 9.320312 16.820312 C 9.246094 14.519531 9.160156 11.925781 9.058594 9.035156 L 9.058594 9.03125 C 9.035156 8.285156 9.015625 7.589844 9.003906 6.941406 C 8.957031 4.785156 8.957031 3.234375 8.992188 2.28125 C 9.039062 1.085938 10.046875 0.152344 11.242188 0.199219 C 12.4375 0.246094 13.367188 1.253906 13.320312 2.449219 C 13.285156 3.316406 13.289062 4.785156 13.332031 6.851562 C 13.347656 7.484375 13.363281 8.164062 13.386719 8.890625 L 13.386719 8.886719 C 13.488281 11.777344 13.574219 14.378906 13.648438 16.679688 C 13.648438 16.683594 13.648438 16.6875 13.648438 16.691406 C 13.667969 17.523438 13.683594 18.277344 13.695312 18.949219 C 13.699219 19.308594 13.699219 19.707031 13.6875 20.152344 L 13.6875 20.125 C 13.6875 20.066406 13.683594 20.015625 13.675781 19.964844 C 13.867188 21.144531 13.066406 22.257812 11.886719 22.449219 C 10.707031 22.640625 9.59375 21.839844 9.402344 20.660156 Z M 9.402344 20.660156 " fill-opacity="1" fill-rule="nonzero"/></g><g clip-path="url(#9945f49a0a)"><path fill="#ffffff" d="M 1.875 8.988281 C 2.070312 8.957031 2.261719 8.941406 2.453125 8.945312 C 2.460938 8.945312 2.46875 8.945312 2.480469 8.945312 C 2.871094 8.953125 3.21875 8.953125 3.523438 8.949219 C 4.179688 8.941406 4.914062 8.925781 5.726562 8.90625 L 5.714844 8.90625 C 8.015625 8.832031 10.609375 8.746094 13.496094 8.644531 L 13.503906 8.644531 C 14.246094 8.621094 14.945312 8.601562 15.59375 8.589844 C 17.746094 8.546875 19.300781 8.542969 20.253906 8.578125 C 21.449219 8.625 22.378906 9.632812 22.332031 10.828125 C 22.285156 12.023438 21.277344 12.953125 20.085938 12.90625 C 19.21875 12.871094 17.75 12.875 15.683594 12.917969 C 15.050781 12.933594 14.371094 12.949219 13.640625 12.972656 L 13.648438 12.972656 C 10.753906 13.074219 8.15625 13.160156 5.851562 13.234375 C 5.847656 13.234375 5.84375 13.234375 5.839844 13.234375 C 5.007812 13.253906 4.257812 13.273438 3.582031 13.28125 C 3.226562 13.285156 2.828125 13.285156 2.382812 13.273438 L 2.410156 13.273438 C 2.46875 13.273438 2.519531 13.269531 2.570312 13.261719 C 1.386719 13.453125 0.277344 12.652344 0.0859375 11.472656 C -0.105469 10.292969 0.695312 9.179688 1.875 8.988281 Z M 1.875 8.988281 " fill-opacity="1" fill-rule="nonzero"/></g></g></g></g><g mask="url(#a970cde753)"><g transform="matrix(1, 0, 0, 1, 333, 326)"><g clip-path="url(#e591dba5b2)"><g clip-path="url(#ca1aeb5d67)"><path fill="#ffffff" d="M 12.597656 0.484375 C 5.820312 0.484375 0.328125 5.972656 0.328125 12.753906 C 0.328125 19.53125 5.820312 25.023438 12.597656 25.023438 C 19.378906 25.023438 24.867188 19.53125 24.867188 12.753906 C 24.867188 5.972656 19.378906 0.484375 12.597656 0.484375 Z M 12.597656 22.570312 C 7.175781 22.570312 2.785156 18.175781 2.785156 12.753906 C 2.785156 7.332031 7.175781 2.9375 12.597656 2.9375 C 18.023438 2.9375 22.414062 7.332031 22.414062 12.753906 C 22.414062 18.175781 18.023438 22.570312 12.597656 22.570312 Z M 12.597656 22.570312 " fill-opacity="1" fill-rule="nonzero"/></g></g></g></g><g mask="url(#be4ef6f0ec)"><g transform="matrix(1, 0, 0, 1, 7, 305)"><g clip-path="url(#920d27129c)"><g clip-path="url(#7bd93e91b1)"><path fill="#ffffff" d="M 1.207031 50.371094 C 17.003906 45.625 20.433594 36.574219 24.292969 20.070312 C 24.351562 19.8125 24.484375 19.601562 24.695312 19.433594 C 24.902344 19.269531 25.140625 19.1875 25.40625 19.1875 C 25.671875 19.1875 25.90625 19.269531 26.117188 19.433594 C 26.324219 19.601562 26.457031 19.8125 26.519531 20.070312 C 30.375 36.574219 33.804688 45.625 49.601562 50.371094 C 49.84375 50.445312 50.039062 50.582031 50.191406 50.785156 C 50.339844 50.988281 50.414062 51.214844 50.417969 51.464844 C 50.414062 51.71875 50.339844 51.945312 50.191406 52.148438 C 50.039062 52.351562 49.84375 52.488281 49.601562 52.5625 C 33.804688 57.308594 30.371094 66.359375 26.511719 82.863281 C 26.453125 83.121094 26.316406 83.335938 26.109375 83.5 C 25.902344 83.664062 25.664062 83.746094 25.398438 83.746094 C 25.132812 83.746094 24.898438 83.664062 24.6875 83.5 C 24.480469 83.335938 24.347656 83.121094 24.285156 82.863281 C 20.429688 66.359375 17 57.308594 1.203125 52.5625 C 0.960938 52.488281 0.765625 52.351562 0.613281 52.148438 C 0.460938 51.945312 0.386719 51.71875 0.386719 51.464844 C 0.386719 51.210938 0.464844 50.984375 0.617188 50.78125 C 0.769531 50.578125 0.964844 50.441406 1.207031 50.371094 Z M 47.726562 16.980469 C 54.386719 19.425781 56.429688 23.660156 58.222656 30.761719 C 58.289062 31.015625 58.421875 31.222656 58.628906 31.382812 C 58.835938 31.542969 59.070312 31.621094 59.332031 31.621094 C 59.589844 31.621094 59.824219 31.542969 60.03125 31.382812 C 60.238281 31.222656 60.371094 31.015625 60.4375 30.761719 C 62.234375 23.660156 64.273438 19.425781 70.933594 16.980469 C 71.160156 16.898438 71.34375 16.757812 71.480469 16.5625 C 71.617188 16.367188 71.6875 16.148438 71.6875 15.90625 C 71.6875 15.667969 71.617188 15.449219 71.480469 15.253906 C 71.34375 15.054688 71.160156 14.917969 70.933594 14.832031 C 64.273438 12.390625 62.234375 8.15625 60.4375 1.050781 C 60.371094 0.800781 60.238281 0.59375 60.03125 0.433594 C 59.824219 0.273438 59.589844 0.195312 59.332031 0.195312 C 59.070312 0.195312 58.835938 0.273438 58.628906 0.433594 C 58.421875 0.59375 58.289062 0.800781 58.222656 1.050781 C 56.425781 8.15625 54.386719 12.390625 47.726562 14.832031 C 47.5 14.917969 47.320312 15.054688 47.179688 15.253906 C 47.042969 15.449219 46.972656 15.667969 46.972656 15.90625 C 46.972656 16.148438 47.042969 16.367188 47.179688 16.5625 C 47.320312 16.757812 47.5 16.898438 47.726562 16.980469 Z M 49.257812 78.4375 C 53.191406 80.101562 54.683594 82.785156 55.863281 87.011719 C 55.929688 87.257812 56.066406 87.460938 56.269531 87.617188 C 56.476562 87.773438 56.707031 87.851562 56.964844 87.851562 C 57.222656 87.851562 57.453125 87.773438 57.65625 87.617188 C 57.859375 87.460938 57.996094 87.257812 58.066406 87.011719 C 59.242188 82.785156 60.734375 80.101562 64.667969 78.4375 C 64.878906 78.347656 65.046875 78.207031 65.175781 78.015625 C 65.300781 77.824219 65.363281 77.613281 65.363281 77.386719 C 65.363281 77.15625 65.300781 76.945312 65.175781 76.753906 C 65.046875 76.5625 64.878906 76.421875 64.667969 76.332031 C 60.738281 74.667969 59.242188 71.984375 58.066406 67.757812 C 57.996094 67.511719 57.859375 67.308594 57.65625 67.152344 C 57.453125 66.996094 57.222656 66.921875 56.964844 66.921875 C 56.707031 66.921875 56.476562 66.996094 56.269531 67.152344 C 56.066406 67.308594 55.929688 67.511719 55.863281 67.757812 C 54.683594 71.984375 53.191406 74.667969 49.257812 76.332031 C 49.046875 76.421875 48.878906 76.5625 48.753906 76.753906 C 48.625 76.945312 48.5625 77.15625 48.5625 77.382812 C 48.5625 77.613281 48.625 77.824219 48.75 78.015625 C 48.875 78.207031 49.046875 78.347656 49.257812 78.4375 Z M 49.257812 78.4375 " fill-opacity="1" fill-rule="nonzero"/></g></g></g></g><g clip-path="url(#f12022777a)"><path fill="#ffffff" d="M 348.886719 91.136719 L 145.578125 91.136719 C 145.273438 89.945312 144.921875 88.769531 144.523438 87.605469 C 144.121094 86.445312 143.675781 85.300781 143.179688 84.175781 C 142.683594 83.050781 142.144531 81.949219 141.558594 80.867188 C 140.972656 79.789062 140.34375 78.734375 139.667969 77.703125 C 138.996094 76.675781 138.28125 75.679688 137.527344 74.707031 C 136.769531 73.738281 135.976562 72.804688 135.144531 71.898438 C 134.308594 70.996094 133.441406 70.128906 132.535156 69.296875 C 131.632812 68.464844 130.695312 67.671875 129.722656 66.917969 C 128.753906 66.164062 127.753906 65.449219 126.722656 64.777344 C 125.695312 64.105469 124.640625 63.480469 123.558594 62.894531 C 122.476562 62.308594 121.375 61.769531 120.246094 61.277344 C 119.121094 60.785156 117.976562 60.339844 116.816406 59.941406 C 115.652344 59.539062 114.476562 59.191406 113.285156 58.890625 C 112.09375 58.585938 110.890625 58.335938 109.679688 58.132812 C 108.464844 57.933594 107.246094 57.78125 106.023438 57.679688 C 104.796875 57.578125 103.570312 57.527344 102.34375 57.527344 C 101.113281 57.527344 99.886719 57.578125 98.660156 57.679688 C 97.4375 57.78125 96.21875 57.933594 95.007812 58.132812 C 93.792969 58.335938 92.589844 58.585938 91.398438 58.890625 C 90.207031 59.191406 89.03125 59.539062 87.871094 59.941406 C 86.707031 60.339844 85.5625 60.785156 84.4375 61.277344 C 83.3125 61.769531 82.207031 62.308594 81.125 62.894531 C 80.046875 63.480469 78.992188 64.105469 77.960938 64.777344 C 76.933594 65.449219 75.933594 66.164062 74.960938 66.917969 C 73.992188 67.671875 73.054688 68.464844 72.148438 69.296875 C 71.246094 70.128906 70.375 70.996094 69.542969 71.898438 C 68.710938 72.804688 67.914062 73.738281 67.160156 74.707031 C 66.402344 75.679688 65.6875 76.675781 65.015625 77.703125 C 64.34375 78.734375 63.714844 79.789062 63.128906 80.867188 C 62.542969 81.949219 62 83.050781 61.503906 84.175781 C 61.011719 85.300781 60.5625 86.445312 60.164062 87.605469 C 59.761719 88.769531 59.410156 89.945312 59.109375 91.136719 L 35.101562 91.136719 C 34.367188 91.136719 33.636719 91.207031 32.917969 91.351562 C 32.195312 91.496094 31.496094 91.707031 30.816406 91.988281 C 30.136719 92.269531 29.488281 92.617188 28.878906 93.023438 C 28.265625 93.433594 27.699219 93.898438 27.179688 94.417969 C 26.660156 94.9375 26.195312 95.503906 25.785156 96.117188 C 25.375 96.726562 25.03125 97.375 24.75 98.054688 C 24.46875 98.734375 24.253906 99.433594 24.113281 100.15625 C 23.96875 100.878906 23.898438 101.605469 23.898438 102.34375 C 23.898438 103.078125 23.96875 103.808594 24.113281 104.527344 C 24.253906 105.25 24.46875 105.949219 24.75 106.628906 C 25.03125 107.3125 25.375 107.957031 25.785156 108.566406 C 26.195312 109.179688 26.660156 109.746094 27.179688 110.265625 C 27.699219 110.785156 28.265625 111.25 28.878906 111.660156 C 29.488281 112.070312 30.136719 112.414062 30.816406 112.695312 C 31.496094 112.976562 32.195312 113.191406 32.917969 113.332031 C 33.636719 113.476562 34.367188 113.546875 35.101562 113.546875 L 59.109375 113.546875 C 59.410156 114.738281 59.761719 115.917969 60.164062 117.078125 C 60.5625 118.242188 61.011719 119.382812 61.503906 120.507812 C 62 121.632812 62.542969 122.738281 63.128906 123.816406 C 63.714844 124.898438 64.34375 125.953125 65.015625 126.980469 C 65.6875 128.007812 66.402344 129.007812 67.160156 129.976562 C 67.914062 130.945312 68.710938 131.882812 69.542969 132.785156 C 70.375 133.6875 71.246094 134.554688 72.148438 135.386719 C 73.054688 136.21875 73.992188 137.011719 74.960938 137.765625 C 75.933594 138.523438 76.933594 139.234375 77.960938 139.90625 C 78.992188 140.578125 80.046875 141.207031 81.125 141.789062 C 82.207031 142.375 83.3125 142.914062 84.4375 143.40625 C 85.5625 143.898438 86.707031 144.347656 87.871094 144.746094 C 89.03125 145.144531 90.207031 145.492188 91.398438 145.796875 C 92.589844 146.097656 93.792969 146.347656 95.007812 146.550781 C 96.21875 146.753906 97.4375 146.90625 98.660156 147.003906 C 99.886719 147.105469 101.113281 147.15625 102.34375 147.15625 C 103.570312 147.15625 104.796875 147.105469 106.023438 147.003906 C 107.246094 146.90625 108.464844 146.753906 109.679688 146.550781 C 110.890625 146.347656 112.09375 146.097656 113.285156 145.796875 C 114.476562 145.492188 115.652344 145.144531 116.816406 144.746094 C 117.976562 144.347656 119.121094 143.898438 120.246094 143.40625 C 121.375 142.914062 122.476562 142.375 123.558594 141.789062 C 124.640625 141.207031 125.695312 140.578125 126.722656 139.90625 C 127.753906 139.234375 128.753906 138.523438 129.722656 137.765625 C 130.695312 137.011719 131.632812 136.21875 132.535156 135.386719 C 133.441406 134.554688 134.308594 133.6875 135.144531 132.785156 C 135.976562 131.882812 136.769531 130.945312 137.527344 129.976562 C 138.28125 129.007812 138.996094 128.007812 139.667969 126.980469 C 140.34375 125.953125 140.972656 124.898438 141.558594 123.816406 C 142.144531 122.738281 142.683594 121.632812 143.179688 120.507812 C 143.675781 119.382812 144.121094 118.242188 144.523438 117.078125 C 144.921875 115.917969 145.273438 114.738281 145.578125 113.546875 L 348.886719 113.546875 C 349.621094 113.546875 350.351562 113.476562 351.074219 113.332031 C 351.792969 113.191406 352.496094 112.976562 353.175781 112.695312 C 353.855469 112.414062 354.5 112.070312 355.113281 111.660156 C 355.722656 111.25 356.289062 110.785156 356.8125 110.265625 C 357.332031 109.746094 357.796875 109.179688 358.203125 108.566406 C 358.613281 107.957031 358.957031 107.3125 359.238281 106.628906 C 359.519531 105.949219 359.734375 105.25 359.878906 104.527344 C 360.019531 103.808594 360.09375 103.078125 360.09375 102.34375 C 360.09375 101.605469 360.019531 100.878906 359.878906 100.15625 C 359.734375 99.433594 359.519531 98.734375 359.238281 98.054688 C 358.957031 97.375 358.613281 96.726562 358.203125 96.117188 C 357.796875 95.503906 357.332031 94.9375 356.8125 94.417969 C 356.289062 93.898438 355.722656 93.433594 355.113281 93.023438 C 354.5 92.617188 353.855469 92.269531 353.175781 91.988281 C 352.496094 91.707031 351.792969 91.496094 351.074219 91.351562 C 350.351562 91.207031 349.621094 91.136719 348.886719 91.136719 Z M 102.34375 124.753906 C 101.609375 124.753906 100.875 124.71875 100.144531 124.648438 C 99.414062 124.574219 98.691406 124.46875 97.96875 124.324219 C 97.25 124.179688 96.539062 124.003906 95.835938 123.789062 C 95.132812 123.578125 94.445312 123.332031 93.765625 123.050781 C 93.085938 122.769531 92.425781 122.453125 91.777344 122.109375 C 91.128906 121.761719 90.5 121.386719 89.890625 120.976562 C 89.28125 120.570312 88.691406 120.132812 88.125 119.667969 C 87.554688 119.203125 87.011719 118.710938 86.492188 118.191406 C 85.976562 117.671875 85.484375 117.128906 85.015625 116.5625 C 84.550781 115.992188 84.113281 115.40625 83.707031 114.792969 C 83.296875 114.183594 82.921875 113.554688 82.574219 112.90625 C 82.230469 112.261719 81.917969 111.597656 81.636719 110.917969 C 81.355469 110.242188 81.109375 109.550781 80.894531 108.847656 C 80.679688 108.144531 80.503906 107.433594 80.359375 106.714844 C 80.214844 105.996094 80.109375 105.269531 80.039062 104.539062 C 79.964844 103.808594 79.929688 103.078125 79.929688 102.34375 C 79.929688 101.609375 79.964844 100.875 80.039062 100.144531 C 80.109375 99.414062 80.214844 98.691406 80.359375 97.96875 C 80.503906 97.25 80.679688 96.539062 80.894531 95.835938 C 81.109375 95.132812 81.355469 94.441406 81.636719 93.765625 C 81.917969 93.085938 82.230469 92.425781 82.574219 91.777344 C 82.921875 91.128906 83.296875 90.5 83.707031 89.890625 C 84.113281 89.28125 84.550781 88.691406 85.015625 88.125 C 85.484375 87.554688 85.976562 87.011719 86.492188 86.492188 C 87.011719 85.976562 87.554688 85.480469 88.125 85.015625 C 88.691406 84.550781 89.28125 84.113281 89.890625 83.707031 C 90.5 83.296875 91.128906 82.921875 91.777344 82.574219 C 92.425781 82.230469 93.085938 81.917969 93.765625 81.636719 C 94.445312 81.355469 95.132812 81.105469 95.835938 80.894531 C 96.539062 80.679688 97.25 80.503906 97.96875 80.359375 C 98.691406 80.214844 99.414062 80.109375 100.144531 80.039062 C 100.875 79.964844 101.609375 79.929688 102.34375 79.929688 C 103.078125 79.929688 103.808594 79.964844 104.539062 80.039062 C 105.269531 80.109375 105.996094 80.214844 106.714844 80.359375 C 107.433594 80.503906 108.144531 80.679688 108.847656 80.894531 C 109.550781 81.105469 110.242188 81.355469 110.917969 81.636719 C 111.597656 81.917969 112.261719 82.230469 112.90625 82.574219 C 113.554688 82.921875 114.183594 83.296875 114.792969 83.707031 C 115.40625 84.113281 115.992188 84.550781 116.5625 85.015625 C 117.128906 85.480469 117.671875 85.976562 118.191406 86.492188 C 118.710938 87.011719 119.203125 87.554688 119.667969 88.125 C 120.132812 88.691406 120.570312 89.28125 120.976562 89.890625 C 121.386719 90.5 121.761719 91.128906 122.109375 91.777344 C 122.453125 92.425781 122.769531 93.085938 123.050781 93.765625 C 123.332031 94.441406 123.578125 95.132812 123.789062 95.835938 C 124.003906 96.539062 124.179688 97.25 124.324219 97.96875 C 124.46875 98.691406 124.574219 99.414062 124.648438 100.144531 C 124.71875 100.875 124.753906 101.609375 124.753906 102.34375 C 124.753906 103.078125 124.71875 103.808594 124.648438 104.539062 C 124.574219 105.269531 124.46875 105.996094 124.324219 106.714844 C 124.179688 107.433594 124.003906 108.144531 123.789062 108.847656 C 123.578125 109.550781 123.332031 110.242188 123.050781 110.917969 C 122.769531 111.597656 122.453125 112.261719 122.109375 112.90625 C 121.761719 113.554688 121.386719 114.183594 120.976562 114.792969 C 120.570312 115.40625 120.132812 115.992188 119.667969 116.5625 C 119.203125 117.128906 118.710938 117.671875 118.191406 118.191406 C 117.671875 118.710938 117.128906 119.203125 116.5625 119.667969 C 115.992188 120.132812 115.40625 120.570312 114.792969 120.976562 C 114.183594 121.386719 113.554688 121.761719 112.90625 122.109375 C 112.261719 122.453125 111.597656 122.769531 110.917969 123.050781 C 110.242188 123.332031 109.550781 123.578125 108.847656 123.789062 C 108.144531 124.003906 107.433594 124.179688 106.714844 124.324219 C 105.996094 124.46875 105.269531 124.574219 104.539062 124.648438 C 103.808594 124.71875 103.078125 124.753906 102.34375 124.753906 Z M 102.34375 124.753906 " fill-opacity="1" fill-rule="nonzero"/></g><g clip-path="url(#3fa96d579b)"><path fill="#ffffff" d="M 348.886719 270.441406 L 201.609375 270.441406 C 201.308594 269.25 200.953125 268.074219 200.554688 266.910156 C 200.15625 265.75 199.707031 264.605469 199.210938 263.480469 C 198.71875 262.355469 198.175781 261.253906 197.589844 260.171875 C 197.003906 259.09375 196.375 258.039062 195.703125 257.007812 C 195.027344 255.980469 194.3125 254.984375 193.558594 254.011719 C 192.804688 253.042969 192.007812 252.109375 191.175781 251.203125 C 190.34375 250.300781 189.472656 249.433594 188.570312 248.601562 C 187.664062 247.769531 186.726562 246.976562 185.757812 246.222656 C 184.785156 245.46875 183.785156 244.753906 182.757812 244.082031 C 181.726562 243.410156 180.671875 242.78125 179.589844 242.199219 C 178.507812 241.613281 177.40625 241.074219 176.28125 240.582031 C 175.15625 240.089844 174.011719 239.644531 172.847656 239.246094 C 171.6875 238.84375 170.507812 238.496094 169.316406 238.195312 C 168.125 237.890625 166.925781 237.640625 165.710938 237.4375 C 164.5 237.238281 163.28125 237.085938 162.054688 236.984375 C 160.832031 236.882812 159.605469 236.832031 158.375 236.832031 C 157.144531 236.832031 155.917969 236.882812 154.695312 236.984375 C 153.46875 237.085938 152.25 237.238281 151.039062 237.4375 C 149.828125 237.640625 148.625 237.890625 147.433594 238.195312 C 146.242188 238.496094 145.066406 238.84375 143.902344 239.246094 C 142.738281 239.644531 141.59375 240.089844 140.46875 240.582031 C 139.34375 241.074219 138.242188 241.613281 137.160156 242.199219 C 136.078125 242.78125 135.023438 243.410156 133.992188 244.082031 C 132.964844 244.753906 131.964844 245.46875 130.996094 246.222656 C 130.023438 246.976562 129.085938 247.769531 128.183594 248.601562 C 127.277344 249.433594 126.40625 250.300781 125.574219 251.203125 C 124.742188 252.109375 123.949219 253.042969 123.191406 254.011719 C 122.4375 254.984375 121.722656 255.980469 121.046875 257.007812 C 120.375 258.039062 119.746094 259.09375 119.160156 260.171875 C 118.574219 261.253906 118.035156 262.355469 117.539062 263.480469 C 117.042969 264.605469 116.597656 265.75 116.195312 266.910156 C 115.796875 268.074219 115.445312 269.25 115.140625 270.441406 L 35.101562 270.441406 C 34.367188 270.441406 33.636719 270.511719 32.917969 270.65625 C 32.195312 270.800781 31.496094 271.011719 30.816406 271.292969 C 30.136719 271.574219 29.488281 271.921875 28.878906 272.328125 C 28.265625 272.738281 27.699219 273.203125 27.179688 273.722656 C 26.660156 274.242188 26.195312 274.808594 25.785156 275.421875 C 25.375 276.03125 25.03125 276.679688 24.75 277.359375 C 24.46875 278.039062 24.253906 278.738281 24.113281 279.460938 C 23.96875 280.183594 23.898438 280.910156 23.898438 281.648438 C 23.898438 282.382812 23.96875 283.113281 24.113281 283.832031 C 24.253906 284.554688 24.46875 285.253906 24.75 285.933594 C 25.03125 286.617188 25.375 287.261719 25.785156 287.871094 C 26.195312 288.484375 26.660156 289.050781 27.179688 289.570312 C 27.699219 290.089844 28.265625 290.554688 28.878906 290.964844 C 29.488281 291.375 30.136719 291.71875 30.816406 292 C 31.496094 292.28125 32.195312 292.496094 32.917969 292.636719 C 33.636719 292.78125 34.367188 292.851562 35.101562 292.851562 L 115.140625 292.851562 C 115.445312 294.042969 115.796875 295.222656 116.195312 296.382812 C 116.597656 297.546875 117.042969 298.6875 117.539062 299.8125 C 118.035156 300.9375 118.574219 302.042969 119.160156 303.121094 C 119.746094 304.203125 120.375 305.257812 121.046875 306.285156 C 121.722656 307.3125 122.4375 308.3125 123.191406 309.28125 C 123.949219 310.25 124.742188 311.1875 125.574219 312.089844 C 126.40625 312.992188 127.277344 313.859375 128.183594 314.691406 C 129.085938 315.523438 130.023438 316.316406 130.996094 317.070312 C 131.964844 317.828125 132.964844 318.539062 133.992188 319.210938 C 135.023438 319.882812 136.078125 320.511719 137.160156 321.09375 C 138.242188 321.679688 139.34375 322.21875 140.46875 322.710938 C 141.59375 323.203125 142.738281 323.652344 143.902344 324.050781 C 145.066406 324.449219 146.242188 324.796875 147.433594 325.101562 C 148.625 325.402344 149.828125 325.652344 151.039062 325.855469 C 152.25 326.058594 153.46875 326.210938 154.695312 326.308594 C 155.917969 326.410156 157.144531 326.460938 158.375 326.460938 C 159.605469 326.460938 160.832031 326.410156 162.054688 326.308594 C 163.28125 326.210938 164.5 326.058594 165.710938 325.855469 C 166.925781 325.652344 168.125 325.402344 169.316406 325.101562 C 170.507812 324.796875 171.6875 324.449219 172.847656 324.050781 C 174.011719 323.652344 175.15625 323.203125 176.28125 322.710938 C 177.40625 322.21875 178.507812 321.679688 179.589844 321.09375 C 180.671875 320.511719 181.726562 319.882812 182.757812 319.210938 C 183.785156 318.539062 184.785156 317.828125 185.757812 317.070312 C 186.726562 316.316406 187.664062 315.523438 188.570312 314.691406 C 189.472656 313.859375 190.34375 312.992188 191.175781 312.089844 C 192.007812 311.1875 192.804688 310.25 193.558594 309.28125 C 194.3125 308.3125 195.027344 307.3125 195.703125 306.285156 C 196.375 305.257812 197.003906 304.203125 197.589844 303.121094 C 198.175781 302.042969 198.71875 300.9375 199.210938 299.8125 C 199.707031 298.6875 200.15625 297.546875 200.554688 296.382812 C 200.953125 295.222656 201.308594 294.042969 201.609375 292.851562 L 348.886719 292.851562 C 349.621094 292.851562 350.351562 292.78125 351.074219 292.636719 C 351.792969 292.496094 352.496094 292.28125 353.175781 292 C 353.855469 291.71875 354.5 291.375 355.113281 290.964844 C 355.722656 290.554688 356.289062 290.089844 356.8125 289.570312 C 357.332031 289.050781 357.796875 288.484375 358.203125 287.871094 C 358.613281 287.261719 358.957031 286.617188 359.238281 285.933594 C 359.519531 285.253906 359.734375 284.554688 359.878906 283.832031 C 360.019531 283.113281 360.09375 282.382812 360.09375 281.648438 C 360.09375 280.910156 360.019531 280.183594 359.878906 279.460938 C 359.734375 278.738281 359.519531 278.039062 359.238281 277.359375 C 358.957031 276.679688 358.613281 276.03125 358.203125 275.421875 C 357.796875 274.808594 357.332031 274.242188 356.8125 273.722656 C 356.289062 273.203125 355.722656 272.738281 355.113281 272.328125 C 354.5 271.921875 353.855469 271.574219 353.175781 271.292969 C 352.496094 271.011719 351.792969 270.800781 351.074219 270.65625 C 350.351562 270.511719 349.621094 270.441406 348.886719 270.441406 Z M 158.375 304.058594 C 157.640625 304.058594 156.910156 304.023438 156.179688 303.953125 C 155.449219 303.878906 154.722656 303.773438 154.003906 303.628906 C 153.28125 303.484375 152.570312 303.308594 151.867188 303.09375 C 151.167969 302.882812 150.476562 302.636719 149.796875 302.355469 C 149.121094 302.074219 148.457031 301.757812 147.808594 301.414062 C 147.164062 301.066406 146.535156 300.691406 145.921875 300.28125 C 145.3125 299.875 144.722656 299.4375 144.15625 298.972656 C 143.589844 298.507812 143.046875 298.015625 142.527344 297.496094 C 142.007812 296.976562 141.515625 296.433594 141.050781 295.867188 C 140.582031 295.296875 140.148438 294.710938 139.738281 294.097656 C 139.332031 293.488281 138.953125 292.859375 138.609375 292.210938 C 138.261719 291.566406 137.949219 290.902344 137.667969 290.222656 C 137.386719 289.546875 137.140625 288.855469 136.925781 288.152344 C 136.714844 287.449219 136.535156 286.738281 136.394531 286.019531 C 136.25 285.300781 136.140625 284.574219 136.070312 283.84375 C 135.996094 283.113281 135.960938 282.382812 135.960938 281.648438 C 135.960938 280.914062 135.996094 280.179688 136.070312 279.449219 C 136.140625 278.71875 136.25 277.996094 136.394531 277.273438 C 136.535156 276.554688 136.714844 275.84375 136.925781 275.140625 C 137.140625 274.4375 137.386719 273.746094 137.667969 273.070312 C 137.949219 272.390625 138.261719 271.730469 138.609375 271.082031 C 138.953125 270.433594 139.332031 269.804688 139.738281 269.195312 C 140.148438 268.585938 140.582031 267.996094 141.050781 267.429688 C 141.515625 266.859375 142.007812 266.316406 142.527344 265.796875 C 143.046875 265.28125 143.589844 264.789062 144.15625 264.320312 C 144.722656 263.855469 145.3125 263.417969 145.921875 263.011719 C 146.535156 262.601562 147.164062 262.226562 147.808594 261.878906 C 148.457031 261.535156 149.121094 261.222656 149.796875 260.941406 C 150.476562 260.660156 151.167969 260.410156 151.867188 260.199219 C 152.570312 259.984375 153.28125 259.808594 154.003906 259.664062 C 154.722656 259.519531 155.449219 259.414062 156.179688 259.34375 C 156.910156 259.269531 157.640625 259.234375 158.375 259.234375 C 159.109375 259.234375 159.839844 259.269531 160.570312 259.34375 C 161.300781 259.414062 162.027344 259.519531 162.746094 259.664062 C 163.46875 259.808594 164.179688 259.984375 164.882812 260.199219 C 165.582031 260.410156 166.273438 260.660156 166.953125 260.941406 C 167.628906 261.222656 168.292969 261.535156 168.941406 261.878906 C 169.589844 262.226562 170.21875 262.601562 170.828125 263.011719 C 171.4375 263.417969 172.027344 263.855469 172.59375 264.320312 C 173.160156 264.789062 173.703125 265.28125 174.222656 265.796875 C 174.742188 266.316406 175.234375 266.859375 175.699219 267.429688 C 176.167969 267.996094 176.601562 268.585938 177.011719 269.195312 C 177.417969 269.804688 177.796875 270.433594 178.140625 271.082031 C 178.488281 271.730469 178.800781 272.390625 179.082031 273.070312 C 179.363281 273.746094 179.609375 274.4375 179.824219 275.140625 C 180.035156 275.84375 180.214844 276.554688 180.359375 277.273438 C 180.5 277.996094 180.609375 278.71875 180.679688 279.449219 C 180.753906 280.179688 180.789062 280.914062 180.789062 281.648438 C 180.789062 282.382812 180.753906 283.113281 180.679688 283.84375 C 180.609375 284.574219 180.5 285.300781 180.359375 286.019531 C 180.214844 286.738281 180.035156 287.449219 179.824219 288.152344 C 179.609375 288.855469 179.363281 289.546875 179.082031 290.222656 C 178.800781 290.902344 178.488281 291.566406 178.140625 292.210938 C 177.796875 292.859375 177.417969 293.488281 177.011719 294.097656 C 176.601562 294.710938 176.167969 295.296875 175.699219 295.867188 C 175.234375 296.433594 174.742188 296.976562 174.222656 297.496094 C 173.703125 298.015625 173.160156 298.507812 172.59375 298.972656 C 172.027344 299.4375 171.4375 299.875 170.828125 300.28125 C 170.21875 300.691406 169.589844 301.066406 168.941406 301.414062 C 168.292969 301.757812 167.628906 302.074219 166.953125 302.355469 C 166.273438 302.636719 165.582031 302.882812 164.882812 303.09375 C 164.179688 303.308594 163.46875 303.484375 162.746094 303.628906 C 162.027344 303.773438 161.300781 303.878906 160.570312 303.953125 C 159.839844 304.023438 159.109375 304.058594 158.375 304.058594 Z M 158.375 304.058594 " fill-opacity="1" fill-rule="nonzero"/></g><g clip-path="url(#6e2ac5c436)"><path fill="#ffffff" d="M 348.886719 180.789062 L 336.089844 180.789062 C 335.785156 179.597656 335.433594 178.421875 335.03125 177.257812 C 334.632812 176.097656 334.183594 174.953125 333.691406 173.828125 C 333.195312 172.703125 332.65625 171.601562 332.070312 170.519531 C 331.484375 169.441406 330.851562 168.386719 330.179688 167.355469 C 329.507812 166.328125 328.792969 165.332031 328.035156 164.359375 C 327.28125 163.390625 326.488281 162.457031 325.652344 161.550781 C 324.820312 160.648438 323.953125 159.78125 323.046875 158.949219 C 322.140625 158.117188 321.203125 157.324219 320.234375 156.570312 C 319.265625 155.816406 318.265625 155.101562 317.234375 154.429688 C 316.207031 153.757812 315.152344 153.132812 314.070312 152.546875 C 312.988281 151.960938 311.886719 151.421875 310.757812 150.929688 C 309.632812 150.4375 308.488281 149.992188 307.328125 149.59375 C 306.164062 149.191406 304.988281 148.84375 303.796875 148.542969 C 302.605469 148.238281 301.402344 147.988281 300.191406 147.785156 C 298.976562 147.585938 297.757812 147.433594 296.535156 147.332031 C 295.308594 147.230469 294.082031 147.179688 292.855469 147.179688 C 291.625 147.179688 290.398438 147.230469 289.171875 147.332031 C 287.949219 147.433594 286.730469 147.585938 285.515625 147.785156 C 284.304688 147.988281 283.101562 148.238281 281.910156 148.542969 C 280.71875 148.84375 279.542969 149.191406 278.378906 149.59375 C 277.21875 149.992188 276.074219 150.4375 274.949219 150.929688 C 273.824219 151.421875 272.71875 151.960938 271.636719 152.546875 C 270.558594 153.132812 269.5 153.757812 268.472656 154.429688 C 267.441406 155.101562 266.441406 155.816406 265.472656 156.570312 C 264.503906 157.324219 263.566406 158.117188 262.660156 158.949219 C 261.753906 159.78125 260.886719 160.648438 260.054688 161.550781 C 259.21875 162.457031 258.425781 163.390625 257.671875 164.359375 C 256.914062 165.332031 256.199219 166.328125 255.527344 167.355469 C 254.855469 168.386719 254.222656 169.441406 253.636719 170.519531 C 253.050781 171.601562 252.511719 172.703125 252.015625 173.828125 C 251.523438 174.953125 251.074219 176.097656 250.675781 177.257812 C 250.273438 178.421875 249.921875 179.597656 249.617188 180.789062 L 35.101562 180.789062 C 34.367188 180.789062 33.636719 180.859375 32.917969 181.003906 C 32.195312 181.148438 31.496094 181.359375 30.816406 181.640625 C 30.136719 181.921875 29.488281 182.269531 28.878906 182.675781 C 28.265625 183.085938 27.699219 183.550781 27.179688 184.070312 C 26.660156 184.589844 26.195312 185.15625 25.785156 185.769531 C 25.375 186.378906 25.03125 187.027344 24.75 187.707031 C 24.46875 188.386719 24.253906 189.085938 24.113281 189.808594 C 23.96875 190.53125 23.898438 191.257812 23.898438 191.996094 C 23.898438 192.730469 23.96875 193.460938 24.113281 194.179688 C 24.253906 194.902344 24.46875 195.601562 24.75 196.28125 C 25.03125 196.964844 25.375 197.609375 25.785156 198.21875 C 26.195312 198.832031 26.660156 199.398438 27.179688 199.917969 C 27.699219 200.4375 28.265625 200.902344 28.878906 201.3125 C 29.488281 201.722656 30.136719 202.066406 30.816406 202.347656 C 31.496094 202.628906 32.195312 202.84375 32.917969 202.984375 C 33.636719 203.128906 34.367188 203.199219 35.101562 203.199219 L 249.617188 203.199219 C 249.921875 204.390625 250.273438 205.570312 250.675781 206.730469 C 251.074219 207.894531 251.523438 209.035156 252.015625 210.160156 C 252.511719 211.285156 253.050781 212.390625 253.636719 213.46875 C 254.222656 214.550781 254.855469 215.605469 255.527344 216.632812 C 256.199219 217.660156 256.914062 218.660156 257.671875 219.628906 C 258.425781 220.597656 259.21875 221.535156 260.054688 222.4375 C 260.886719 223.339844 261.753906 224.207031 262.660156 225.039062 C 263.566406 225.871094 264.503906 226.664062 265.472656 227.417969 C 266.441406 228.175781 267.441406 228.886719 268.472656 229.558594 C 269.5 230.230469 270.558594 230.859375 271.636719 231.441406 C 272.71875 232.027344 273.824219 232.566406 274.949219 233.058594 C 276.074219 233.550781 277.21875 234 278.378906 234.398438 C 279.542969 234.796875 280.71875 235.144531 281.910156 235.449219 C 283.101562 235.75 284.304688 236 285.515625 236.203125 C 286.730469 236.40625 287.949219 236.558594 289.171875 236.65625 C 290.398438 236.757812 291.625 236.808594 292.855469 236.808594 C 294.082031 236.808594 295.308594 236.757812 296.535156 236.65625 C 297.757812 236.558594 298.976562 236.40625 300.191406 236.203125 C 301.402344 236 302.605469 235.75 303.796875 235.449219 C 304.988281 235.144531 306.164062 234.796875 307.328125 234.398438 C 308.488281 234 309.632812 233.550781 310.757812 233.058594 C 311.886719 232.566406 312.988281 232.027344 314.070312 231.441406 C 315.152344 230.859375 316.207031 230.230469 317.234375 229.558594 C 318.265625 228.886719 319.265625 228.175781 320.234375 227.417969 C 321.203125 226.664062 322.140625 225.871094 323.046875 225.039062 C 323.953125 224.207031 324.820312 223.339844 325.652344 222.4375 C 326.488281 221.535156 327.28125 220.597656 328.035156 219.628906 C 328.792969 218.660156 329.507812 217.660156 330.179688 216.632812 C 330.851562 215.605469 331.484375 214.550781 332.070312 213.46875 C 332.65625 212.390625 333.195312 211.285156 333.691406 210.160156 C 334.183594 209.035156 334.632812 207.894531 335.03125 206.730469 C 335.433594 205.570312 335.785156 204.390625 336.089844 203.199219 L 348.886719 203.199219 C 349.621094 203.199219 350.351562 203.128906 351.074219 202.984375 C 351.792969 202.84375 352.496094 202.628906 353.175781 202.347656 C 353.855469 202.066406 354.5 201.722656 355.113281 201.3125 C 355.722656 200.902344 356.289062 200.4375 356.8125 199.917969 C 357.332031 199.398438 357.796875 198.832031 358.203125 198.21875 C 358.613281 197.609375 358.957031 196.964844 359.238281 196.28125 C 359.519531 195.601562 359.734375 194.902344 359.878906 194.179688 C 360.019531 193.460938 360.09375 192.730469 360.09375 191.996094 C 360.09375 191.257812 360.019531 190.53125 359.878906 189.808594 C 359.734375 189.085938 359.519531 188.386719 359.238281 187.707031 C 358.957031 187.027344 358.613281 186.378906 358.203125 185.769531 C 357.796875 185.15625 357.332031 184.589844 356.8125 184.070312 C 356.289062 183.550781 355.722656 183.085938 355.113281 182.675781 C 354.5 182.269531 353.855469 181.921875 353.175781 181.640625 C 352.496094 181.359375 351.792969 181.148438 351.074219 181.003906 C 350.351562 180.859375 349.621094 180.789062 348.886719 180.789062 Z M 292.855469 214.40625 C 292.121094 214.40625 291.386719 214.371094 290.65625 214.300781 C 289.925781 214.226562 289.199219 214.121094 288.480469 213.976562 C 287.761719 213.832031 287.050781 213.65625 286.347656 213.441406 C 285.644531 213.230469 284.953125 212.984375 284.277344 212.703125 C 283.597656 212.421875 282.933594 212.105469 282.289062 211.761719 C 281.640625 211.414062 281.011719 211.039062 280.402344 210.628906 C 279.792969 210.222656 279.203125 209.785156 278.636719 209.320312 C 278.066406 208.855469 277.523438 208.363281 277.003906 207.84375 C 276.484375 207.324219 275.992188 206.78125 275.527344 206.214844 C 275.0625 205.644531 274.625 205.058594 274.21875 204.445312 C 273.808594 203.835938 273.433594 203.207031 273.085938 202.558594 C 272.742188 201.914062 272.425781 201.25 272.148438 200.570312 C 271.867188 199.894531 271.617188 199.203125 271.40625 198.5 C 271.191406 197.796875 271.015625 197.085938 270.871094 196.367188 C 270.726562 195.648438 270.621094 194.921875 270.546875 194.191406 C 270.476562 193.460938 270.441406 192.730469 270.441406 191.996094 C 270.441406 191.261719 270.476562 190.527344 270.546875 189.796875 C 270.621094 189.066406 270.726562 188.34375 270.871094 187.621094 C 271.015625 186.902344 271.191406 186.191406 271.40625 185.488281 C 271.617188 184.785156 271.867188 184.09375 272.148438 183.417969 C 272.425781 182.738281 272.742188 182.078125 273.085938 181.429688 C 273.433594 180.78125 273.808594 180.152344 274.21875 179.542969 C 274.625 178.933594 275.0625 178.34375 275.527344 177.777344 C 275.992188 177.207031 276.484375 176.664062 277.003906 176.144531 C 277.523438 175.628906 278.066406 175.132812 278.636719 174.667969 C 279.203125 174.203125 279.792969 173.765625 280.402344 173.359375 C 281.011719 172.949219 281.640625 172.574219 282.289062 172.226562 C 282.933594 171.882812 283.597656 171.570312 284.277344 171.289062 C 284.953125 171.007812 285.644531 170.757812 286.347656 170.546875 C 287.050781 170.332031 287.761719 170.15625 288.480469 170.011719 C 289.199219 169.867188 289.925781 169.761719 290.65625 169.691406 C 291.386719 169.617188 292.121094 169.582031 292.855469 169.582031 C 293.585938 169.582031 294.320312 169.617188 295.050781 169.691406 C 295.78125 169.761719 296.507812 169.867188 297.226562 170.011719 C 297.945312 170.15625 298.65625 170.332031 299.359375 170.546875 C 300.0625 170.757812 300.753906 171.007812 301.429688 171.289062 C 302.109375 171.570312 302.773438 171.882812 303.417969 172.226562 C 304.066406 172.574219 304.695312 172.949219 305.304688 173.359375 C 305.914062 173.765625 306.503906 174.203125 307.074219 174.667969 C 307.640625 175.132812 308.183594 175.628906 308.703125 176.144531 C 309.222656 176.664062 309.714844 177.207031 310.179688 177.777344 C 310.644531 178.34375 311.082031 178.933594 311.488281 179.542969 C 311.898438 180.152344 312.273438 180.78125 312.621094 181.429688 C 312.964844 182.078125 313.28125 182.738281 313.5625 183.417969 C 313.839844 184.09375 314.089844 184.785156 314.300781 185.488281 C 314.515625 186.191406 314.691406 186.902344 314.835938 187.621094 C 314.980469 188.34375 315.085938 189.066406 315.160156 189.796875 C 315.230469 190.527344 315.265625 191.261719 315.265625 191.996094 C 315.265625 192.730469 315.230469 193.460938 315.160156 194.191406 C 315.085938 194.921875 314.980469 195.648438 314.835938 196.367188 C 314.691406 197.085938 314.515625 197.796875 314.300781 198.5 C 314.089844 199.203125 313.839844 199.894531 313.5625 200.570312 C 313.28125 201.25 312.964844 201.914062 312.621094 202.558594 C 312.273438 203.207031 311.898438 203.835938 311.488281 204.445312 C 311.082031 205.058594 310.644531 205.644531 310.179688 206.214844 C 309.714844 206.78125 309.222656 207.324219 308.703125 207.84375 C 308.183594 208.363281 307.640625 208.855469 307.074219 209.320312 C 306.503906 209.785156 305.914062 210.222656 305.304688 210.628906 C 304.695312 211.039062 304.066406 211.414062 303.417969 211.761719 C 302.773438 212.105469 302.109375 212.421875 301.429688 212.703125 C 300.753906 212.984375 300.0625 213.230469 299.359375 213.441406 C 298.65625 213.65625 297.945312 213.832031 297.226562 213.976562 C 296.507812 214.121094 295.78125 214.226562 295.050781 214.300781 C 294.320312 214.371094 293.585938 214.40625 292.855469 214.40625 Z M 292.855469 214.40625 " fill-opacity="1" fill-rule="nonzero"/></g></svg>