<svg xmlns="http://www.w3.org/2000/svg" xmlns:xlink="http://www.w3.org/1999/xlink" width="512" zoomAndPan="magnify" viewBox="0 0 384 383.999986" height="512" preserveAspectRatio="xMidYMid meet" version="1.0"><defs><clipPath id="a3912570d9"><path d="M 6.566406 32.761719 L 377.066406 32.761719 L 377.066406 351.511719 L 6.566406 351.511719 Z M 6.566406 32.761719 " clip-rule="nonzero"/></clipPath></defs><g clip-path="url(#a3912570d9)"><path fill="#ffffff" d="M 156.117188 52.195312 C 73.539062 52.195312 6.601562 119.136719 6.601562 201.710938 C 6.601562 284.289062 73.539062 351.226562 156.117188 351.226562 C 238.691406 351.226562 305.632812 284.289062 305.632812 201.710938 C 305.632812 199.1875 305.566406 196.679688 305.445312 194.1875 C 304.511719 194.21875 303.578125 194.238281 302.640625 194.238281 C 295.277344 194.238281 288.128906 193.316406 281.300781 191.589844 C 281.566406 194.929688 281.710938 198.304688 281.710938 201.714844 C 281.710938 231.851562 271.089844 259.507812 253.390625 281.15625 C 238.195312 242.277344 200.378906 214.730469 156.117188 214.730469 C 111.867188 214.730469 74.042969 242.28125 58.84375 281.15625 C 41.144531 259.507812 30.523438 231.851562 30.523438 201.710938 C 30.523438 132.347656 86.753906 76.117188 156.117188 76.117188 C 178.332031 76.117188 199.199219 81.894531 217.304688 92.019531 C 218.777344 83.878906 221.382812 76.136719 224.953125 68.960938 C 204.347656 58.253906 180.941406 52.195312 156.117188 52.195312 Z M 156.117188 102.65625 C 185.273438 102.65625 208.90625 126.292969 208.90625 155.449219 C 208.90625 184.601562 185.273438 208.238281 156.117188 208.238281 C 126.960938 208.238281 103.328125 184.601562 103.328125 155.449219 C 103.328125 126.292969 126.960938 102.65625 156.117188 102.65625 Z M 302.640625 32.761719 C 343.929688 32.761719 377.398438 66.230469 377.398438 107.519531 C 377.398438 148.808594 343.929688 182.277344 302.640625 182.277344 C 261.351562 182.277344 227.882812 148.808594 227.882812 107.519531 C 227.882812 66.230469 261.355469 32.761719 302.640625 32.761719 Z M 289.613281 120.546875 L 264.8125 120.546875 C 257.636719 120.546875 251.785156 114.691406 251.785156 107.519531 C 251.785156 100.34375 257.636719 94.492188 264.8125 94.492188 L 289.613281 94.492188 L 289.613281 69.691406 C 289.613281 62.515625 295.46875 56.660156 302.640625 56.660156 C 309.816406 56.660156 315.667969 62.515625 315.667969 69.691406 L 315.667969 94.492188 L 340.472656 94.492188 C 347.644531 94.492188 353.5 100.34375 353.5 107.519531 C 353.5 114.695312 347.644531 120.546875 340.472656 120.546875 L 315.667969 120.546875 L 315.667969 145.347656 C 315.667969 152.523438 309.816406 158.378906 302.640625 158.378906 C 295.464844 158.378906 289.613281 152.523438 289.613281 145.347656 Z M 289.613281 120.546875 " fill-opacity="1" fill-rule="evenodd"/></g></svg>