<svg xmlns="http://www.w3.org/2000/svg" xmlns:xlink="http://www.w3.org/1999/xlink" width="512" zoomAndPan="magnify" viewBox="0 0 384 383.999986" height="512" preserveAspectRatio="xMidYMid meet" version="1.0"><defs><clipPath id="731060a60c"><path d="M 41.433594 15.050781 L 342.933594 15.050781 L 342.933594 369 L 41.433594 369 Z M 41.433594 15.050781 " clip-rule="nonzero"/></clipPath></defs><g clip-path="url(#731060a60c)"><path fill="#033693" d="M 191.996094 368.945312 C 211.546875 368.945312 227.386719 353.109375 227.386719 333.558594 L 156.605469 333.558594 C 156.605469 353.109375 172.441406 368.945312 191.996094 368.945312 Z M 307.011719 262.777344 L 307.011719 165.457031 C 307.011719 111.046875 269.234375 65.660156 218.539062 53.625 L 218.539062 41.59375 C 218.539062 26.90625 206.683594 15.050781 191.996094 15.050781 C 177.308594 15.050781 165.453125 26.90625 165.453125 41.59375 L 165.453125 53.625 C 114.757812 65.660156 76.980469 111.046875 76.980469 165.457031 L 76.980469 262.777344 L 41.589844 298.167969 L 41.589844 315.863281 L 342.402344 315.863281 L 342.402344 298.167969 Z M 307.011719 262.777344 " fill-opacity="1" fill-rule="nonzero"/></g></svg>