<svg xmlns="http://www.w3.org/2000/svg" xmlns:xlink="http://www.w3.org/1999/xlink" width="512" zoomAndPan="magnify" viewBox="0 0 384 383.999986" height="512" preserveAspectRatio="xMidYMid meet" version="1.0"><defs><filter x="0%" y="0%" width="100%" height="100%" id="625b7205ac"><feColorMatrix values="0 0 0 0 1 0 0 0 0 1 0 0 0 0 1 0 0 0 1 0" color-interpolation-filters="sRGB"/></filter><mask id="443f4711f5"><g filter="url(#625b7205ac)"><rect x="-38.4" width="460.8" fill="#000000" y="-38.399999" height="460.799983" fill-opacity="0.5"/></g></mask><clipPath id="223edeea28"><path d="M 17.804688 0.972656 L 51.703125 0.972656 L 51.703125 44.257812 L 17.804688 44.257812 Z M 17.804688 0.972656 " clip-rule="nonzero"/></clipPath><clipPath id="6909f1302e"><rect x="0" width="53" y="0" height="109"/></clipPath><mask id="f26ad14e1a"><g filter="url(#625b7205ac)"><rect x="-38.4" width="460.8" fill="#000000" y="-38.399999" height="460.799983" fill-opacity="0.5"/></g></mask><clipPath id="7746379aae"><path d="M 34.925781 0.347656 L 56.726562 0.347656 L 56.726562 28.613281 L 34.925781 28.613281 Z M 34.925781 0.347656 " clip-rule="nonzero"/></clipPath><clipPath id="8b90f2932d"><rect x="0" width="57" y="0" height="70"/></clipPath><mask id="4d84756fb6"><g filter="url(#625b7205ac)"><rect x="-38.4" width="460.8" fill="#000000" y="-38.399999" height="460.799983" fill-opacity="0.5"/></g></mask><clipPath id="f0f91031d6"><path d="M 9 0.160156 L 15 0.160156 L 15 22.558594 L 9 22.558594 Z M 9 0.160156 " clip-rule="nonzero"/></clipPath><clipPath id="fcd03eece9"><path d="M 0.804688 8 L 23.304688 8 L 23.304688 14 L 0.804688 14 Z M 0.804688 8 " clip-rule="nonzero"/></clipPath><clipPath id="09f5dbbb2b"><rect x="0" width="24" y="0" height="23"/></clipPath><mask id="9df370d255"><g filter="url(#625b7205ac)"><rect x="-38.4" width="460.8" fill="#000000" y="-38.399999" height="460.799983" fill-opacity="0.5"/></g></mask><clipPath id="d1c63516ab"><path d="M 0.609375 0.972656 L 28.359375 0.972656 L 28.359375 28.722656 L 0.609375 28.722656 Z M 0.609375 0.972656 " clip-rule="nonzero"/></clipPath><clipPath id="45a0ba7410"><rect x="0" width="29" y="0" height="30"/></clipPath><mask id="ce88a40af0"><g filter="url(#625b7205ac)"><rect x="-38.4" width="460.8" fill="#000000" y="-38.399999" height="460.799983" fill-opacity="0.5"/></g></mask><clipPath id="51961cbf49"><path d="M 44.601562 0.40625 L 72.351562 0.40625 L 72.351562 36.40625 L 44.601562 36.40625 Z M 44.601562 0.40625 " clip-rule="nonzero"/></clipPath><clipPath id="e73230f51a"><rect x="0" width="73" y="0" height="55"/></clipPath><clipPath id="9f6fb8aa19"><path d="M 55.316406 36.679688 L 328.316406 36.679688 L 328.316406 347.179688 L 55.316406 347.179688 Z M 55.316406 36.679688 " clip-rule="nonzero"/></clipPath></defs><g mask="url(#443f4711f5)"><g transform="matrix(1, 0, 0, 1, 0, 17)"><g clip-path="url(#6909f1302e)"><g clip-path="url(#223edeea28)"><path fill="#ffffff" d="M -33.859375 62.027344 C -14.640625 56.25 -10.46875 45.238281 -5.773438 25.15625 C -5.699219 24.84375 -5.539062 24.585938 -5.285156 24.382812 C -5.03125 24.183594 -4.742188 24.082031 -4.417969 24.082031 C -4.097656 24.082031 -3.808594 24.183594 -3.554688 24.382812 C -3.300781 24.585938 -3.136719 24.84375 -3.066406 25.15625 C 1.628906 45.238281 5.800781 56.25 25.023438 62.027344 C 25.316406 62.113281 25.554688 62.28125 25.738281 62.527344 C 25.921875 62.773438 26.011719 63.050781 26.011719 63.359375 C 26.011719 63.664062 25.921875 63.941406 25.738281 64.1875 C 25.554688 64.433594 25.316406 64.601562 25.023438 64.691406 C 5.800781 70.464844 1.621094 81.476562 -3.070312 101.5625 C -3.144531 101.875 -3.308594 102.132812 -3.5625 102.335938 C -3.8125 102.535156 -4.101562 102.636719 -4.425781 102.636719 C -4.75 102.636719 -5.039062 102.535156 -5.289062 102.335938 C -5.542969 102.132812 -5.707031 101.875 -5.78125 101.5625 C -10.472656 81.476562 -14.648438 70.464844 -33.867188 64.691406 C -34.160156 64.605469 -34.402344 64.4375 -34.585938 64.1875 C -34.769531 63.941406 -34.859375 63.664062 -34.859375 63.355469 C -34.859375 63.046875 -34.765625 62.773438 -34.582031 62.527344 C -34.394531 62.277344 -34.15625 62.113281 -33.859375 62.027344 Z M 22.738281 21.398438 C 30.84375 24.371094 33.328125 29.523438 35.511719 38.167969 C 35.589844 38.472656 35.757812 38.726562 36.007812 38.917969 C 36.257812 39.113281 36.542969 39.210938 36.859375 39.210938 C 37.175781 39.210938 37.460938 39.113281 37.710938 38.917969 C 37.960938 38.726562 38.128906 38.472656 38.207031 38.167969 C 40.394531 29.527344 42.875 24.375 50.980469 21.398438 C 51.253906 21.296875 51.476562 21.128906 51.644531 20.890625 C 51.808594 20.648438 51.894531 20.382812 51.894531 20.089844 C 51.894531 19.800781 51.808594 19.535156 51.644531 19.292969 C 51.476562 19.054688 51.253906 18.886719 50.980469 18.785156 C 42.875 15.8125 40.390625 10.660156 38.207031 2.015625 C 38.128906 1.710938 37.960938 1.457031 37.710938 1.265625 C 37.460938 1.070312 37.175781 0.972656 36.859375 0.972656 C 36.542969 0.972656 36.257812 1.070312 36.007812 1.265625 C 35.757812 1.457031 35.589844 1.710938 35.511719 2.015625 C 33.324219 10.660156 30.84375 15.8125 22.738281 18.785156 C 22.464844 18.886719 22.242188 19.054688 22.078125 19.292969 C 21.910156 19.535156 21.824219 19.800781 21.824219 20.089844 C 21.824219 20.382812 21.910156 20.648438 22.078125 20.890625 C 22.242188 21.128906 22.464844 21.296875 22.738281 21.398438 Z M 24.605469 96.175781 C 29.386719 98.199219 31.207031 101.464844 32.640625 106.609375 C 32.722656 106.910156 32.886719 107.15625 33.136719 107.34375 C 33.386719 107.535156 33.667969 107.628906 33.980469 107.628906 C 34.292969 107.628906 34.574219 107.535156 34.824219 107.34375 C 35.070312 107.15625 35.238281 106.910156 35.320312 106.609375 C 36.75 101.464844 38.570312 98.199219 43.355469 96.175781 C 43.609375 96.066406 43.816406 95.894531 43.96875 95.664062 C 44.125 95.429688 44.199219 95.171875 44.199219 94.894531 C 44.199219 94.617188 44.125 94.359375 43.96875 94.128906 C 43.816406 93.894531 43.609375 93.722656 43.355469 93.613281 C 38.570312 91.589844 36.75 88.324219 35.320312 83.183594 C 35.238281 82.878906 35.070312 82.636719 34.824219 82.445312 C 34.574219 82.257812 34.292969 82.160156 33.980469 82.160156 C 33.667969 82.160156 33.386719 82.257812 33.136719 82.445312 C 32.886719 82.636719 32.722656 82.878906 32.640625 83.183594 C 31.207031 88.324219 29.390625 91.589844 24.605469 93.613281 C 24.347656 93.722656 24.144531 93.894531 23.988281 94.125 C 23.835938 94.359375 23.757812 94.613281 23.757812 94.894531 C 23.757812 95.171875 23.832031 95.429688 23.988281 95.660156 C 24.140625 95.894531 24.34375 96.066406 24.601562 96.175781 Z M 24.605469 96.175781 " fill-opacity="1" fill-rule="nonzero"/></g></g></g></g><g mask="url(#f26ad14e1a)"><g transform="matrix(1, 0, 0, 1, 27, 55)"><g clip-path="url(#8b90f2932d)"><g clip-path="url(#7746379aae)"><path fill="#ffffff" d="M 1.722656 39.585938 C 14.074219 35.875 16.753906 28.796875 19.773438 15.890625 C 19.820312 15.6875 19.925781 15.523438 20.085938 15.390625 C 20.25 15.261719 20.433594 15.199219 20.640625 15.199219 C 20.851562 15.199219 21.035156 15.261719 21.199219 15.390625 C 21.359375 15.523438 21.464844 15.6875 21.511719 15.890625 C 24.527344 28.796875 27.210938 35.875 39.5625 39.585938 C 39.753906 39.640625 39.90625 39.75 40.023438 39.90625 C 40.140625 40.066406 40.199219 40.242188 40.199219 40.441406 C 40.199219 40.636719 40.140625 40.816406 40.023438 40.972656 C 39.90625 41.132812 39.753906 41.238281 39.5625 41.296875 C 27.210938 45.007812 24.523438 52.085938 21.507812 64.992188 C 21.460938 65.195312 21.355469 65.359375 21.195312 65.492188 C 21.03125 65.621094 20.847656 65.683594 20.636719 65.683594 C 20.429688 65.683594 20.246094 65.621094 20.082031 65.492188 C 19.921875 65.359375 19.816406 65.195312 19.769531 64.992188 C 16.75 52.085938 14.070312 45.007812 1.71875 41.296875 C 1.527344 41.242188 1.375 41.132812 1.257812 40.976562 C 1.136719 40.816406 1.078125 40.636719 1.078125 40.441406 C 1.082031 40.242188 1.140625 40.0625 1.257812 39.90625 C 1.378906 39.746094 1.53125 39.640625 1.722656 39.585938 Z M 38.097656 13.472656 C 43.304688 15.386719 44.902344 18.695312 46.304688 24.25 C 46.355469 24.449219 46.460938 24.609375 46.625 24.734375 C 46.785156 24.859375 46.96875 24.921875 47.171875 24.921875 C 47.375 24.921875 47.558594 24.859375 47.71875 24.734375 C 47.878906 24.609375 47.988281 24.449219 48.039062 24.25 C 49.441406 18.699219 51.039062 15.386719 56.246094 13.472656 C 56.421875 13.410156 56.566406 13.300781 56.671875 13.148438 C 56.78125 12.992188 56.835938 12.820312 56.835938 12.632812 C 56.835938 12.445312 56.78125 12.277344 56.671875 12.121094 C 56.566406 11.96875 56.421875 11.859375 56.246094 11.792969 C 51.039062 9.882812 49.441406 6.574219 48.039062 1.019531 C 47.988281 0.820312 47.878906 0.660156 47.71875 0.535156 C 47.558594 0.410156 47.375 0.347656 47.171875 0.347656 C 46.96875 0.347656 46.785156 0.410156 46.625 0.535156 C 46.460938 0.660156 46.355469 0.820312 46.304688 1.019531 C 44.898438 6.574219 43.304688 9.882812 38.097656 11.792969 C 37.921875 11.859375 37.777344 11.96875 37.671875 12.121094 C 37.5625 12.277344 37.507812 12.445312 37.507812 12.632812 C 37.507812 12.820312 37.5625 12.992188 37.671875 13.148438 C 37.777344 13.300781 37.921875 13.410156 38.097656 13.472656 Z M 39.296875 61.53125 C 42.371094 62.832031 43.539062 64.929688 44.460938 68.238281 C 44.511719 68.429688 44.621094 68.589844 44.78125 68.710938 C 44.941406 68.832031 45.121094 68.894531 45.320312 68.894531 C 45.523438 68.894531 45.703125 68.832031 45.863281 68.710938 C 46.023438 68.589844 46.128906 68.429688 46.183594 68.238281 C 47.101562 64.929688 48.269531 62.832031 51.34375 61.53125 C 51.707031 61.378906 51.890625 61.101562 51.890625 60.710938 C 51.890625 60.316406 51.707031 60.039062 51.34375 59.886719 C 48.273438 58.585938 47.101562 56.488281 46.183594 53.179688 C 46.128906 52.988281 46.023438 52.828125 45.863281 52.707031 C 45.703125 52.585938 45.523438 52.523438 45.320312 52.523438 C 45.121094 52.523438 44.941406 52.585938 44.78125 52.707031 C 44.621094 52.828125 44.511719 52.988281 44.460938 53.179688 C 43.539062 56.488281 42.371094 58.585938 39.296875 59.886719 C 38.933594 60.039062 38.75 60.3125 38.75 60.707031 C 38.75 61.101562 38.929688 61.375 39.292969 61.53125 Z M 39.296875 61.53125 " fill-opacity="1" fill-rule="nonzero"/></g></g></g></g><g mask="url(#4d84756fb6)"><g transform="matrix(1, 0, 0, 1, 17, 318)"><g clip-path="url(#09f5dbbb2b)"><g clip-path="url(#f0f91031d6)"><path fill="#ffffff" d="M 10.3125 20.664062 C 10.28125 20.46875 10.265625 20.277344 10.265625 20.085938 C 10.265625 20.078125 10.265625 20.070312 10.265625 20.058594 C 10.277344 19.667969 10.277344 19.320312 10.273438 19.015625 C 10.265625 18.363281 10.25 17.625 10.226562 16.8125 L 10.226562 16.824219 C 10.15625 14.523438 10.070312 11.929688 9.96875 9.042969 L 9.96875 9.035156 C 9.945312 8.292969 9.925781 7.59375 9.914062 6.945312 C 9.867188 4.792969 9.863281 3.238281 9.902344 2.285156 C 9.949219 1.089844 10.957031 0.160156 12.152344 0.207031 C 13.347656 0.253906 14.277344 1.261719 14.230469 2.457031 C 14.195312 3.320312 14.199219 4.789062 14.242188 6.855469 C 14.257812 7.488281 14.273438 8.167969 14.296875 8.898438 L 14.296875 8.890625 C 14.398438 11.785156 14.484375 14.382812 14.558594 16.6875 C 14.558594 16.691406 14.558594 16.695312 14.558594 16.699219 C 14.578125 17.53125 14.59375 18.28125 14.605469 18.957031 C 14.609375 19.3125 14.605469 19.710938 14.597656 20.15625 L 14.597656 20.128906 C 14.597656 20.074219 14.59375 20.019531 14.585938 19.972656 C 14.777344 21.152344 13.976562 22.261719 12.796875 22.453125 C 11.613281 22.648438 10.503906 21.84375 10.3125 20.664062 Z M 10.3125 20.664062 " fill-opacity="1" fill-rule="nonzero"/></g><g clip-path="url(#fcd03eece9)"><path fill="#ffffff" d="M 2.785156 8.992188 C 2.980469 8.960938 3.171875 8.949219 3.363281 8.949219 C 3.371094 8.949219 3.378906 8.949219 3.390625 8.949219 C 3.78125 8.957031 4.128906 8.960938 4.433594 8.957031 C 5.085938 8.945312 5.820312 8.933594 6.636719 8.910156 L 6.625 8.910156 C 8.925781 8.835938 11.519531 8.75 14.40625 8.652344 L 14.414062 8.652344 C 15.15625 8.628906 15.851562 8.609375 16.5 8.59375 C 18.65625 8.550781 20.210938 8.546875 21.164062 8.585938 C 22.359375 8.632812 23.289062 9.636719 23.242188 10.832031 C 23.195312 12.027344 22.1875 12.957031 20.992188 12.910156 C 20.125 12.878906 18.660156 12.882812 16.59375 12.925781 C 15.960938 12.9375 15.277344 12.957031 14.550781 12.980469 L 14.558594 12.980469 C 11.664062 13.078125 9.066406 13.167969 6.761719 13.238281 C 6.757812 13.238281 6.753906 13.238281 6.75 13.238281 C 5.917969 13.261719 5.167969 13.277344 4.492188 13.285156 C 4.136719 13.292969 3.738281 13.289062 3.292969 13.28125 L 3.320312 13.28125 C 3.375 13.28125 3.429688 13.277344 3.476562 13.269531 C 2.296875 13.460938 1.183594 12.660156 0.992188 11.476562 C 0.800781 10.296875 1.605469 9.183594 2.785156 8.992188 Z M 2.785156 8.992188 " fill-opacity="1" fill-rule="nonzero"/></g></g></g></g><g mask="url(#9df370d255)"><g transform="matrix(1, 0, 0, 1, 331, 17)"><g clip-path="url(#45a0ba7410)"><g clip-path="url(#d1c63516ab)"><path fill="#ffffff" d="M 14.59375 0.972656 C 6.867188 0.972656 0.609375 7.230469 0.609375 14.957031 C 0.609375 22.683594 6.867188 28.945312 14.59375 28.945312 C 22.324219 28.945312 28.582031 22.683594 28.582031 14.957031 C 28.582031 7.230469 22.324219 0.972656 14.59375 0.972656 Z M 14.59375 26.148438 C 8.414062 26.148438 3.40625 21.140625 3.40625 14.957031 C 3.40625 8.777344 8.414062 3.769531 14.59375 3.769531 C 20.777344 3.769531 25.785156 8.777344 25.785156 14.957031 C 25.785156 21.140625 20.777344 26.148438 14.59375 26.148438 Z M 14.59375 26.148438 " fill-opacity="1" fill-rule="nonzero"/></g></g></g></g><g mask="url(#ce88a40af0)"><g transform="matrix(1, 0, 0, 1, 301, 329)"><g clip-path="url(#e73230f51a)"><g clip-path="url(#51961cbf49)"><path fill="#ffffff" d="M 2.136719 50.582031 C 17.933594 45.835938 21.363281 36.789062 25.222656 20.28125 C 25.28125 20.023438 25.417969 19.8125 25.625 19.648438 C 25.832031 19.480469 26.070312 19.398438 26.335938 19.398438 C 26.601562 19.398438 26.835938 19.480469 27.046875 19.648438 C 27.253906 19.8125 27.386719 20.023438 27.449219 20.28125 C 31.304688 36.789062 34.734375 45.835938 50.53125 50.582031 C 50.773438 50.65625 50.96875 50.792969 51.121094 50.996094 C 51.269531 51.199219 51.347656 51.425781 51.347656 51.679688 C 51.347656 51.929688 51.269531 52.15625 51.121094 52.359375 C 50.96875 52.5625 50.773438 52.699219 50.53125 52.773438 C 34.734375 57.519531 31.300781 66.570312 27.441406 83.074219 C 27.382812 83.335938 27.25 83.546875 27.039062 83.710938 C 26.832031 83.878906 26.59375 83.960938 26.328125 83.960938 C 26.0625 83.960938 25.828125 83.878906 25.617188 83.710938 C 25.410156 83.546875 25.277344 83.335938 25.214844 83.074219 C 21.359375 66.570312 17.929688 57.519531 2.132812 52.773438 C 1.890625 52.703125 1.695312 52.566406 1.542969 52.363281 C 1.390625 52.160156 1.316406 51.929688 1.316406 51.675781 C 1.320312 51.425781 1.394531 51.195312 1.546875 50.996094 C 1.699219 50.792969 1.894531 50.65625 2.136719 50.582031 Z M 48.65625 17.195312 C 55.316406 19.636719 57.359375 23.871094 59.152344 30.976562 C 59.21875 31.226562 59.355469 31.433594 59.558594 31.59375 C 59.765625 31.753906 60 31.832031 60.261719 31.832031 C 60.519531 31.832031 60.753906 31.753906 60.960938 31.59375 C 61.167969 31.433594 61.300781 31.226562 61.367188 30.976562 C 63.164062 23.871094 65.203125 19.640625 71.863281 17.195312 C 72.089844 17.109375 72.273438 16.972656 72.410156 16.773438 C 72.546875 16.578125 72.617188 16.359375 72.617188 16.121094 C 72.617188 15.878906 72.546875 15.660156 72.410156 15.464844 C 72.273438 15.269531 72.089844 15.128906 71.863281 15.046875 C 65.203125 12.601562 63.164062 8.367188 61.367188 1.265625 C 61.300781 1.011719 61.167969 0.804688 60.960938 0.644531 C 60.753906 0.484375 60.519531 0.40625 60.261719 0.40625 C 60 0.40625 59.765625 0.484375 59.558594 0.644531 C 59.355469 0.804688 59.21875 1.011719 59.152344 1.265625 C 57.355469 8.367188 55.316406 12.601562 48.65625 15.046875 C 48.429688 15.128906 48.25 15.269531 48.109375 15.464844 C 47.972656 15.660156 47.90625 15.878906 47.90625 16.121094 C 47.90625 16.359375 47.972656 16.578125 48.109375 16.773438 C 48.25 16.972656 48.429688 17.109375 48.65625 17.195312 Z M 50.191406 78.648438 C 54.121094 80.3125 55.617188 82.996094 56.792969 87.222656 C 56.859375 87.472656 56.996094 87.671875 57.203125 87.828125 C 57.40625 87.984375 57.636719 88.0625 57.894531 88.0625 C 58.152344 88.0625 58.382812 87.984375 58.585938 87.828125 C 58.789062 87.671875 58.925781 87.472656 58.996094 87.222656 C 60.171875 82.996094 61.664062 80.3125 65.597656 78.648438 C 65.808594 78.558594 65.976562 78.417969 66.105469 78.226562 C 66.230469 78.035156 66.292969 77.828125 66.292969 77.597656 C 66.292969 77.367188 66.230469 77.15625 66.105469 76.96875 C 65.976562 76.777344 65.808594 76.636719 65.597656 76.546875 C 61.667969 74.882812 60.171875 72.199219 58.996094 67.972656 C 58.925781 67.722656 58.789062 67.519531 58.585938 67.367188 C 58.382812 67.210938 58.152344 67.132812 57.894531 67.132812 C 57.636719 67.132812 57.40625 67.210938 57.203125 67.367188 C 56.996094 67.519531 56.859375 67.722656 56.792969 67.972656 C 55.617188 72.199219 54.121094 74.882812 50.191406 76.546875 C 49.976562 76.636719 49.808594 76.773438 49.683594 76.964844 C 49.554688 77.15625 49.492188 77.367188 49.492188 77.597656 C 49.492188 77.824219 49.554688 78.035156 49.679688 78.226562 C 49.808594 78.417969 49.976562 78.558594 50.1875 78.648438 Z M 50.191406 78.648438 " fill-opacity="1" fill-rule="nonzero"/></g></g></g></g><g clip-path="url(#9f6fb8aa19)"><path fill="#ffffff" d="M 301.792969 36.679688 L 130.40625 36.679688 C 115.625 36.679688 103.625 48.675781 103.625 63.457031 L 103.625 186.644531 L 60.78125 186.644531 C 57.835938 186.644531 55.425781 189.054688 55.425781 192 L 55.425781 317.863281 C 55.425781 334.089844 68.652344 347.320312 84.882812 347.320312 L 301.792969 347.320312 C 316.578125 347.320312 328.574219 335.320312 328.574219 320.539062 L 328.574219 63.457031 C 328.574219 48.675781 316.578125 36.679688 301.792969 36.679688 Z M 66.136719 317.863281 L 66.136719 197.355469 L 103.625 197.355469 L 103.625 317.863281 C 103.625 328.199219 95.21875 336.609375 84.882812 336.609375 C 74.542969 336.609375 66.136719 328.199219 66.136719 317.863281 Z M 317.863281 320.539062 C 317.863281 329.378906 310.632812 336.609375 301.792969 336.609375 L 114.339844 336.609375 L 114.339844 63.457031 C 114.339844 54.621094 121.570312 47.390625 130.40625 47.390625 L 301.792969 47.390625 C 310.632812 47.390625 317.863281 54.621094 317.863281 63.457031 Z M 317.863281 320.539062 " fill-opacity="1" fill-rule="nonzero"/></g><path fill="#ffffff" d="M 164.308594 140.261719 C 177.539062 140.261719 190.179688 134.582031 198.960938 124.675781 C 199.390625 124.195312 199.710938 123.65625 199.925781 123.121094 C 200.355469 122.105469 200.40625 120.925781 200.140625 119.855469 C 197.460938 108.769531 189.910156 99.984375 180.109375 95.324219 C 183.589844 91.523438 185.785156 86.488281 185.785156 80.917969 C 185.785156 69.082031 176.144531 59.441406 164.308594 59.441406 C 152.472656 59.441406 142.832031 69.082031 142.832031 80.917969 C 142.832031 86.488281 145.027344 91.523438 148.507812 95.324219 C 138.816406 99.929688 131.316406 108.554688 128.585938 119.480469 C 128.210938 120.660156 128.265625 121.945312 128.746094 123.121094 C 129.015625 123.765625 129.390625 124.355469 129.925781 124.890625 C 138.601562 134.691406 151.132812 140.261719 164.308594 140.261719 Z M 153.542969 80.917969 C 153.542969 74.972656 158.363281 70.152344 164.308594 70.152344 C 170.253906 70.152344 175.074219 74.972656 175.074219 80.917969 C 175.074219 86.863281 170.253906 91.683594 164.363281 91.683594 C 164.363281 91.683594 164.308594 91.683594 164.308594 91.683594 C 164.308594 91.683594 164.253906 91.683594 164.253906 91.683594 C 158.363281 91.683594 153.542969 86.863281 153.542969 80.917969 Z M 164.253906 102.394531 C 164.253906 102.394531 164.308594 102.449219 164.253906 102.394531 C 164.308594 102.394531 164.308594 102.394531 164.363281 102.394531 C 175.503906 102.394531 185.25 109.359375 188.945312 119.640625 C 182.359375 125.960938 173.519531 129.496094 164.308594 129.496094 C 155.097656 129.496094 146.257812 125.90625 139.726562 119.640625 C 143.421875 109.410156 153.113281 102.449219 164.253906 102.394531 Z M 164.253906 102.394531 " fill-opacity="1" fill-rule="nonzero"/><path fill="#ffffff" d="M 221.671875 86.273438 L 249.199219 86.273438 C 252.144531 86.273438 254.554688 83.863281 254.554688 80.917969 C 254.554688 77.972656 252.144531 75.5625 249.199219 75.5625 L 221.671875 75.5625 C 218.726562 75.5625 216.316406 77.972656 216.316406 80.917969 C 216.316406 83.863281 218.671875 86.273438 221.671875 86.273438 Z M 221.671875 86.273438 " fill-opacity="1" fill-rule="nonzero"/><path fill="#ffffff" d="M 221.671875 116.800781 L 296.277344 116.800781 C 299.222656 116.800781 301.632812 114.390625 301.632812 111.445312 C 301.632812 108.5 299.222656 106.089844 296.277344 106.089844 L 221.671875 106.089844 C 218.726562 106.089844 216.316406 108.5 216.316406 111.445312 C 216.316406 114.390625 218.671875 116.800781 221.671875 116.800781 Z M 221.671875 116.800781 " fill-opacity="1" fill-rule="nonzero"/><path fill="#ffffff" d="M 297.402344 158.308594 L 134.796875 158.308594 C 131.851562 158.308594 129.441406 160.71875 129.441406 163.667969 C 129.441406 166.613281 131.851562 169.023438 134.796875 169.023438 L 297.347656 169.023438 C 300.292969 169.023438 302.703125 166.613281 302.703125 163.667969 C 302.703125 160.71875 300.347656 158.308594 297.402344 158.308594 Z M 297.402344 158.308594 " fill-opacity="1" fill-rule="nonzero"/><path fill="#ffffff" d="M 297.402344 192.75 L 134.796875 192.75 C 131.851562 192.75 129.441406 195.160156 129.441406 198.105469 C 129.441406 201.050781 131.851562 203.460938 134.796875 203.460938 L 297.347656 203.460938 C 300.292969 203.460938 302.703125 201.050781 302.703125 198.105469 C 302.703125 195.160156 300.347656 192.75 297.402344 192.75 Z M 297.402344 192.75 " fill-opacity="1" fill-rule="nonzero"/><path fill="#ffffff" d="M 297.402344 227.1875 L 134.796875 227.1875 C 131.851562 227.1875 129.441406 229.597656 129.441406 232.542969 C 129.441406 235.488281 131.851562 237.898438 134.796875 237.898438 L 297.347656 237.898438 C 300.292969 237.898438 302.703125 235.488281 302.703125 232.542969 C 302.703125 229.597656 300.347656 227.1875 297.402344 227.1875 Z M 297.402344 227.1875 " fill-opacity="1" fill-rule="nonzero"/><path fill="#ffffff" d="M 297.402344 261.625 L 134.796875 261.625 C 131.851562 261.625 129.441406 264.035156 129.441406 266.980469 C 129.441406 269.925781 131.851562 272.335938 134.796875 272.335938 L 297.347656 272.335938 C 300.292969 272.335938 302.703125 269.925781 302.703125 266.980469 C 302.703125 264.035156 300.347656 261.625 297.402344 261.625 Z M 297.402344 261.625 " fill-opacity="1" fill-rule="nonzero"/><path fill="#ffffff" d="M 297.402344 296.0625 L 134.796875 296.0625 C 131.851562 296.0625 129.441406 298.472656 129.441406 301.417969 C 129.441406 304.363281 131.851562 306.773438 134.796875 306.773438 L 297.347656 306.773438 C 300.292969 306.773438 302.703125 304.363281 302.703125 301.417969 C 302.703125 298.472656 300.347656 296.0625 297.402344 296.0625 Z M 297.402344 296.0625 " fill-opacity="1" fill-rule="nonzero"/></svg>