<svg xmlns="http://www.w3.org/2000/svg" xmlns:xlink="http://www.w3.org/1999/xlink" width="512" zoomAndPan="magnify" viewBox="0 0 384 383.999986" height="512" preserveAspectRatio="xMidYMid meet" version="1.0"><defs><clipPath id="a5bc95ec18"><path d="M 27.480469 3.976562 L 356.730469 3.976562 L 356.730469 98 L 27.480469 98 Z M 27.480469 3.976562 " clip-rule="nonzero"/></clipPath><clipPath id="a451b35a2e"><path d="M 50 121 L 334 121 L 334 379.726562 L 50 379.726562 Z M 50 121 " clip-rule="nonzero"/></clipPath></defs><g clip-path="url(#a5bc95ec18)"><path fill="#000000" d="M 344.96875 50.066406 L 262.65625 50.066406 L 262.65625 15.71875 C 262.65625 9.261719 257.367188 3.976562 250.898438 3.976562 L 133.308594 3.976562 C 126.84375 3.976562 121.550781 9.261719 121.550781 15.71875 L 121.550781 50.066406 L 39.238281 50.066406 C 32.773438 50.066406 27.480469 55.347656 27.480469 61.808594 L 27.480469 85.292969 C 27.480469 91.75 32.773438 97.035156 39.238281 97.035156 L 344.96875 97.035156 C 351.4375 97.035156 356.730469 91.75 356.730469 85.292969 L 356.730469 61.808594 C 356.730469 55.347656 351.4375 50.066406 344.96875 50.066406 Z M 344.96875 50.066406 " fill-opacity="1" fill-rule="nonzero"/></g><g clip-path="url(#a451b35a2e)"><path fill="#000000" d="M 79.21875 369.453125 C 79.808594 375.324219 84.804688 379.726562 90.976562 379.726562 L 293.523438 379.726562 C 299.402344 379.726562 304.402344 375.324219 305.285156 369.453125 L 333.503906 121.691406 L 50.996094 121.691406 Z M 239.140625 331.289062 L 259.71875 167.191406 C 260.601562 160.734375 266.480469 156.332031 272.945312 156.917969 C 279.414062 157.800781 283.824219 163.671875 283.234375 170.128906 L 262.65625 334.226562 C 261.777344 340.097656 256.777344 344.5 250.898438 344.5 C 250.3125 344.5 250.015625 344.5 249.429688 344.5 C 242.960938 343.621094 238.550781 337.75 239.140625 331.289062 Z M 180.34375 168.660156 C 180.34375 162.203125 185.636719 156.917969 192.105469 156.917969 C 198.570312 156.917969 203.863281 162.203125 203.863281 168.660156 L 203.863281 332.757812 C 203.863281 339.214844 198.570312 344.5 192.105469 344.5 C 185.636719 344.5 180.34375 339.214844 180.34375 332.757812 Z M 111.261719 156.917969 C 117.730469 156.039062 123.609375 160.734375 124.492188 167.191406 L 145.070312 331.289062 C 145.949219 337.75 141.246094 343.621094 134.78125 344.5 C 134.191406 344.5 133.898438 344.5 133.308594 344.5 C 127.429688 344.5 122.433594 340.097656 121.550781 334.226562 L 100.972656 170.128906 C 100.386719 163.671875 104.792969 157.800781 111.261719 156.917969 Z M 111.261719 156.917969 " fill-opacity="1" fill-rule="nonzero"/></g></svg>